<?xml version="1.0" encoding="UTF-8" standalone="no"?>
<!-- Generator: Adobe Illustrator 16.0.0, SVG Export Plug-In . SVG Version: 6.00 Build 0)  -->

<svg
   xmlns:dc="http://purl.org/dc/elements/1.1/"
   xmlns:cc="http://creativecommons.org/ns#"
   xmlns:rdf="http://www.w3.org/1999/02/22-rdf-syntax-ns#"
   xmlns:svg="http://www.w3.org/2000/svg"
   xmlns="http://www.w3.org/2000/svg"
   xmlns:sodipodi="http://sodipodi.sourceforge.net/DTD/sodipodi-0.dtd"
   xmlns:inkscape="http://www.inkscape.org/namespaces/inkscape"
   version="1.1"
   id="Capa_1"
   x="0px"
   y="0px"
   width="512px"
   height="512px"
   viewBox="0 0 585.283 585.283"
   style="enable-background:new 0 0 585.283 585.283;"
   xml:space="preserve"
   inkscape:version="0.91 r13725"
   sodipodi:docname="cogWheelDark.svg"><metadata
     id="metadata43"><rdf:RDF><cc:Work
         rdf:about=""><dc:format>image/svg+xml</dc:format><dc:type
           rdf:resource="http://purl.org/dc/dcmitype/StillImage" /></cc:Work></rdf:RDF></metadata><defs
     id="defs41" /><sodipodi:namedview
     pagecolor="#ffffff"
     bordercolor="#666666"
     borderopacity="1"
     objecttolerance="10"
     gridtolerance="10"
     guidetolerance="10"
     inkscape:pageopacity="0"
     inkscape:pageshadow="2"
     inkscape:window-width="1920"
     inkscape:window-height="1017"
     id="namedview39"
     showgrid="false"
     inkscape:zoom="0.4609375"
     inkscape:cx="256"
     inkscape:cy="256"
     inkscape:window-x="-8"
     inkscape:window-y="-8"
     inkscape:window-maximized="1"
     inkscape:current-layer="Capa_1" /><g
     id="g3"
     style="fill:#4d4d4d"><g
       id="g5"
       style="fill:#4d4d4d"><path
         d="M537.998,227.826h-20.963c-5.225,0-13.502-6.353-17.029-15.471c-1.242-3.213-2.576-6.432-3.963-9.569    c-3.953-8.938-2.596-19.278,1.096-22.962l14.838-14.819c18.441-18.443,18.441-48.443,0.006-66.879l-24.783-24.783    c-8.951-8.951-20.83-13.877-33.455-13.877s-24.504,4.927-33.451,13.877l-14.822,14.822c-2.158,2.157-6.531,3.498-11.414,3.498    c-3.957,0-8.064-0.851-11.564-2.399c-3.139-1.386-6.352-2.717-9.553-3.957c-9.123-3.528-15.479-11.809-15.479-17.032V47.292    C357.461,21.218,336.246,0,310.172,0h-35.049c-26.077,0-47.289,21.215-47.289,47.292v20.982c0,5.223-6.356,13.5-15.475,17.029    c-3.191,1.233-6.405,2.564-9.553,3.954c-3.5,1.548-7.613,2.399-11.573,2.399c-4.883,0-9.259-1.34-11.417-3.495l-14.829-14.823    c-8.938-8.938-20.82-13.865-33.452-13.865s-24.504,4.927-33.431,13.877L73.334,98.122c-18.437,18.437-18.437,48.437,0,66.873    l14.823,14.823c3.69,3.69,5.052,14.039,1.102,22.987c-1.383,3.136-2.714,6.349-3.951,9.553    c-3.525,9.116-11.805,15.468-17.035,15.468H47.297c-26.077,0-47.289,21.215-47.289,47.292v35.049    c0,26.074,21.215,47.289,47.289,47.289H68.27c5.227,0,13.51,6.352,17.032,15.469c1.236,3.201,2.567,6.414,3.95,9.549    c3.951,8.949,2.589,19.297-1.102,22.988l-14.823,14.822c-18.437,18.434-18.437,48.449-0.006,66.9l24.786,24.789    c8.935,8.932,20.808,13.854,33.437,13.854c12.628,0,24.501-4.918,33.437-13.854l14.832-14.842    c2.188-2.189,6.454-3.496,11.408-3.496c3.957,0,8.063,0.85,11.567,2.398c3.109,1.377,6.328,2.711,9.562,3.963    c9.122,3.527,15.475,11.805,15.475,17.029v20.963c0,26.074,21.215,47.293,47.289,47.293h35.05    c26.076,0,47.289-21.215,47.289-47.293v-20.963c0-5.225,6.352-13.502,15.467-17.023c3.201-1.236,6.414-2.566,9.551-3.953    c3.5-1.545,7.607-2.396,11.564-2.396c4.889,0,9.266,1.34,11.422,3.498l14.822,14.822c8.961,8.936,20.842,13.854,33.469,13.854    c1.367,0,2.75-0.062,4.111-0.182c17.268-1.5,32.502-16.805,40.686-25.027l1.035-1.037l12.391-12.391    c18.404-18.451,18.404-48.455,0.008-66.895l-14.832-14.832c-3.689-3.689-5.051-14.039-1.102-22.99    c1.391-3.145,2.719-6.357,3.951-9.549c3.525-9.117,11.803-15.469,17.025-15.469h20.965c26.078,0,47.289-21.215,47.289-47.293    v-35.045C585.287,249.041,564.072,227.826,537.998,227.826z M420.607,292.643c0,70.559-57.402,127.961-127.959,127.961    c-70.558,0-127.96-57.402-127.96-127.961c0-70.557,57.403-127.959,127.96-127.959    C363.205,164.683,420.607,222.085,420.607,292.643z"
         fill="#FFFFFF"
         id="path7"
         style="fill:#4d4d4d" /></g></g><g
     id="g9" /><g
     id="g11" /><g
     id="g13" /><g
     id="g15" /><g
     id="g17" /><g
     id="g19" /><g
     id="g21" /><g
     id="g23" /><g
     id="g25" /><g
     id="g27" /><g
     id="g29" /><g
     id="g31" /><g
     id="g33" /><g
     id="g35" /><g
     id="g37" /></svg>