<?xml version="1.0" encoding="UTF-8" standalone="no"?>
<!-- Generator: Adobe Illustrator 19.0.0, SVG Export Plug-In . SVG Version: 6.00 Build 0)  -->

<svg
   xmlns:dc="http://purl.org/dc/elements/1.1/"
   xmlns:cc="http://creativecommons.org/ns#"
   xmlns:rdf="http://www.w3.org/1999/02/22-rdf-syntax-ns#"
   xmlns:svg="http://www.w3.org/2000/svg"
   xmlns="http://www.w3.org/2000/svg"
   xmlns:sodipodi="http://sodipodi.sourceforge.net/DTD/sodipodi-0.dtd"
   xmlns:inkscape="http://www.inkscape.org/namespaces/inkscape"
   version="1.1"
   id="Capa_1"
   x="0px"
   y="0px"
   viewBox="0 0 111.577 111.577"
   style="enable-background:new 0 0 111.577 111.577;"
   xml:space="preserve"
   width="512px"
   height="512px"
   inkscape:version="0.91 r13725"
   sodipodi:docname="infoWhite.svg"><metadata
     id="metadata41"><rdf:RDF><cc:Work
         rdf:about=""><dc:format>image/svg+xml</dc:format><dc:type
           rdf:resource="http://purl.org/dc/dcmitype/StillImage" /></cc:Work></rdf:RDF></metadata><defs
     id="defs39" /><sodipodi:namedview
     pagecolor="#ffffff"
     bordercolor="#666666"
     borderopacity="1"
     objecttolerance="10"
     gridtolerance="10"
     guidetolerance="10"
     inkscape:pageopacity="0"
     inkscape:pageshadow="2"
     inkscape:window-width="1920"
     inkscape:window-height="1017"
     id="namedview37"
     showgrid="false"
     inkscape:zoom="0.4609375"
     inkscape:cx="256"
     inkscape:cy="256"
     inkscape:window-x="-8"
     inkscape:window-y="-8"
     inkscape:window-maximized="1"
     inkscape:current-layer="Capa_1" /><g
     id="g3"
     style="fill:#f2f2f2"><path
       d="M78.962,99.536l-1.559,6.373c-4.677,1.846-8.413,3.251-11.195,4.217c-2.785,0.969-6.021,1.451-9.708,1.451   c-5.662,0-10.066-1.387-13.207-4.142c-3.141-2.766-4.712-6.271-4.712-10.523c0-1.646,0.114-3.339,0.351-5.064   c0.239-1.727,0.619-3.672,1.139-5.846l5.845-20.688c0.52-1.981,0.962-3.858,1.316-5.633c0.359-1.764,0.532-3.387,0.532-4.848   c0-2.642-0.547-4.49-1.636-5.529c-1.089-1.036-3.167-1.562-6.252-1.562c-1.511,0-3.064,0.242-4.647,0.71   c-1.59,0.47-2.949,0.924-4.09,1.346l1.563-6.378c3.829-1.559,7.489-2.894,10.99-4.002c3.501-1.111,6.809-1.667,9.938-1.667   c5.623,0,9.962,1.359,13.009,4.077c3.047,2.72,4.57,6.246,4.57,10.591c0,0.899-0.1,2.483-0.315,4.747   c-0.21,2.269-0.601,4.348-1.171,6.239l-5.82,20.605c-0.477,1.655-0.906,3.547-1.279,5.676c-0.385,2.115-0.569,3.731-0.569,4.815   c0,2.736,0.61,4.604,1.833,5.597c1.232,0.993,3.354,1.487,6.368,1.487c1.415,0,3.025-0.251,4.814-0.744   C76.854,100.348,78.155,99.915,78.962,99.536z M80.438,13.03c0,3.59-1.353,6.656-4.072,9.177c-2.712,2.53-5.98,3.796-9.803,3.796   c-3.835,0-7.111-1.266-9.854-3.796c-2.738-2.522-4.11-5.587-4.11-9.177c0-3.583,1.372-6.654,4.11-9.207   C59.447,1.274,62.729,0,66.563,0c3.822,0,7.091,1.277,9.803,3.823C79.087,6.376,80.438,9.448,80.438,13.03z"
       fill="#333333"
       id="path5"
       style="fill:#f2f2f2" /></g><g
     id="g7" /><g
     id="g9" /><g
     id="g11" /><g
     id="g13" /><g
     id="g15" /><g
     id="g17" /><g
     id="g19" /><g
     id="g21" /><g
     id="g23" /><g
     id="g25" /><g
     id="g27" /><g
     id="g29" /><g
     id="g31" /><g
     id="g33" /><g
     id="g35" /></svg>