<?xml version="1.0" encoding="UTF-8" standalone="no"?>
<!-- Generator: Adobe Illustrator 19.0.0, SVG Export Plug-In . SVG Version: 6.00 Build 0)  -->

<svg
   xmlns:dc="http://purl.org/dc/elements/1.1/"
   xmlns:cc="http://creativecommons.org/ns#"
   xmlns:rdf="http://www.w3.org/1999/02/22-rdf-syntax-ns#"
   xmlns:svg="http://www.w3.org/2000/svg"
   xmlns="http://www.w3.org/2000/svg"
   xmlns:sodipodi="http://sodipodi.sourceforge.net/DTD/sodipodi-0.dtd"
   xmlns:inkscape="http://www.inkscape.org/namespaces/inkscape"
   version="1.1"
   id="Capa_1"
   x="0px"
   y="0px"
   viewBox="0 0 49 49"
   style="enable-background:new 0 0 49 49;"
   xml:space="preserve"
   width="512px"
   height="512px"
   inkscape:version="0.91 r13725"
   sodipodi:docname="saveWhite.svg"><metadata
     id="metadata49"><rdf:RDF><cc:Work
         rdf:about=""><dc:format>image/svg+xml</dc:format><dc:type
           rdf:resource="http://purl.org/dc/dcmitype/StillImage" /></cc:Work></rdf:RDF></metadata><defs
     id="defs47" /><sodipodi:namedview
     pagecolor="#ffffff"
     bordercolor="#666666"
     borderopacity="1"
     objecttolerance="10"
     gridtolerance="10"
     guidetolerance="10"
     inkscape:pageopacity="0"
     inkscape:pageshadow="2"
     inkscape:window-width="1920"
     inkscape:window-height="1017"
     id="namedview45"
     showgrid="false"
     inkscape:zoom="0.65186406"
     inkscape:cx="424.89609"
     inkscape:cy="330.96157"
     inkscape:window-x="-8"
     inkscape:window-y="-8"
     inkscape:window-maximized="1"
     inkscape:current-layer="Capa_1" /><g
     id="g3"
     style="fill:#f2f2f2"><path
       d="M39.914,0H37.5h-28h-9v49h7h33h8V8.586L39.914,0z M35.5,2v14h-24V2H35.5z M9.5,47V28h29v19H9.5z M46.5,47h-6V26h-33v21h-5   V2h7v16h28V2h1.586L46.5,9.414V47z"
       fill="#474747"
       id="path5"
       style="fill:#f2f2f2" /><path
       d="M13.5,33h7c0.553,0,1-0.447,1-1s-0.447-1-1-1h-7c-0.553,0-1,0.447-1,1S12.947,33,13.5,33z"
       fill="#474747"
       id="path7"
       style="fill:#f2f2f2" /><path
       d="M23.5,35h-10c-0.553,0-1,0.447-1,1s0.447,1,1,1h10c0.553,0,1-0.447,1-1S24.053,35,23.5,35z"
       fill="#474747"
       id="path9"
       style="fill:#f2f2f2" /><path
       d="M25.79,35.29c-0.181,0.189-0.29,0.45-0.29,0.71s0.109,0.52,0.29,0.71C25.979,36.89,26.229,37,26.5,37   c0.26,0,0.52-0.11,0.71-0.29c0.18-0.19,0.29-0.45,0.29-0.71s-0.11-0.521-0.29-0.71C26.84,34.92,26.16,34.92,25.79,35.29z"
       fill="#474747"
       id="path11"
       style="fill:#f2f2f2" /><path
       d="M33.5,4h-6v10h6V4z M31.5,12h-2V6h2V12z"
       fill="#474747"
       id="path13"
       style="fill:#f2f2f2" /></g><g
     id="g15" /><g
     id="g17" /><g
     id="g19" /><g
     id="g21" /><g
     id="g23" /><g
     id="g25" /><g
     id="g27" /><g
     id="g29" /><g
     id="g31" /><g
     id="g33" /><g
     id="g35" /><g
     id="g37" /><g
     id="g39" /><g
     id="g41" /><g
     id="g43" /></svg>