<?xml version="1.0" encoding="iso-8859-1"?>
<!-- Generator: Adobe Illustrator 19.0.0, SVG Export Plug-In . SVG Version: 6.00 Build 0)  -->
<svg xmlns="http://www.w3.org/2000/svg" xmlns:xlink="http://www.w3.org/1999/xlink" version="1.1" id="Capa_1" x="0px" y="0px" viewBox="0 0 460 460" style="enable-background:new 0 0 460 460;" xml:space="preserve" width="512" height="512">
<g id="XMLID_2015_">
	<path id="XMLID_805_" style="fill:#A03C2B;" d="M330,320l-7.778,7.778l2.494,42.396C327.583,418.906,288.835,460,240.018,460   h-20.037c-48.817,0-87.564-41.094-84.698-89.826l2.494-42.396L130,320v-10h8.823H140c22.091,0,40-17.909,40-40v0   c0-20.904-16.039-38.053-36.48-39.837l0.01-0.163H140v-10l4.375-4.375l0.927-15.763C147.94,155.016,185.077,120,230,120h0   c44.923,0,82.06,35.016,84.698,79.862l0.927,15.763L320,220v10h-3.529l0.01,0.163C296.039,231.947,280,249.096,280,270v0   c0,22.091,17.909,40,40,40h1.177H330V320z"/>
	<path id="XMLID_476_" style="fill:#782D1D;" d="M330,320l-7.778,7.778l2.494,42.396C327.583,418.906,288.835,460,240.018,460H230   V120h0c44.923,0,82.06,35.016,84.698,79.862l0.927,15.763L320,220v10h-3.529l0.01,0.163C296.039,231.947,280,249.096,280,270v0   c0,22.091,17.909,40,40,40h1.177H330V320z"/>
	<path id="XMLID_475_" style="fill:#4A382B;" d="M245,380L245,380c-6.403,6.403-10,15.087-10,24.142V415c0,2.761-2.239,5-5,5l0,0   c-2.761,0-5-2.239-5-5v-10.858c0-9.055-3.597-17.739-10-24.142h0v-20h30V380z M240,30h-20l-5,260h30L240,30z"/>
	<path id="XMLID_450_" style="fill:#7E704A;" d="M255.172,330h-50.343c-1.782,0-2.674-2.154-1.414-3.414l6-6   c0.375-0.375,0.884-0.586,1.414-0.586h38.343c0.53,0,1.039,0.211,1.414,0.586l6,6C257.846,327.846,256.953,330,255.172,330z"/>
	<path id="XMLID_1052_" style="fill:#4A382B;" d="M204.709,285.911c0.683,3.237-1.768,6.089-4.885,6.089   c-0.18,0-0.358-0.01-0.533-0.029c-1.564-0.17-3.088,0.519-3.803,1.921c-5.06,9.924-21.721,42.595-21.976,43.043   c-1.718,3.023-4.962,5.065-8.688,5.065c-5.9,0-10.607-5.11-9.936-11.146c0.492-4.422,3.988-8.077,8.389-8.737   c2.843-0.427,5.497,0.346,7.542,1.886c1.797,1.354,4.378,0.746,5.39-1.264c5.688-11.302,19.432-38.558,19.952-39.126   c1.124-1.227,2.851-1.888,4.721-1.504C202.775,282.497,204.31,284.02,204.709,285.911z M255.291,285.911   c-0.683,3.237,1.768,6.089,4.885,6.089c0.18,0,0.358-0.01,0.533-0.029c1.564-0.17,3.088,0.519,3.803,1.921   c5.06,9.924,21.721,42.595,21.976,43.043c1.718,3.023,4.962,5.065,8.688,5.065c5.9,0,10.607-5.11,9.936-11.146   c-0.492-4.422-3.988-8.077-8.389-8.737c-2.843-0.427-5.497,0.346-7.542,1.886c-1.797,1.354-4.378,0.746-5.39-1.264   c-5.688-11.302-19.432-38.558-19.952-39.126c-1.124-1.227-2.851-1.888-4.721-1.504C257.225,282.497,255.69,284.02,255.291,285.911z   "/>
	<path id="XMLID_2009_" style="fill:#A8A182;" d="M228.5,50h3v320h-3V50z M218.5,369.981l3,0.037l4-320l-3-0.037L218.5,369.981z    M237.5,49.981l-3,0.037l4,320l3-0.037L237.5,49.981z"/>
	<path id="XMLID_1887_" style="fill:#38291D;" d="M250,370L250,370c0,2.761-2.239,5-5,5h-30c-2.761,0-5-2.239-5-5l0,0   c0-2.761,2.239-5,5-5h30C247.761,365,250,367.239,250,370z"/>
	<path id="XMLID_1030_" style="fill:#4A382B;" d="M220,35v10h-20c0,2.761-2.239,5-5,5h-5c-5.523,0-10-4.477-10-10   c0-5.523,4.477-10,10-10h5c2.761,0,5,2.239,5,5H220z M240,25v10h20c0,2.761,2.239,5,5,5h5c5.523,0,10-4.477,10-10   c0-5.523-4.477-10-10-10h-5c-2.761,0-5,2.239-5,5H240z"/>
	<path id="XMLID_2008_" style="fill:#A03C2B;" d="M250,13.536v2.929c0,2.264-0.899,4.435-2.5,6.036v0   c-1.601,1.601-2.5,3.772-2.5,6.036v22.929c0,4.714-3.821,8.536-8.536,8.536h-12.929c-4.714,0-8.536-3.821-8.536-8.536V28.536   c0-2.264-0.899-4.435-2.5-6.036v0c-1.601-1.601-2.5-3.772-2.5-6.036v-2.929c0-2.264,0.899-4.435,2.5-6.036l5-5   c1.601-1.601,3.772-2.5,6.036-2.5h12.929c2.264,0,4.435,0.899,6.036,2.5l5,5C249.101,9.101,250,11.272,250,13.536z"/>
	<path id="XMLID_1056_" style="fill:#782D1D;" d="M247.5,7.5c1.601,1.601,2.5,3.772,2.5,6.036v2.929c0,2.264-0.899,4.435-2.5,6.036   c-1.601,1.601-2.5,3.772-2.5,6.036v22.929c0,4.714-3.821,8.536-8.536,8.536H230V0h6.464c2.264,0,4.435,0.899,6.036,2.5L247.5,7.5z"/>
</g>















</svg>
