<?xml version="1.0" encoding="UTF-8" standalone="no"?>
<svg
   xmlns:dc="http://purl.org/dc/elements/1.1/"
   xmlns:cc="http://creativecommons.org/ns#"
   xmlns:rdf="http://www.w3.org/1999/02/22-rdf-syntax-ns#"
   xmlns:svg="http://www.w3.org/2000/svg"
   xmlns="http://www.w3.org/2000/svg"
   xmlns:sodipodi="http://sodipodi.sourceforge.net/DTD/sodipodi-0.dtd"
   xmlns:inkscape="http://www.inkscape.org/namespaces/inkscape"
   version="1.0"
   width="30"
   height="50"
   id="svg2"
   inkscape:version="0.91 r13725"
   sodipodi:docname="halfNoteWhite.svg">
  <metadata
     id="metadata14">
    <rdf:RDF>
      <cc:Work
         rdf:about="">
        <dc:format>image/svg+xml</dc:format>
        <dc:type
           rdf:resource="http://purl.org/dc/dcmitype/StillImage" />
      </cc:Work>
    </rdf:RDF>
  </metadata>
  <defs
     id="defs12" />
  <sodipodi:namedview
     pagecolor="#ffffff"
     bordercolor="#666666"
     borderopacity="1"
     objecttolerance="10"
     gridtolerance="10"
     guidetolerance="10"
     inkscape:pageopacity="0"
     inkscape:pageshadow="2"
     inkscape:window-width="1920"
     inkscape:window-height="1017"
     id="namedview10"
     showgrid="false"
     inkscape:zoom="9.44"
     inkscape:cx="44.222471"
     inkscape:cy="28.573923"
     inkscape:window-x="-8"
     inkscape:window-y="-8"
     inkscape:window-maximized="1"
     inkscape:current-layer="g4" />
  <g
     transform="matrix(-1,0,0,-1,254,262)"
     id="g4"
     style="fill:#f2f2f2">
    <path
       d="M 237.68484,218.18353 C 234.289,220.0035 232.47956,223.29808 233.59262,225.77649 C 234.77988,228.42013 238.85963,229.16621 242.6992,227.44186 C 246.53876,225.7175 248.69136,222.17246 247.5041,219.52883 C 246.31683,216.88519 242.23709,216.13911 238.39752,217.86346 C 238.15755,217.97123 237.91124,218.0622 237.68484,218.18353 z M 238.79457,220.42569 C 239.0358,220.30136 239.28005,220.20766 239.53576,220.09282 C 242.80883,218.62288 245.96997,218.55375 246.59187,219.93851 C 247.21377,221.32327 245.06209,223.64013 241.78902,225.11008 C 238.51594,226.58002 235.3548,226.64915 234.73291,225.26439 C 234.15959,223.98781 235.94804,221.89278 238.79457,220.42569 z "
       style="opacity:0.9;fill:#f2f2f2;fill-opacity:1;fill-rule:evenodd;stroke:none;stroke-width:0.2;stroke-miterlimit:4;stroke-dasharray:none;stroke-dashoffset:0;stroke-opacity:1"
       id="path6" />
    <path
       d="M 234.05234,224.51692 L 234.05234,258.10449"
       style="fill:#f2f2f2;fill-opacity:0.75;fill-rule:evenodd;stroke:#f2f2f2;stroke-width:1.5;stroke-linecap:butt;stroke-linejoin:miter;stroke-miterlimit:4;stroke-dasharray:none;stroke-opacity:1"
       id="path8" />
  </g>
</svg>
