<?xml version="1.0" encoding="UTF-8" standalone="no"?>
<!-- Created with Inkscape (http://www.inkscape.org/) -->

<svg
   xmlns:dc="http://purl.org/dc/elements/1.1/"
   xmlns:cc="http://creativecommons.org/ns#"
   xmlns:rdf="http://www.w3.org/1999/02/22-rdf-syntax-ns#"
   xmlns:svg="http://www.w3.org/2000/svg"
   xmlns="http://www.w3.org/2000/svg"
   xmlns:sodipodi="http://sodipodi.sourceforge.net/DTD/sodipodi-0.dtd"
   xmlns:inkscape="http://www.inkscape.org/namespaces/inkscape"
   version="1.0"
   x="0.0000000"
   y="0.0000000"
   width="12.000000"
   height="7.0000000"
   id="svg1361"
   inkscape:version="0.91 r13725"
   sodipodi:docname="wholeNoteWhite.svg">
  <metadata
     id="metadata9">
    <rdf:RDF>
      <cc:Work
         rdf:about="">
        <dc:format>image/svg+xml</dc:format>
        <dc:type
           rdf:resource="http://purl.org/dc/dcmitype/StillImage" />
      </cc:Work>
    </rdf:RDF>
  </metadata>
  <sodipodi:namedview
     pagecolor="#ffffff"
     bordercolor="#666666"
     borderopacity="1"
     objecttolerance="10"
     gridtolerance="10"
     guidetolerance="10"
     inkscape:pageopacity="0"
     inkscape:pageshadow="2"
     inkscape:window-width="640"
     inkscape:window-height="480"
     id="namedview7"
     showgrid="false"
     inkscape:zoom="29.166667"
     inkscape:cx="6"
     inkscape:cy="3.5"
     inkscape:window-x="0"
     inkscape:window-y="0"
     inkscape:window-maximized="0"
     inkscape:current-layer="svg1361" />
  <defs
     id="defs1363" />
  <g
     style="fill:#f2f2f2;fill-opacity:1"
     id="layer1">
    <g
       transform="translate(-199.3990,-536.4730)"
       style="fill:#f2f2f2;fill-opacity:1"
       id="g2912">
      <path
         d="M 206.04921,542.89329 C 204.33221,542.80244 202.99047,541.27833 202.45208,539.70226 C 202.12589,538.77722 202.30505,537.38950 203.39174,537.12966 C 204.96615,536.86226 206.27260,538.19967 207.00481,539.47953 C 207.52641,540.42880 207.81478,541.92368 206.83679,542.67615 C 206.60458,542.83188 206.32387,542.89434 206.04921,542.89329 z M 208.78446,537.49000 C 206.85001,536.31510 204.40641,536.22358 202.28813,536.88110 C 200.94630,537.35025 199.41169,538.34823 199.39900,539.97250 C 199.39807,541.56396 200.87900,542.55675 202.18949,543.02959 C 204.26418,543.70824 206.65796,543.64856 208.59501,542.56669 C 209.69149,541.98333 210.66334,540.77535 210.33379,539.43643 C 210.15258,538.57546 209.49304,537.93123 208.78446,537.49000 z "
         style="fill:#f2f2f2;fill-opacity:1"
         id="path2918" />
    </g>
  </g>
</svg>
