<?xml version="1.0" encoding="UTF-8" standalone="no"?>
<!-- Created with Inkscape (http://www.inkscape.org/) -->

<svg
   xmlns:dc="http://purl.org/dc/elements/1.1/"
   xmlns:cc="http://creativecommons.org/ns#"
   xmlns:rdf="http://www.w3.org/1999/02/22-rdf-syntax-ns#"
   xmlns:svg="http://www.w3.org/2000/svg"
   xmlns="http://www.w3.org/2000/svg"
   xmlns:sodipodi="http://sodipodi.sourceforge.net/DTD/sodipodi-0.dtd"
   xmlns:inkscape="http://www.inkscape.org/namespaces/inkscape"
   width="40"
   height="50"
   viewBox="0 0 40.000001 50.000001"
   id="svg2"
   version="1.1"
   inkscape:version="0.91 r13725"
   sodipodi:docname="myAccGuitarDesign.svg">
  <defs
     id="defs4" />
  <sodipodi:namedview
     id="base"
     pagecolor="#ffffff"
     bordercolor="#666666"
     borderopacity="1.0"
     inkscape:pageopacity="0.0"
     inkscape:pageshadow="2"
     inkscape:zoom="11.2"
     inkscape:cx="25.576887"
     inkscape:cy="27.25992"
     inkscape:document-units="px"
     inkscape:current-layer="layer1"
     showgrid="false"
     units="px"
     inkscape:window-width="1920"
     inkscape:window-height="1017"
     inkscape:window-x="-8"
     inkscape:window-y="-8"
     inkscape:window-maximized="1" />
  <metadata
     id="metadata7">
    <rdf:RDF>
      <cc:Work
         rdf:about="">
        <dc:format>image/svg+xml</dc:format>
        <dc:type
           rdf:resource="http://purl.org/dc/dcmitype/StillImage" />
        <dc:title />
      </cc:Work>
    </rdf:RDF>
  </metadata>
  <g
     inkscape:label="Ebene 1"
     inkscape:groupmode="layer"
     id="layer1"
     transform="translate(0,-1002.3622)">
    <path
       style="fill:#ececec;fill-rule:evenodd;stroke:none;stroke-width:1px;stroke-linecap:butt;stroke-linejoin:miter;stroke-opacity:1"
       d="m 3.8392862,1040.9337 5.1785713,4.4642 c 0,0 7.6320985,-2.0698 10.1785715,-3.3929 8.467673,-4.3995 15.982143,-17.8571 15.982143,-17.8571 0,0 0.643345,-3.956 -0.535714,-5.1786 -1.358061,-1.4082 -6.242427,1.1494 -7.678572,-0.1786 -1.513167,-1.3997 1.522308,-4.8601 0,-6.2499 -1.530551,-1.3973 -4.732142,-0.2679 -4.732142,-0.2679 0,0 -12.4254641,10.0775 -15.7142864,19.6428 -0.754816,2.1953 -2.6785714,9.018 -2.6785714,9.018 z"
       id="path4144"
       inkscape:connector-curvature="0"
       sodipodi:nodetypes="ccscssscsc" />
    <ellipse
       style="opacity:1;fill:#333333;fill-opacity:1;stroke:none;stroke-width:4;stroke-miterlimit:4;stroke-dasharray:none;stroke-opacity:1"
       id="path4215"
       cx="12.142858"
       cy="1028.0764"
       rx="1.3392857"
       ry="1.25" />
    <path
       style="fill:#cccccc;fill-rule:evenodd;stroke:none;stroke-width:1px;stroke-linecap:butt;stroke-linejoin:miter;stroke-opacity:1"
       d="m 9.3625509,1026.16 c 0,0 0.249181,-2.9648 -0.4653486,-4.1465 -0.4862974,-0.8042 -2.2980942,-1.5023 -2.2980942,-1.5023 0,0 0.6443163,2.2614 0.028286,2.9999 -0.5834991,0.6994 -2.6504549,0.3039 -2.6504549,0.3039 0,0 0.9213142,1.677 1.6918499,2.0879 1.1128028,0.5934 3.6937618,0.2571 3.6937618,0.2571 z"
       id="path4150"
       inkscape:connector-curvature="0"
       sodipodi:nodetypes="cscscsc"
       inkscape:transform-center-x="0.89285717"
       inkscape:transform-center-y="0.89285717" />
    <path
       style="fill:#cccccc;fill-rule:evenodd;stroke:none;stroke-width:1px;stroke-linecap:butt;stroke-linejoin:miter;stroke-opacity:1"
       d="m 14.546771,1020.0498 c 0,0 0.249181,-2.9648 -0.465349,-4.1465 -0.486297,-0.8042 -2.298094,-1.5023 -2.298094,-1.5023 0,0 0.644316,2.2614 0.02829,2.9999 -0.583499,0.6994 -2.6504544,0.3039 -2.6504544,0.3039 0,0 0.9213144,1.677 1.6918494,2.0879 1.112803,0.5934 3.693762,0.2571 3.693762,0.2571 z"
       id="path4150-2"
       inkscape:connector-curvature="0"
       sodipodi:nodetypes="cscscsc"
       inkscape:transform-center-x="0.89285717"
       inkscape:transform-center-y="0.89285717" />
    <path
       style="fill:#cccccc;fill-rule:evenodd;stroke:none;stroke-width:1px;stroke-linecap:butt;stroke-linejoin:miter;stroke-opacity:1"
       d="m 18.906174,1014.9866 c 0,0 0.872583,-2.8444 0.425057,-4.1508 -0.304587,-0.8891 -1.927006,-1.9557 -1.927006,-1.9557 0,0 0.149817,2.3466 -0.608878,2.9376 -0.718612,0.5596 -2.654587,-0.2654 -2.654587,-0.2654 0,0 0.544508,1.8343 1.210314,2.3993 0.961556,0.816 3.555104,1.035 3.555104,1.035 z"
       id="path4150-2-3"
       inkscape:connector-curvature="0"
       sodipodi:nodetypes="cscscsc"
       inkscape:transform-center-x="1.14659"
       inkscape:transform-center-y="0.91044548" />
    <path
       style="fill:#cccccc;fill-rule:evenodd;stroke:none;stroke-width:1px;stroke-linecap:butt;stroke-linejoin:miter;stroke-opacity:1"
       d="m 24.972328,1037.7849 c 0,0 -0.471317,2.9377 0.152351,4.1697 0.424484,0.8385 2.178694,1.6708 2.178694,1.6708 0,0 -0.472521,-2.3034 0.197539,-2.9935 0.634414,-0.6536 2.665844,-0.1039 2.665844,-0.1039 0,0 -0.792658,-1.7415 -1.530198,-2.2091 -1.065055,-0.6754 -3.66393,-0.534 -3.66393,-0.534 z"
       id="path4150-9"
       inkscape:connector-curvature="0"
       sodipodi:nodetypes="cscscsc"
       inkscape:transform-center-x="-1.0137945"
       inkscape:transform-center-y="-0.87901293" />
    <path
       style="fill:#cccccc;fill-rule:evenodd;stroke:none;stroke-width:1px;stroke-linecap:butt;stroke-linejoin:miter;stroke-opacity:1"
       d="m 28.804282,1032.8694 c 0,0 -0.2492,2.9648 0.4653,4.1465 0.4863,0.8042 2.2981,1.5023 2.2981,1.5023 0,0 -0.6443,-2.2614 -0.028,-2.9999 0.5835,-0.6994 2.6505,-0.3039 2.6505,-0.3039 0,0 -0.9213,-1.677 -1.6919,-2.0879 -1.1128,-0.5934 -3.6937,-0.2571 -3.6937,-0.2571 z"
       id="path4150-2-8"
       inkscape:connector-curvature="0"
       sodipodi:nodetypes="cscscsc"
       inkscape:transform-center-x="-0.89300642"
       inkscape:transform-center-y="-0.89286625" />
    <path
       style="fill:#cccccc;fill-rule:evenodd;stroke:none;stroke-width:1px;stroke-linecap:butt;stroke-linejoin:miter;stroke-opacity:1"
       d="m 33.000708,1026.8874 c 0,0 -0.2492,2.9648 0.4653,4.1465 0.4863,0.8042 2.2981,1.5023 2.2981,1.5023 0,0 -0.6443,-2.2614 -0.028,-2.9999 0.5835,-0.6994 2.6505,-0.3039 2.6505,-0.3039 0,0 -0.9213,-1.677 -1.6919,-2.0879 -1.1128,-0.5934 -3.6937,-0.2571 -3.6937,-0.2571 z"
       id="path4150-2-3-1"
       inkscape:connector-curvature="0"
       sodipodi:nodetypes="cscscsc"
       inkscape:transform-center-x="-0.89300642"
       inkscape:transform-center-y="-0.89286625" />
    <ellipse
       style="opacity:1;fill:#333333;fill-opacity:1;stroke:none;stroke-width:4;stroke-miterlimit:4;stroke-dasharray:none;stroke-opacity:1"
       id="path4215-7"
       cx="17.410715"
       cy="1022.63"
       rx="1.3392857"
       ry="1.25" />
    <ellipse
       style="opacity:1;fill:#333333;fill-opacity:1;stroke:none;stroke-width:4;stroke-miterlimit:4;stroke-dasharray:none;stroke-opacity:1"
       id="path4215-7-6"
       cx="22.321428"
       cy="1018.523"
       rx="1.3392857"
       ry="1.25" />
    <ellipse
       style="opacity:1;fill:#333333;fill-opacity:1;stroke:none;stroke-width:4;stroke-miterlimit:4;stroke-dasharray:none;stroke-opacity:1"
       id="path4215-7-6-6"
       cx="21.607141"
       cy="1035.6659"
       rx="1.3392857"
       ry="1.25" />
    <ellipse
       style="opacity:1;fill:#333333;fill-opacity:1;stroke:none;stroke-width:4;stroke-miterlimit:4;stroke-dasharray:none;stroke-opacity:1"
       id="path4215-7-6-6-6"
       cx="26.071428"
       cy="1029.8622"
       rx="1.3392857"
       ry="1.25" />
    <ellipse
       style="opacity:1;fill:#333333;fill-opacity:1;stroke:none;stroke-width:4;stroke-miterlimit:4;stroke-dasharray:none;stroke-opacity:1"
       id="path4215-7-6-6-6-7"
       cx="29.642857"
       cy="1023.9694"
       rx="1.3392857"
       ry="1.25" />
  </g>
</svg>
