<?xml version="1.0" encoding="UTF-8" standalone="no"?>
<!-- Created with Inkscape (http://www.inkscape.org/) -->

<svg
   xmlns:dc="http://purl.org/dc/elements/1.1/"
   xmlns:cc="http://creativecommons.org/ns#"
   xmlns:rdf="http://www.w3.org/1999/02/22-rdf-syntax-ns#"
   xmlns:svg="http://www.w3.org/2000/svg"
   xmlns="http://www.w3.org/2000/svg"
   xmlns:sodipodi="http://sodipodi.sourceforge.net/DTD/sodipodi-0.dtd"
   xmlns:inkscape="http://www.inkscape.org/namespaces/inkscape"
   width="40"
   height="50"
   viewBox="0 0 40.000001 50.000001"
   id="svg2"
   version="1.1"
   inkscape:version="0.91 r13725"
   sodipodi:docname="myAccordionDesign.svg">
  <defs
     id="defs4" />
  <sodipodi:namedview
     id="base"
     pagecolor="#ffffff"
     bordercolor="#666666"
     borderopacity="1.0"
     inkscape:pageopacity="0.0"
     inkscape:pageshadow="2"
     inkscape:zoom="7.919596"
     inkscape:cx="39.644304"
     inkscape:cy="0.1302116"
     inkscape:document-units="px"
     inkscape:current-layer="layer1"
     showgrid="false"
     units="px"
     inkscape:window-width="1278"
     inkscape:window-height="1008"
     inkscape:window-x="633"
     inkscape:window-y="0"
     inkscape:window-maximized="0"
     showguides="true" />
  <metadata
     id="metadata7">
    <rdf:RDF>
      <cc:Work
         rdf:about="">
        <dc:format>image/svg+xml</dc:format>
        <dc:type
           rdf:resource="http://purl.org/dc/dcmitype/StillImage" />
        <dc:title />
      </cc:Work>
    </rdf:RDF>
  </metadata>
  <g
     inkscape:label="Ebene 1"
     inkscape:groupmode="layer"
     id="layer1"
     transform="translate(0,-1002.3622)">
    <path
       style="fill:#cccccc;fill-rule:evenodd;stroke:none;stroke-width:0.91806811px;stroke-linecap:butt;stroke-linejoin:miter;stroke-opacity:1"
       d="m 16.931705,1034.642 c 2.515158,0.208 5.219215,2.083 6.860713,3.4163 0.08968,0.073 -1.416608,1.442 0.928258,1.0407 0.917785,-0.1571 0.439602,-0.8133 0.439602,-0.8133 l 8.766659,-14.162 -2.396052,-1.8571 -7.554804,15.0819 c 0,0 -4.369943,-3.2047 -7.19311,-3.3995 -2.133464,-0.1472 -4.595686,1.1059 -4.595686,1.1059 l -6.5264454,-12.9936 -1.5376116,1.9953 0.5614441,2.0126 -2.5261857,2.8527 6.0123279,12.012 c 1.1989456,-1.1366 3.5099637,-2.8493 4.8415977,-3.8308 0,0 -0.500164,-0.5173 -0.591815,-0.8673 -0.05208,-0.199 0.09187,-0.1943 0.374449,-0.3835 1.341578,-0.8982 3.435256,-1.2683 4.136659,-1.2103 z"
       id="path4133"
       inkscape:connector-curvature="0"
       sodipodi:nodetypes="sssccccsccccccssss" />
    <rect
       style="opacity:1;fill:#f2f2f2;fill-opacity:1;stroke:none;stroke-width:0.1;stroke-miterlimit:4;stroke-dasharray:none;stroke-opacity:1"
       id="rect4135"
       width="0.50547898"
       height="3.3889742"
       x="739.29901"
       y="476.43634"
       transform="matrix(0.43043671,0.90262076,-0.65756997,0.75339348,0,0)" />
    <rect
       style="opacity:1;fill:#f2f2f2;fill-opacity:1;stroke:none;stroke-width:0.1;stroke-miterlimit:4;stroke-dasharray:none;stroke-opacity:1"
       id="rect4135-2"
       width="0.50547898"
       height="3.3889742"
       x="739.89978"
       y="476.43906"
       transform="matrix(0.43043671,0.90262076,-0.65756997,0.75339348,0,0)"
       inkscape:transform-center-x="-0.043573265"
       inkscape:transform-center-y="-0.49107021" />
    <rect
       style="opacity:1;fill:#f2f2f2;fill-opacity:1;stroke:none;stroke-width:0.1;stroke-miterlimit:4;stroke-dasharray:none;stroke-opacity:1"
       id="rect4135-2-1"
       width="0.50547898"
       height="3.3889742"
       x="740.5141"
       y="476.44373"
       transform="matrix(0.43043671,0.90262076,-0.65756997,0.75339348,0,0)"
       inkscape:transform-center-x="-0.043552807"
       inkscape:transform-center-y="-0.49107113" />
    <rect
       style="opacity:1;fill:#f2f2f2;fill-opacity:1;stroke:none;stroke-width:0.1;stroke-miterlimit:4;stroke-dasharray:none;stroke-opacity:1"
       id="rect4135-2-1-9"
       width="0.50547898"
       height="3.3889742"
       x="741.18213"
       y="476.38409"
       transform="matrix(0.43043671,0.90262076,-0.65756997,0.75339348,0,0)"
       inkscape:transform-center-x="-0.043575629"
       inkscape:transform-center-y="-0.4910297" />
    <rect
       style="opacity:1;fill:#f2f2f2;fill-opacity:1;stroke:none;stroke-width:0.1;stroke-miterlimit:4;stroke-dasharray:none;stroke-opacity:1"
       id="rect4135-1"
       width="0.50547898"
       height="3.3889742"
       x="741.85028"
       y="476.43707"
       transform="matrix(0.43043671,0.90262076,-0.65756997,0.75339348,0,0)" />
    <rect
       style="opacity:1;fill:#f2f2f2;fill-opacity:1;stroke:none;stroke-width:0.1;stroke-miterlimit:4;stroke-dasharray:none;stroke-opacity:1"
       id="rect4135-2-5"
       width="0.50547898"
       height="3.3889742"
       x="742.45105"
       y="476.43979"
       transform="matrix(0.43043671,0.90262076,-0.65756997,0.75339348,0,0)"
       inkscape:transform-center-x="-0.043568077"
       inkscape:transform-center-y="-0.49106441" />
    <rect
       style="opacity:1;fill:#f2f2f2;fill-opacity:1;stroke:none;stroke-width:0.1;stroke-miterlimit:4;stroke-dasharray:none;stroke-opacity:1"
       id="rect4135-2-1-8"
       width="0.50547898"
       height="3.3889742"
       x="743.06537"
       y="476.44446"
       transform="matrix(0.43043671,0.90262076,-0.65756997,0.75339348,0,0)"
       inkscape:transform-center-x="-0.043547618"
       inkscape:transform-center-y="-0.49106534" />
    <rect
       style="opacity:1;fill:#f2f2f2;fill-opacity:1;stroke:none;stroke-width:0.1;stroke-miterlimit:4;stroke-dasharray:none;stroke-opacity:1"
       id="rect4135-2-1-9-9"
       width="0.50547898"
       height="3.3889742"
       x="743.7334"
       y="476.38483"
       transform="matrix(0.43043671,0.90262076,-0.65756997,0.75339348,0,0)"
       inkscape:transform-center-x="-0.043570441"
       inkscape:transform-center-y="-0.49102391" />
    <rect
       style="opacity:1;fill:#f2f2f2;fill-opacity:1;stroke:none;stroke-width:0.1;stroke-miterlimit:4;stroke-dasharray:none;stroke-opacity:1"
       id="rect4135-1-3"
       width="0.50547898"
       height="3.3889742"
       x="744.45917"
       y="476.42239"
       transform="matrix(0.43043671,0.90262076,-0.65756997,0.75339348,0,0)" />
    <rect
       style="opacity:1;fill:#f2f2f2;fill-opacity:1;stroke:none;stroke-width:0.1;stroke-miterlimit:4;stroke-dasharray:none;stroke-opacity:1"
       id="rect4135-2-5-2"
       width="0.50547898"
       height="3.3889742"
       x="745.05994"
       y="476.42511"
       transform="matrix(0.43043671,0.90262076,-0.65756997,0.75339348,0,0)"
       inkscape:transform-center-x="-0.043581853"
       inkscape:transform-center-y="-0.49104802" />
    <rect
       style="opacity:1;fill:#f2f2f2;fill-opacity:1;stroke:none;stroke-width:0.1;stroke-miterlimit:4;stroke-dasharray:none;stroke-opacity:1"
       id="rect4135-2-1-8-3"
       width="0.50547898"
       height="3.3889742"
       x="745.67426"
       y="476.42978"
       transform="matrix(0.43043671,0.90262076,-0.65756997,0.75339348,0,0)"
       inkscape:transform-center-x="-0.043561395"
       inkscape:transform-center-y="-0.49104894" />
    <rect
       style="opacity:1;fill:#f2f2f2;fill-opacity:1;stroke:none;stroke-width:0.1;stroke-miterlimit:4;stroke-dasharray:none;stroke-opacity:1"
       id="rect4135-2-1-9-9-0"
       width="0.50547898"
       height="3.3889742"
       x="746.34222"
       y="476.37015"
       transform="matrix(0.43043671,0.90262076,-0.65756997,0.75339348,0,0)"
       inkscape:transform-center-x="-0.043557946"
       inkscape:transform-center-y="-0.4910626" />
    <rect
       style="opacity:1;fill:#f2f2f2;fill-opacity:1;stroke:none;stroke-width:0.1;stroke-miterlimit:4;stroke-dasharray:none;stroke-opacity:1"
       id="rect4135-1-2"
       width="0.50547898"
       height="3.3889742"
       x="747.07178"
       y="476.3439"
       transform="matrix(0.43043671,0.90262076,-0.65756997,0.75339348,0,0)" />
    <rect
       style="opacity:1;fill:#f2f2f2;fill-opacity:1;stroke:none;stroke-width:0.1;stroke-miterlimit:4;stroke-dasharray:none;stroke-opacity:1"
       id="rect4135-2-5-9"
       width="0.50547898"
       height="3.3889742"
       x="747.67255"
       y="476.34662"
       transform="matrix(0.43043671,0.90262076,-0.65756997,0.75339348,0,0)"
       inkscape:transform-center-x="-0.043568529"
       inkscape:transform-center-y="-0.49106137" />
    <rect
       style="opacity:1;fill:#f2f2f2;fill-opacity:1;stroke:none;stroke-width:0.1;stroke-miterlimit:4;stroke-dasharray:none;stroke-opacity:1"
       id="rect4135-2-1-8-8"
       width="0.50547898"
       height="3.3889742"
       x="748.28687"
       y="476.35126"
       transform="matrix(0.43043671,0.90262076,-0.65756997,0.75339348,0,0)"
       inkscape:transform-center-x="-0.043568138"
       inkscape:transform-center-y="-0.49108528" />
    <rect
       style="opacity:1;fill:#f2f2f2;fill-opacity:1;stroke:none;stroke-width:0.1;stroke-miterlimit:4;stroke-dasharray:none;stroke-opacity:1"
       id="rect4135-2-1-9-9-7"
       width="0.50547898"
       height="3.3889742"
       x="748.9549"
       y="476.29163"
       transform="matrix(0.43043671,0.90262076,-0.65756997,0.75339348,0,0)"
       inkscape:transform-center-x="-0.043590961"
       inkscape:transform-center-y="-0.49104385" />
    <rect
       style="opacity:1;fill:#f2f2f2;fill-opacity:1;stroke:none;stroke-width:0.1;stroke-miterlimit:4;stroke-dasharray:none;stroke-opacity:1"
       id="rect4135-1-35"
       width="0.50547898"
       height="3.3889742"
       x="749.63843"
       y="476.20215"
       transform="matrix(0.43043671,0.90262076,-0.65756997,0.75339348,0,0)" />
    <rect
       style="opacity:1;fill:#f2f2f2;fill-opacity:1;stroke:none;stroke-width:0.1;stroke-miterlimit:4;stroke-dasharray:none;stroke-opacity:1"
       id="rect4135-2-5-4"
       width="0.50547898"
       height="3.3889742"
       x="750.23907"
       y="476.20483"
       transform="matrix(0.43043671,0.90262076,-0.65756997,0.75339348,0,0)"
       inkscape:transform-center-x="-0.043549878"
       inkscape:transform-center-y="-0.49111135" />
    <rect
       style="opacity:1;fill:#f2f2f2;fill-opacity:1;stroke:none;stroke-width:0.1;stroke-miterlimit:4;stroke-dasharray:none;stroke-opacity:1"
       id="rect4135-2-1-8-9"
       width="0.50547898"
       height="3.3889742"
       x="750.85345"
       y="476.2095"
       transform="matrix(0.43043671,0.90262076,-0.65756997,0.75339348,0,0)"
       inkscape:transform-center-x="-0.043555693"
       inkscape:transform-center-y="-0.49105718" />
    <rect
       style="opacity:1;fill:#f2f2f2;fill-opacity:1;stroke:none;stroke-width:0.1;stroke-miterlimit:4;stroke-dasharray:none;stroke-opacity:1"
       id="rect4135-2-1-9-9-3"
       width="0.50547898"
       height="3.3889742"
       x="751.52142"
       y="476.14987"
       transform="matrix(0.43043671,0.90262076,-0.65756997,0.75339348,0,0)"
       inkscape:transform-center-x="-0.043552243"
       inkscape:transform-center-y="-0.49107085" />
    <path
       style="fill:#cccccc;fill-rule:evenodd;stroke:none;stroke-width:1px;stroke-linecap:butt;stroke-linejoin:miter;stroke-opacity:1"
       d="m 13.682588,1034.5105 -6.2624496,-12.6455 0.3696401,-1.2627 1.1089199,0.3157 5.7749536,13.2137 z"
       id="path4254"
       inkscape:connector-curvature="0"
       sodipodi:nodetypes="cccccc" />
    <path
       style="fill:#cccccc;fill-rule:evenodd;stroke:none;stroke-width:1px;stroke-linecap:butt;stroke-linejoin:miter;stroke-opacity:1"
       d="m 14.915839,1034.1324 -5.6008294,-13.6296 0.4665288,-1.3056 1.1265266,0.412 5.05622,14.4349 z"
       id="path4254-9"
       inkscape:connector-curvature="0"
       sodipodi:nodetypes="cccccc" />
    <path
       style="fill:#cccccc;fill-rule:evenodd;stroke:none;stroke-width:1px;stroke-linecap:butt;stroke-linejoin:miter;stroke-opacity:1"
       d="m 16.079698,1034.1141 -4.952657,-15.403 0.309067,-1.2522 1.529197,0.4961 3.99941,16.3067 z"
       id="path4254-9-7"
       inkscape:connector-curvature="0"
       sodipodi:nodetypes="cccccc" />
    <path
       style="fill:#cccccc;fill-rule:evenodd;stroke:none;stroke-width:1px;stroke-linecap:butt;stroke-linejoin:miter;stroke-opacity:1"
       d="m 16.987467,1034.1695 c -0.03444,-0.1371 -2.549721,-13.5355 -3.093065,-16.5162 l 0.669408,-1.2383 1.311051,0.7259 2.00403,17.3108 z"
       id="path4254-9-7-3"
       inkscape:connector-curvature="0"
       sodipodi:nodetypes="cccccc" />
    <path
       style="fill:#cccccc;fill-rule:evenodd;stroke:none;stroke-width:1px;stroke-linecap:butt;stroke-linejoin:miter;stroke-opacity:1"
       d="m 17.828406,1034.1346 -0.90556,-17.1492 1.226565,-1.1005 1.213919,1.036 -0.369702,17.5984 z"
       id="path4254-9-7-3-5"
       inkscape:connector-curvature="0"
       sodipodi:nodetypes="cccccc" />
    <path
       style="fill:#cccccc;fill-rule:evenodd;stroke:none;stroke-width:1px;stroke-linecap:butt;stroke-linejoin:miter;stroke-opacity:1"
       d="m 23.367864,1037.1555 6.530306,-12.6901 -0.369639,-1.2627 -1.108921,0.3157 -5.975845,13.2583 z"
       id="path4254-0"
       inkscape:connector-curvature="0" />
    <path
       style="fill:#cccccc;fill-rule:evenodd;stroke:none;stroke-width:1px;stroke-linecap:butt;stroke-linejoin:miter;stroke-opacity:1"
       d="m 22.065366,1036.896 5.91333,-13.8528 -0.466529,-1.3056 -1.126527,0.412 -5.149288,14.0555 z"
       id="path4254-9-3"
       inkscape:connector-curvature="0"
       sodipodi:nodetypes="cccccc" />
    <path
       style="fill:#cccccc;fill-rule:evenodd;stroke:none;stroke-width:1px;stroke-linecap:butt;stroke-linejoin:miter;stroke-opacity:1"
       d="m 21.104375,1035.9102 5.005404,-14.1753 -0.420674,-1.4308 -1.015804,0.4515 -4.323255,14.6549 z"
       id="path4254-9-7-9"
       inkscape:connector-curvature="0"
       sodipodi:nodetypes="cccccc" />
    <path
       style="fill:#cccccc;fill-rule:evenodd;stroke:none;stroke-width:1px;stroke-linecap:butt;stroke-linejoin:miter;stroke-opacity:1"
       d="m 20.691259,1035.246 3.621343,-14.8227 -0.579875,-1.4308 -0.965566,0.4515 -2.914494,15.4585 z"
       id="path4254-9-7-9-3"
       inkscape:connector-curvature="0"
       sodipodi:nodetypes="cccccc" />
    <path
       style="fill:#cccccc;fill-rule:evenodd;stroke:none;stroke-width:1px;stroke-linecap:butt;stroke-linejoin:miter;stroke-opacity:1"
       d="m 19.99798,1035.0423 2.069538,-16.2276 -0.711589,-1.3669 -0.918668,0.5446 -1.52575,16.6432 z"
       id="path4254-9-7-9-3-1"
       inkscape:connector-curvature="0"
       inkscape:transform-center-x="-1.5316709"
       inkscape:transform-center-y="-1.3690562"
       sodipodi:nodetypes="cccccc" />
    <path
       style="fill:none;fill-rule:evenodd;stroke:#cccccc;stroke-width:0.29634777;stroke-linecap:butt;stroke-linejoin:miter;stroke-miterlimit:4;stroke-dasharray:none;stroke-opacity:1"
       d="m 5.5691569,1022.2808 c 0,0 7.8741691,-5.3165 12.1918711,-5.006 5.435213,0.3909 13.527571,8.8617 13.527571,8.8617"
       id="path4367"
       inkscape:connector-curvature="0"
       sodipodi:nodetypes="csc" />
  </g>
</svg>
