<?xml version="1.0" encoding="UTF-8" standalone="no"?>
<!-- Created with Inkscape (http://www.inkscape.org/) -->

<svg
   xmlns:dc="http://purl.org/dc/elements/1.1/"
   xmlns:cc="http://creativecommons.org/ns#"
   xmlns:rdf="http://www.w3.org/1999/02/22-rdf-syntax-ns#"
   xmlns:svg="http://www.w3.org/2000/svg"
   xmlns="http://www.w3.org/2000/svg"
   xmlns:sodipodi="http://sodipodi.sourceforge.net/DTD/sodipodi-0.dtd"
   xmlns:inkscape="http://www.inkscape.org/namespaces/inkscape"
   width="40"
   height="50"
   viewBox="0 0 40.000001 50.000001"
   id="svg2"
   version="1.1"
   inkscape:version="0.91 r13725"
   sodipodi:docname="myAgogoDesign.svg">
  <defs
     id="defs4" />
  <sodipodi:namedview
     id="base"
     pagecolor="#ffffff"
     bordercolor="#666666"
     borderopacity="1.0"
     inkscape:pageopacity="0.0"
     inkscape:pageshadow="2"
     inkscape:zoom="7.919596"
     inkscape:cx="-2.2213286"
     inkscape:cy="28.441049"
     inkscape:document-units="px"
     inkscape:current-layer="layer1"
     showgrid="false"
     units="px"
     inkscape:window-width="1920"
     inkscape:window-height="1017"
     inkscape:window-x="-8"
     inkscape:window-y="-8"
     inkscape:window-maximized="1" />
  <metadata
     id="metadata7">
    <rdf:RDF>
      <cc:Work
         rdf:about="">
        <dc:format>image/svg+xml</dc:format>
        <dc:type
           rdf:resource="http://purl.org/dc/dcmitype/StillImage" />
        <dc:title />
      </cc:Work>
    </rdf:RDF>
  </metadata>
  <g
     inkscape:label="Ebene 1"
     inkscape:groupmode="layer"
     id="layer1"
     transform="translate(0,-1002.3622)">
    <path
       style="fill:#e6e6e6;fill-opacity:1;fill-rule:evenodd;stroke:none;stroke-width:1px;stroke-linecap:butt;stroke-linejoin:miter;stroke-opacity:1"
       d="m 5.2678571,1022.5408 4.9999999,5.625 c 0,0 2.455393,-7.8667 4.910715,-11.0715 2.818374,-3.6786 10.803571,-8.75 10.803571,-8.75 0,0 2.005065,0.2943 2.812499,0.8482 0.699533,0.48 1.562501,2.009 1.562501,2.009 0,0 -10.373193,14.9414 -16.428572,22.2321 -2.297103,2.7657 -9.7672673,4.5753 -9.7672673,4.5753 l 5.3922677,6.4069 c 2.0390266,-5.941 3.6218936,-3.2813 5.5357146,-10.8036 l 15.892857,-22.3214 c 0,0 -0.920768,-2.0199 -1.785715,-2.6339 -0.803531,-0.5704 -2.857142,-0.759 -2.857142,-0.759 l -0.714286,-0.089 c 0,0 -7.91434,5.2496 -11.160714,8.6607 -2.673406,2.809 -9.1964289,6.0712 -9.1964289,6.0712 z"
       id="path4151"
       inkscape:connector-curvature="0"
       sodipodi:nodetypes="ccscscsccccsccsc" />
    <path
       style="fill:#b3b3b3;fill-rule:evenodd;stroke:none;stroke-width:1px;stroke-linecap:butt;stroke-linejoin:miter;stroke-opacity:1"
       d="m 5.3033009,1022.5627 3.2829957,0.7576 2.2097084,3.1567 -0.56821,1.5784 -3.0935927,-1.894 z"
       id="path4153"
       inkscape:connector-curvature="0" />
    <path
       style="fill:#b3b3b3;fill-rule:evenodd;stroke:none;stroke-width:1px;stroke-linecap:butt;stroke-linejoin:miter;stroke-opacity:1"
       d="m 3.882774,1038.1254 3.9245006,0.8098 2.6414904,3.3745 -0.6792394,1.6872 -3.6980878,-2.0246 z"
       id="path4153-0"
       inkscape:connector-curvature="0" />
  </g>
</svg>
