<?xml version="1.0" encoding="UTF-8" standalone="no"?>
<!-- Created with Inkscape (http://www.inkscape.org/) -->

<svg
   xmlns:dc="http://purl.org/dc/elements/1.1/"
   xmlns:cc="http://creativecommons.org/ns#"
   xmlns:rdf="http://www.w3.org/1999/02/22-rdf-syntax-ns#"
   xmlns:svg="http://www.w3.org/2000/svg"
   xmlns="http://www.w3.org/2000/svg"
   xmlns:sodipodi="http://sodipodi.sourceforge.net/DTD/sodipodi-0.dtd"
   xmlns:inkscape="http://www.inkscape.org/namespaces/inkscape"
   width="40"
   height="50"
   viewBox="0 0 40.000001 50.000001"
   id="svg2"
   version="1.1"
   inkscape:version="0.91 r13725"
   sodipodi:docname="myBandoneonDesign.svg">
  <defs
     id="defs4" />
  <sodipodi:namedview
     id="base"
     pagecolor="#ffffff"
     bordercolor="#666666"
     borderopacity="1.0"
     inkscape:pageopacity="0.0"
     inkscape:pageshadow="2"
     inkscape:zoom="7.919596"
     inkscape:cx="7.0607382"
     inkscape:cy="31.848594"
     inkscape:document-units="px"
     inkscape:current-layer="layer1"
     showgrid="false"
     units="px"
     inkscape:window-width="1278"
     inkscape:window-height="1008"
     inkscape:window-x="633"
     inkscape:window-y="0"
     inkscape:window-maximized="0"
     showguides="true" />
  <metadata
     id="metadata7">
    <rdf:RDF>
      <cc:Work
         rdf:about="">
        <dc:format>image/svg+xml</dc:format>
        <dc:type
           rdf:resource="http://purl.org/dc/dcmitype/StillImage" />
        <dc:title />
      </cc:Work>
    </rdf:RDF>
  </metadata>
  <g
     inkscape:label="Ebene 1"
     inkscape:groupmode="layer"
     id="layer1"
     transform="translate(0,-1002.3622)">
    <path
       style="fill:#cccccc;fill-rule:evenodd;stroke:none;stroke-width:0.91806811px;stroke-linecap:butt;stroke-linejoin:miter;stroke-opacity:1"
       d="m 19.078279,1034.5157 c 5.30936,0.6531 5.95393,3.5657 7.380359,2.2151 l 6.980944,-10.8361 -1.024814,-0.9765 -6.292113,12.304 c 0,0 -4.369943,-3.2047 -7.19311,-3.3995 -2.133464,-0.1472 -4.595686,1.1059 -4.595686,1.1059 l -6.5264453,-12.9936 -1.5376116,1.9953 c 4.6661869,10.5987 2.4140817,5.6885 6.3690149,12.9041 2.095933,-0.9876 0.529832,-0.2004 2.302803,-1.1084 1.341578,-0.8982 3.435256,-1.2683 4.136659,-1.2103 z"
       id="path4133"
       inkscape:connector-curvature="0"
       sodipodi:nodetypes="cccccscccccc" />
    <path
       style="fill:#cccccc;fill-rule:evenodd;stroke:none;stroke-width:1px;stroke-linecap:butt;stroke-linejoin:miter;stroke-opacity:1"
       d="m 14.925613,1034.7021 -6.4551661,-13.2543 0.3810151,-1.3235 1.143045,0.3309 5.952668,13.8499 z"
       id="path4254"
       inkscape:connector-curvature="0"
       sodipodi:nodetypes="cccccc" />
    <path
       style="fill:#cccccc;fill-rule:evenodd;stroke:none;stroke-width:1px;stroke-linecap:butt;stroke-linejoin:miter;stroke-opacity:1"
       d="m 16.557336,1034.2271 -5.600829,-13.6296 0.466529,-1.3056 1.126526,0.412 5.05622,14.4349 z"
       id="path4254-9"
       inkscape:connector-curvature="0"
       sodipodi:nodetypes="cccccc" />
    <path
       style="fill:#cccccc;fill-rule:evenodd;stroke:none;stroke-width:1px;stroke-linecap:butt;stroke-linejoin:miter;stroke-opacity:1"
       d="m 17.973734,1034.0825 -4.952657,-15.403 0.309067,-1.2522 1.529197,0.4961 3.99941,16.3067 z"
       id="path4254-9-7"
       inkscape:connector-curvature="0"
       sodipodi:nodetypes="cccccc" />
    <path
       style="fill:#cccccc;fill-rule:evenodd;stroke:none;stroke-width:1px;stroke-linecap:butt;stroke-linejoin:miter;stroke-opacity:1"
       d="m 18.692099,1034.1379 c -0.03444,-0.1371 -2.549721,-13.5355 -3.093065,-16.5162 l 0.669408,-1.2383 1.311051,0.7259 2.00403,17.3108 z"
       id="path4254-9-7-3"
       inkscape:connector-curvature="0"
       sodipodi:nodetypes="cccccc" />
    <path
       style="fill:#cccccc;fill-rule:evenodd;stroke:none;stroke-width:1px;stroke-linecap:butt;stroke-linejoin:miter;stroke-opacity:1"
       d="m 19.312067,1034.0714 -0.90556,-17.1492 1.226565,-1.1005 1.213919,1.036 -0.369702,17.5984 z"
       id="path4254-9-7-3-5"
       inkscape:connector-curvature="0"
       sodipodi:nodetypes="cccccc" />
    <path
       style="fill:#cccccc;fill-rule:evenodd;stroke:none;stroke-width:1px;stroke-linecap:butt;stroke-linejoin:miter;stroke-opacity:1"
       d="m 25.388169,1036.7135 6.530306,-12.6901 -0.369639,-1.2627 -1.108921,0.3157 -5.886559,13.0351 z"
       id="path4254-0"
       inkscape:connector-curvature="0"
       sodipodi:nodetypes="cccccc" />
    <path
       style="fill:#cccccc;fill-rule:evenodd;stroke:none;stroke-width:1px;stroke-linecap:butt;stroke-linejoin:miter;stroke-opacity:1"
       d="m 24.137973,1036.1709 5.734759,-13.3171 -0.466529,-1.3056 -1.126527,0.412 -4.970717,13.6537 z"
       id="path4254-9-3"
       inkscape:connector-curvature="0"
       sodipodi:nodetypes="cccccc" />
    <path
       style="fill:#cccccc;fill-rule:evenodd;stroke:none;stroke-width:1px;stroke-linecap:butt;stroke-linejoin:miter;stroke-opacity:1"
       d="m 23.029978,1035.6576 5.005404,-14.1753 -0.420674,-1.4308 -1.015804,0.4515 -4.323255,14.6549 z"
       id="path4254-9-7-9"
       inkscape:connector-curvature="0"
       sodipodi:nodetypes="cccccc" />
    <path
       style="fill:#cccccc;fill-rule:evenodd;stroke:none;stroke-width:1px;stroke-linecap:butt;stroke-linejoin:miter;stroke-opacity:1"
       d="m 22.269622,1035.0566 3.621343,-14.8227 -0.579875,-1.4308 -0.965566,0.4515 -2.914494,15.4585 z"
       id="path4254-9-7-9-3"
       inkscape:connector-curvature="0"
       sodipodi:nodetypes="cccccc" />
    <path
       style="fill:#cccccc;fill-rule:evenodd;stroke:none;stroke-width:1px;stroke-linecap:butt;stroke-linejoin:miter;stroke-opacity:1"
       d="m 21.450074,1034.6003 2.069538,-16.2276 -0.711589,-1.3669 -0.918668,0.5446 -1.52575,16.6432 z"
       id="path4254-9-7-9-3-1"
       inkscape:connector-curvature="0"
       inkscape:transform-center-x="-1.5316709"
       inkscape:transform-center-y="-1.3690562"
       sodipodi:nodetypes="cccccc" />
    <path
       style="fill:none;fill-rule:evenodd;stroke:#cccccc;stroke-width:0.29634777;stroke-linecap:butt;stroke-linejoin:miter;stroke-miterlimit:4;stroke-dasharray:none;stroke-opacity:1"
       d="m 7.715731,1022.1545 c 0,0 7.874169,-5.3165 12.191871,-5.006 5.435213,0.3909 13.527571,8.8617 13.527571,8.8617"
       id="path4367"
       inkscape:connector-curvature="0"
       sodipodi:nodetypes="csc" />
    <rect
       style="opacity:1;fill:#e6e6e6;fill-opacity:1;stroke:none;stroke-width:0.30000001;stroke-miterlimit:4;stroke-dasharray:none;stroke-opacity:1"
       id="rect4165"
       width="4.3886895"
       height="18.570236"
       x="-447.86786"
       y="911.22021"
       transform="matrix(0.88930119,-0.45732199,0.43974765,0.89812138,0,0)" />
    <rect
       style="opacity:1;fill:#e6e6e6;fill-opacity:1;stroke:none;stroke-width:0.30000001;stroke-miterlimit:4;stroke-dasharray:none;stroke-opacity:1"
       id="rect4165-7"
       width="4.3886895"
       height="18.570236"
       x="-538.46552"
       y="861.93353"
       transform="matrix(-0.85984306,-0.51055843,-0.49355302,0.86971571,0,0)" />
  </g>
</svg>
