<?xml version="1.0" encoding="UTF-8" standalone="no"?>
<!-- Created with Inkscape (http://www.inkscape.org/) -->

<svg
   xmlns:dc="http://purl.org/dc/elements/1.1/"
   xmlns:cc="http://creativecommons.org/ns#"
   xmlns:rdf="http://www.w3.org/1999/02/22-rdf-syntax-ns#"
   xmlns:svg="http://www.w3.org/2000/svg"
   xmlns="http://www.w3.org/2000/svg"
   xmlns:sodipodi="http://sodipodi.sourceforge.net/DTD/sodipodi-0.dtd"
   xmlns:inkscape="http://www.inkscape.org/namespaces/inkscape"
   width="40"
   height="50"
   viewBox="0 0 40.000001 50.000001"
   id="svg2"
   version="1.1"
   inkscape:version="0.91 r13725"
   sodipodi:docname="myBassoonDesign.svg">
  <defs
     id="defs4" />
  <sodipodi:namedview
     id="base"
     pagecolor="#ffffff"
     bordercolor="#666666"
     borderopacity="1.0"
     inkscape:pageopacity="0.0"
     inkscape:pageshadow="2"
     inkscape:zoom="11.2"
     inkscape:cx="7.6815967"
     inkscape:cy="25.371618"
     inkscape:document-units="px"
     inkscape:current-layer="layer1"
     showgrid="false"
     units="px"
     inkscape:window-width="958"
     inkscape:window-height="1008"
     inkscape:window-x="953"
     inkscape:window-y="0"
     inkscape:window-maximized="0" />
  <metadata
     id="metadata7">
    <rdf:RDF>
      <cc:Work
         rdf:about="">
        <dc:format>image/svg+xml</dc:format>
        <dc:type
           rdf:resource="http://purl.org/dc/dcmitype/StillImage" />
        <dc:title />
      </cc:Work>
    </rdf:RDF>
  </metadata>
  <g
     inkscape:label="Ebene 1"
     inkscape:groupmode="layer"
     id="layer1"
     transform="translate(0,-1002.3622)">
    <path
       style="fill:#cccccc;fill-opacity:1;fill-rule:evenodd;stroke:none;stroke-width:1px;stroke-linecap:butt;stroke-linejoin:miter;stroke-opacity:1"
       d="m 4.2976352,1046.36 0.492379,0.3557 -0.8348636,1.317 0.5577595,0.4512 0.8947884,-1.017 0.5422667,0.7457 c 0,0 13.3098688,-16.7001 19.2222218,-24.8123 0.398609,-0.5469 0.907289,-1.0505 1.574341,-1.9461 2.955604,-3.9682 4.344602,-6.6695 4.344602,-6.6695 1.066809,-1.0648 -1.83889,-3.043 -2.686006,-2.0357 0,0 -1.462642,2.5641 -4.571288,6.7835 -0.47402,0.6434 -1.027747,1.4147 -1.454038,2.0414 -5.702036,8.3823 -18.0821628,24.7861 -18.0821628,24.7861 z"
       id="path4442"
       inkscape:connector-curvature="0"
       sodipodi:nodetypes="ccccccssccssc" />
    <path
       style="fill:#f2f2f2;fill-opacity:1;fill-rule:evenodd;stroke:none;stroke-width:1px;stroke-linecap:butt;stroke-linejoin:miter;stroke-opacity:1"
       d="m 15.062749,1035.2717 -0.958766,-0.8869 -1.485428,2.3485 1.037322,1.0993 -0.5449,0.6873 -1.035074,-0.9287 -1.495212,1.9241 0.741187,0.8576 -0.58927,0.6792 -0.661772,-0.8768 -0.7991461,-0.7204 4.0053451,-5.835 7.410714,-10.5803 2.1875,1.6964 -0.535714,0.625 -1.517857,-1.0268 -1.428572,1.6964 1.5625,1.1161 -0.535714,0.6696 -1.339286,-1.0267 -2.053571,2.7232 1.428571,1.116 -0.491071,0.6697 -1.294643,-0.9375 -2.232143,3.0357 1.294642,0.9821 z"
       id="path4508"
       inkscape:connector-curvature="0"
       sodipodi:nodetypes="ccccccccccccccccccccccccccc" />
    <path
       style="fill:#e6e6e6;fill-opacity:1;fill-rule:evenodd;stroke:none;stroke-width:1px;stroke-linecap:butt;stroke-linejoin:miter;stroke-opacity:1"
       d="m 11.99819,1021.071 0.378807,0.3156 2.462247,1.9572 5.42957,-4.9876 c 0,0 1.664144,-0.7115 2.272843,-0.2526 0.903425,0.681 0.568211,3.3462 0.568211,3.3462 l 0.505076,-0.063 c 0,0 0.500431,-3.0659 -0.505076,-3.9143 -0.788806,-0.6655 -3.093593,0.1263 -3.093593,0.1263 l -5.177031,4.6719 -2.588516,-1.894 z"
       id="path4141"
       inkscape:connector-curvature="0"
       sodipodi:nodetypes="ccccsccscccc" />
    <path
       style="fill:#e6e6e6;fill-rule:evenodd;stroke:none;stroke-width:1px;stroke-linecap:butt;stroke-linejoin:miter;stroke-opacity:1"
       d="m 21.766424,1022.4661 2.596176,2.0687 0.401128,-0.5866 c -0.536359,-0.7823 -2.595715,-1.9638 -2.658977,-1.9875 z"
       id="path4143"
       inkscape:connector-curvature="0"
       sodipodi:nodetypes="ccccc" />
    <path
       style="fill:#e6e6e6;fill-rule:evenodd;stroke:none;stroke-width:1px;stroke-linecap:butt;stroke-linejoin:miter;stroke-opacity:1"
       d="m 8.4134694,1040.9244 1.9399526,1.8658 0.299737,-0.5291 c -0.400786,-0.7055 -1.9396084,-1.7711 -1.9868799,-1.7925 z"
       id="path4143-7"
       inkscape:connector-curvature="0"
       sodipodi:nodetypes="ccccc" />
    <rect
       style="opacity:1;fill:#e6e6e6;fill-opacity:1;stroke:none;stroke-width:0.1;stroke-miterlimit:4;stroke-dasharray:none;stroke-opacity:1"
       id="rect4160"
       width="0.58892864"
       height="22.693756"
       x="649.34467"
       y="903.19171"
       transform="matrix(0.88158476,0.47202576,-0.60782734,0.79406922,0,0)" />
  </g>
</svg>
