<?xml version="1.0" encoding="UTF-8" standalone="no"?>
<!-- Created with Inkscape (http://www.inkscape.org/) -->

<svg
   xmlns:dc="http://purl.org/dc/elements/1.1/"
   xmlns:cc="http://creativecommons.org/ns#"
   xmlns:rdf="http://www.w3.org/1999/02/22-rdf-syntax-ns#"
   xmlns:svg="http://www.w3.org/2000/svg"
   xmlns="http://www.w3.org/2000/svg"
   xmlns:sodipodi="http://sodipodi.sourceforge.net/DTD/sodipodi-0.dtd"
   xmlns:inkscape="http://www.inkscape.org/namespaces/inkscape"
   width="40"
   height="50"
   viewBox="0 0 40.000001 50.000001"
   id="svg2"
   version="1.1"
   inkscape:version="0.91 r13725"
   sodipodi:docname="myBagpipeDesign.svg">
  <defs
     id="defs4" />
  <sodipodi:namedview
     id="base"
     pagecolor="#ffffff"
     bordercolor="#666666"
     borderopacity="1.0"
     inkscape:pageopacity="0.0"
     inkscape:pageshadow="2"
     inkscape:zoom="15.839192"
     inkscape:cx="35.363461"
     inkscape:cy="18.173981"
     inkscape:document-units="px"
     inkscape:current-layer="layer1"
     showgrid="false"
     units="px"
     inkscape:window-width="1920"
     inkscape:window-height="1017"
     inkscape:window-x="-8"
     inkscape:window-y="-8"
     inkscape:window-maximized="1" />
  <metadata
     id="metadata7">
    <rdf:RDF>
      <cc:Work
         rdf:about="">
        <dc:format>image/svg+xml</dc:format>
        <dc:type
           rdf:resource="http://purl.org/dc/dcmitype/StillImage" />
        <dc:title />
      </cc:Work>
    </rdf:RDF>
  </metadata>
  <g
     inkscape:label="Ebene 1"
     inkscape:groupmode="layer"
     id="layer1"
     transform="translate(0,-1002.3622)">
    <path
       style="fill:#b3b3b3;fill-rule:evenodd;stroke:none;stroke-width:1px;stroke-linecap:butt;stroke-linejoin:miter;stroke-opacity:1"
       d="m 3.3046601,1043.9855 1.8077097,1.3273 0.086081,-0.8849 6.0256992,-12.034 -1.3773033,-0.8849 -6.0256985,12.1226 z"
       id="path4151"
       inkscape:connector-curvature="0" />
    <path
       style="fill:#4d4d4d;fill-rule:evenodd;stroke:none;stroke-width:1px;stroke-linecap:butt;stroke-linejoin:miter;stroke-opacity:1"
       d="m 8.8999517,1031.332 2.6685233,1.8582 0.08608,-1.6812 c 0,0 0.886579,-1.5361 1.635547,-1.5928 4.088524,-0.3097 5.995585,6.8038 10.071525,7.2559 4.360429,0.4837 10.472253,-1.05 12.137479,-5.2207 1.074393,-2.6909 -0.714612,-6.8054 -3.271093,-8.0523 -3.27266,-1.5961 -6.795807,3.0524 -10.415852,3.1855 -3.054307,0.1124 -6.010277,-2.8855 -8.952466,-2.0352 -0.99635,0.288 -1.696466,1.3057 -2.238117,2.2122 -0.565266,0.9462 -0.9468949,3.1855 -0.9468949,3.1855 z"
       id="path4153"
       inkscape:connector-curvature="0"
       sodipodi:nodetypes="cccssssssscc" />
    <path
       style="fill:#b3b3b3;fill-rule:evenodd;stroke:none;stroke-width:1px;stroke-linecap:butt;stroke-linejoin:miter;stroke-opacity:1"
       d="m 15.714286,1025.8443 -0.267857,-6.1607 0.446428,-3.6607 0.535714,3.5714 0.357143,6.6965 z"
       id="path4155"
       inkscape:connector-curvature="0" />
    <path
       style="fill:#b3b3b3;fill-rule:evenodd;stroke:none;stroke-width:1px;stroke-linecap:butt;stroke-linejoin:miter;stroke-opacity:1;fill-opacity:1"
       d="m 18.571429,1026.3801 -0.357143,-15.1786 1.160714,-0.089 0.267857,16.1607 z"
       id="path4157"
       inkscape:connector-curvature="0" />
    <path
       style="fill:#b3b3b3;fill-opacity:1;fill-rule:evenodd;stroke:none;stroke-width:1px;stroke-linecap:butt;stroke-linejoin:miter;stroke-opacity:1"
       d="m 22.410715,1027.1612 -0.357143,-7.9666 1.160714,-0.047 0.267857,8.4821 z"
       id="path4157-1"
       inkscape:connector-curvature="0" />
    <path
       style="fill:#b3b3b3;fill-opacity:1;fill-rule:evenodd;stroke:none;stroke-width:1px;stroke-linecap:butt;stroke-linejoin:miter;stroke-opacity:1"
       d="m 26.160715,1026.3156 0.357143,-7.17 -1.160714,-0.042 -0.267857,7.6339 z"
       id="path4157-1-0"
       inkscape:connector-curvature="0" />
  </g>
</svg>
