<?xml version="1.0" encoding="UTF-8" standalone="no"?>
<!-- Created with Inkscape (http://www.inkscape.org/) -->

<svg
   xmlns:dc="http://purl.org/dc/elements/1.1/"
   xmlns:cc="http://creativecommons.org/ns#"
   xmlns:rdf="http://www.w3.org/1999/02/22-rdf-syntax-ns#"
   xmlns:svg="http://www.w3.org/2000/svg"
   xmlns="http://www.w3.org/2000/svg"
   xmlns:sodipodi="http://sodipodi.sourceforge.net/DTD/sodipodi-0.dtd"
   xmlns:inkscape="http://www.inkscape.org/namespaces/inkscape"
   width="40"
   height="50"
   viewBox="0 0 40.000001 50.000001"
   id="svg2"
   version="1.1"
   inkscape:version="0.91 r13725"
   sodipodi:docname="myCelestaDesign.svg">
  <defs
     id="defs4" />
  <sodipodi:namedview
     id="base"
     pagecolor="#ffffff"
     bordercolor="#666666"
     borderopacity="1.0"
     inkscape:pageopacity="0.0"
     inkscape:pageshadow="2"
     inkscape:zoom="15.839192"
     inkscape:cx="27.968088"
     inkscape:cy="28.507617"
     inkscape:document-units="px"
     inkscape:current-layer="layer1"
     showgrid="false"
     units="px"
     inkscape:window-width="1920"
     inkscape:window-height="1017"
     inkscape:window-x="-8"
     inkscape:window-y="-8"
     inkscape:window-maximized="1" />
  <metadata
     id="metadata7">
    <rdf:RDF>
      <cc:Work
         rdf:about="">
        <dc:format>image/svg+xml</dc:format>
        <dc:type
           rdf:resource="http://purl.org/dc/dcmitype/StillImage" />
        <dc:title />
      </cc:Work>
    </rdf:RDF>
  </metadata>
  <g
     inkscape:label="Ebene 1"
     inkscape:groupmode="layer"
     id="layer1"
     transform="translate(0,-1002.3622)">
    <path
       style="fill:#4d4d4d;fill-opacity:1;fill-rule:evenodd;stroke:none;stroke-width:1px;stroke-linecap:butt;stroke-linejoin:miter;stroke-opacity:1"
       d="m 3.6607143,1025.3979 0.089286,16.6447 29.6428567,2.8196 -0.223213,-21.2842 z"
       id="path4321"
       inkscape:connector-curvature="0"
       sodipodi:nodetypes="ccccc" />
    <path
       style="fill:#4d4d4d;fill-opacity:1;fill-rule:evenodd;stroke:none;stroke-width:0.1;stroke-linecap:butt;stroke-linejoin:miter;stroke-miterlimit:4;stroke-dasharray:none;stroke-opacity:1"
       d="m 30.603615,1029.9539 2.329088,-6.6629 -28.6630774,-3.6618 -3.88277384,6.3766 z"
       id="path4323"
       inkscape:connector-curvature="0"
       sodipodi:nodetypes="ccccc" />
    <rect
       style="opacity:1;fill:#ececec;fill-opacity:1;stroke:none;stroke-width:4;stroke-miterlimit:4;stroke-dasharray:none;stroke-opacity:1"
       id="rect4292"
       width="4.7955513"
       height="0.88106847"
       x="-1098.9603"
       y="591.74896"
       transform="matrix(0.52681236,-0.84998161,0.98835295,0.15217901,0,0)" />
    <rect
       style="opacity:1;fill:#ececec;fill-opacity:1;stroke:none;stroke-width:4;stroke-miterlimit:4;stroke-dasharray:none;stroke-opacity:1"
       id="rect4292-7"
       width="4.7955513"
       height="0.88106847"
       x="-1098.9603"
       y="592.75592"
       transform="matrix(0.52681236,-0.84998161,0.98835295,0.15217901,0,0)" />
    <rect
       style="opacity:1;fill:#ececec;fill-opacity:1;stroke:none;stroke-width:4;stroke-miterlimit:4;stroke-dasharray:none;stroke-opacity:1"
       id="rect4292-7-8"
       width="4.7955513"
       height="0.88106847"
       x="-1098.9603"
       y="593.73138"
       transform="matrix(0.52681236,-0.84998161,0.98835295,0.15217901,0,0)" />
    <rect
       style="opacity:1;fill:#ececec;fill-opacity:1;stroke:none;stroke-width:4;stroke-miterlimit:4;stroke-dasharray:none;stroke-opacity:1"
       id="rect4292-9"
       width="4.7955513"
       height="0.88106847"
       x="-1098.9603"
       y="594.70685"
       transform="matrix(0.52681236,-0.84998161,0.98835295,0.15217901,0,0)" />
    <rect
       style="opacity:1;fill:#ececec;fill-opacity:1;stroke:none;stroke-width:4;stroke-miterlimit:4;stroke-dasharray:none;stroke-opacity:1"
       id="rect4292-7-3"
       width="4.7955513"
       height="0.88106847"
       x="-1098.9603"
       y="595.71381"
       transform="matrix(0.52681236,-0.84998161,0.98835295,0.15217901,0,0)" />
    <rect
       style="opacity:1;fill:#ececec;fill-opacity:1;stroke:none;stroke-width:4;stroke-miterlimit:4;stroke-dasharray:none;stroke-opacity:1"
       id="rect4292-7-8-1"
       width="4.7955513"
       height="0.88106847"
       x="-1098.9603"
       y="596.68927"
       transform="matrix(0.52681236,-0.84998161,0.98835295,0.15217901,0,0)" />
    <rect
       style="opacity:1;fill:#ececec;fill-opacity:1;stroke:none;stroke-width:4;stroke-miterlimit:4;stroke-dasharray:none;stroke-opacity:1"
       id="rect4292-1"
       width="4.7955513"
       height="0.88106847"
       x="-1098.9603"
       y="597.66473"
       transform="matrix(0.52681236,-0.84998161,0.98835295,0.15217901,0,0)" />
    <rect
       style="opacity:1;fill:#333333;fill-opacity:1;stroke:none;stroke-width:4;stroke-miterlimit:4;stroke-dasharray:none;stroke-opacity:1"
       id="rect4360"
       width="2.9972198"
       height="0.73946804"
       x="-1097.1627"
       y="592.31537"
       transform="matrix(0.52681236,-0.84998161,0.98835295,0.15217901,0,0)" />
    <rect
       style="opacity:1;fill:#333333;fill-opacity:1;stroke:none;stroke-width:4;stroke-miterlimit:4;stroke-dasharray:none;stroke-opacity:1"
       id="rect4360-7"
       width="2.9972198"
       height="0.73946804"
       x="-1097.1627"
       y="593.37738"
       transform="matrix(0.52681236,-0.84998161,0.98835295,0.15217901,0,0)" />
    <rect
       style="opacity:1;fill:#333333;fill-opacity:1;stroke:none;stroke-width:4;stroke-miterlimit:4;stroke-dasharray:none;stroke-opacity:1"
       id="rect4360-7-0"
       width="2.9972198"
       height="0.73946804"
       x="-1097.1627"
       y="595.26538"
       transform="matrix(0.52681236,-0.84998161,0.98835295,0.15217901,0,0)" />
    <rect
       style="opacity:1;fill:#333333;fill-opacity:1;stroke:none;stroke-width:4;stroke-miterlimit:4;stroke-dasharray:none;stroke-opacity:1"
       id="rect4360-7-0-6"
       width="2.9972198"
       height="0.73946804"
       x="-1097.1627"
       y="596.28802"
       transform="matrix(0.52681236,-0.84998161,0.98835295,0.15217901,0,0)" />
    <rect
       style="opacity:1;fill:#333333;fill-opacity:1;stroke:none;stroke-width:4;stroke-miterlimit:4;stroke-dasharray:none;stroke-opacity:1"
       id="rect4360-7-0-6-9"
       width="2.9972198"
       height="0.73946804"
       x="-1097.1627"
       y="597.21631"
       transform="matrix(0.52681236,-0.84998161,0.98835295,0.15217901,0,0)" />
    <rect
       style="opacity:1;fill:#ececec;fill-opacity:1;stroke:none;stroke-width:4;stroke-miterlimit:4;stroke-dasharray:none;stroke-opacity:1"
       id="rect4292-6"
       width="4.7955513"
       height="0.88106847"
       x="-1098.9396"
       y="598.62488"
       transform="matrix(0.52681236,-0.84998161,0.98835295,0.15217901,0,0)" />
    <rect
       style="opacity:1;fill:#ececec;fill-opacity:1;stroke:none;stroke-width:4;stroke-miterlimit:4;stroke-dasharray:none;stroke-opacity:1"
       id="rect4292-7-5"
       width="4.7955513"
       height="0.88106847"
       x="-1098.9396"
       y="599.63177"
       transform="matrix(0.52681236,-0.84998161,0.98835295,0.15217901,0,0)" />
    <rect
       style="opacity:1;fill:#ececec;fill-opacity:1;stroke:none;stroke-width:4;stroke-miterlimit:4;stroke-dasharray:none;stroke-opacity:1"
       id="rect4292-7-8-9"
       width="4.7955513"
       height="0.88106847"
       x="-1098.9396"
       y="600.60724"
       transform="matrix(0.52681236,-0.84998161,0.98835295,0.15217901,0,0)" />
    <rect
       style="opacity:1;fill:#ececec;fill-opacity:1;stroke:none;stroke-width:4;stroke-miterlimit:4;stroke-dasharray:none;stroke-opacity:1"
       id="rect4292-9-4"
       width="4.7955513"
       height="0.88106847"
       x="-1098.9396"
       y="601.58276"
       transform="matrix(0.52681236,-0.84998161,0.98835295,0.15217901,0,0)" />
    <rect
       style="opacity:1;fill:#ececec;fill-opacity:1;stroke:none;stroke-width:4;stroke-miterlimit:4;stroke-dasharray:none;stroke-opacity:1"
       id="rect4292-7-3-6"
       width="4.7955513"
       height="0.88106847"
       x="-1098.9396"
       y="602.58966"
       transform="matrix(0.52681236,-0.84998161,0.98835295,0.15217901,0,0)" />
    <rect
       style="opacity:1;fill:#ececec;fill-opacity:1;stroke:none;stroke-width:4;stroke-miterlimit:4;stroke-dasharray:none;stroke-opacity:1"
       id="rect4292-7-8-1-9"
       width="4.7955513"
       height="0.88106847"
       x="-1098.9396"
       y="603.56506"
       transform="matrix(0.52681236,-0.84998161,0.98835295,0.15217901,0,0)" />
    <rect
       style="opacity:1;fill:#ececec;fill-opacity:1;stroke:none;stroke-width:4;stroke-miterlimit:4;stroke-dasharray:none;stroke-opacity:1"
       id="rect4292-1-7"
       width="4.7955513"
       height="0.88106847"
       x="-1098.9396"
       y="604.54059"
       transform="matrix(0.52681236,-0.84998161,0.98835295,0.15217901,0,0)" />
    <rect
       style="opacity:1;fill:#333333;fill-opacity:1;stroke:none;stroke-width:4;stroke-miterlimit:4;stroke-dasharray:none;stroke-opacity:1"
       id="rect4360-0"
       width="2.9972198"
       height="0.73946804"
       x="-1097.1412"
       y="599.19128"
       transform="matrix(0.52681236,-0.84998161,0.98835295,0.15217901,0,0)" />
    <rect
       style="opacity:1;fill:#333333;fill-opacity:1;stroke:none;stroke-width:4;stroke-miterlimit:4;stroke-dasharray:none;stroke-opacity:1"
       id="rect4360-7-6"
       width="2.9972198"
       height="0.73946804"
       x="-1097.1412"
       y="600.2533"
       transform="matrix(0.52681236,-0.84998161,0.98835295,0.15217901,0,0)" />
    <rect
       style="opacity:1;fill:#333333;fill-opacity:1;stroke:none;stroke-width:4;stroke-miterlimit:4;stroke-dasharray:none;stroke-opacity:1"
       id="rect4360-7-0-0"
       width="2.9972198"
       height="0.73946804"
       x="-1097.1412"
       y="602.14124"
       transform="matrix(0.52681236,-0.84998161,0.98835295,0.15217901,0,0)" />
    <rect
       style="opacity:1;fill:#333333;fill-opacity:1;stroke:none;stroke-width:4;stroke-miterlimit:4;stroke-dasharray:none;stroke-opacity:1"
       id="rect4360-7-0-6-8"
       width="2.9972198"
       height="0.73946804"
       x="-1097.1412"
       y="603.16388"
       transform="matrix(0.52681236,-0.84998161,0.98835295,0.15217901,0,0)" />
    <rect
       style="opacity:1;fill:#333333;fill-opacity:1;stroke:none;stroke-width:4;stroke-miterlimit:4;stroke-dasharray:none;stroke-opacity:1"
       id="rect4360-7-0-6-9-9"
       width="2.9972198"
       height="0.73946804"
       x="-1097.1412"
       y="604.09222"
       transform="matrix(0.52681236,-0.84998161,0.98835295,0.15217901,0,0)" />
    <rect
       style="opacity:1;fill:#ececec;fill-opacity:1;stroke:none;stroke-width:4;stroke-miterlimit:4;stroke-dasharray:none;stroke-opacity:1"
       id="rect4292-6-4"
       width="4.7955513"
       height="0.88106847"
       x="-1098.8984"
       y="605.59363"
       transform="matrix(0.52681236,-0.84998161,0.98835295,0.15217901,0,0)" />
    <rect
       style="opacity:1;fill:#ececec;fill-opacity:1;stroke:none;stroke-width:4;stroke-miterlimit:4;stroke-dasharray:none;stroke-opacity:1"
       id="rect4292-7-5-1"
       width="4.7955513"
       height="0.88106847"
       x="-1098.8984"
       y="606.60059"
       transform="matrix(0.52681236,-0.84998161,0.98835295,0.15217901,0,0)" />
    <rect
       style="opacity:1;fill:#ececec;fill-opacity:1;stroke:none;stroke-width:4;stroke-miterlimit:4;stroke-dasharray:none;stroke-opacity:1"
       id="rect4292-7-8-9-9"
       width="4.7955513"
       height="0.88106847"
       x="-1098.8984"
       y="607.57599"
       transform="matrix(0.52681236,-0.84998161,0.98835295,0.15217901,0,0)" />
    <rect
       style="opacity:1;fill:#ececec;fill-opacity:1;stroke:none;stroke-width:4;stroke-miterlimit:4;stroke-dasharray:none;stroke-opacity:1"
       id="rect4292-9-4-2"
       width="4.7955513"
       height="0.88106847"
       x="-1098.8984"
       y="608.55145"
       transform="matrix(0.52681236,-0.84998161,0.98835295,0.15217901,0,0)" />
    <rect
       style="opacity:1;fill:#ececec;fill-opacity:1;stroke:none;stroke-width:4;stroke-miterlimit:4;stroke-dasharray:none;stroke-opacity:1"
       id="rect4292-7-3-6-8"
       width="4.7955513"
       height="0.88106847"
       x="-1098.8984"
       y="609.55835"
       transform="matrix(0.52681236,-0.84998161,0.98835295,0.15217901,0,0)" />
    <rect
       style="opacity:1;fill:#ececec;fill-opacity:1;stroke:none;stroke-width:4;stroke-miterlimit:4;stroke-dasharray:none;stroke-opacity:1"
       id="rect4292-7-8-1-9-0"
       width="4.7955513"
       height="0.88106847"
       x="-1098.8984"
       y="610.53381"
       transform="matrix(0.52681236,-0.84998161,0.98835295,0.15217901,0,0)" />
    <rect
       style="opacity:1;fill:#ececec;fill-opacity:1;stroke:none;stroke-width:4;stroke-miterlimit:4;stroke-dasharray:none;stroke-opacity:1"
       id="rect4292-1-7-2"
       width="4.7955513"
       height="0.88106847"
       x="-1098.8984"
       y="611.50928"
       transform="matrix(0.52681236,-0.84998161,0.98835295,0.15217901,0,0)" />
    <rect
       style="opacity:1;fill:#333333;fill-opacity:1;stroke:none;stroke-width:4;stroke-miterlimit:4;stroke-dasharray:none;stroke-opacity:1"
       id="rect4360-0-8"
       width="2.9972198"
       height="0.73946804"
       x="-1097.1001"
       y="606.15997"
       transform="matrix(0.52681236,-0.84998161,0.98835295,0.15217901,0,0)" />
    <rect
       style="opacity:1;fill:#333333;fill-opacity:1;stroke:none;stroke-width:4;stroke-miterlimit:4;stroke-dasharray:none;stroke-opacity:1"
       id="rect4360-7-6-5"
       width="2.9972198"
       height="0.73946804"
       x="-1097.1001"
       y="607.22205"
       transform="matrix(0.52681236,-0.84998161,0.98835295,0.15217901,0,0)" />
    <rect
       style="opacity:1;fill:#333333;fill-opacity:1;stroke:none;stroke-width:4;stroke-miterlimit:4;stroke-dasharray:none;stroke-opacity:1"
       id="rect4360-7-0-0-7"
       width="2.9972198"
       height="0.73946804"
       x="-1097.1001"
       y="609.11005"
       transform="matrix(0.52681236,-0.84998161,0.98835295,0.15217901,0,0)" />
    <rect
       style="opacity:1;fill:#333333;fill-opacity:1;stroke:none;stroke-width:4;stroke-miterlimit:4;stroke-dasharray:none;stroke-opacity:1"
       id="rect4360-7-0-6-8-5"
       width="2.9972198"
       height="0.73946804"
       x="-1097.1001"
       y="610.13269"
       transform="matrix(0.52681236,-0.84998161,0.98835295,0.15217901,0,0)" />
    <rect
       style="opacity:1;fill:#333333;fill-opacity:1;stroke:none;stroke-width:4;stroke-miterlimit:4;stroke-dasharray:none;stroke-opacity:1"
       id="rect4360-7-0-6-9-9-6"
       width="2.9972198"
       height="0.73946804"
       x="-1097.1001"
       y="611.06097"
       transform="matrix(0.52681236,-0.84998161,0.98835295,0.15217901,0,0)" />
    <path
       style="fill:none;fill-rule:evenodd;stroke:#000000;stroke-width:0.31016088;stroke-linecap:butt;stroke-linejoin:miter;stroke-miterlimit:4;stroke-dasharray:none;stroke-opacity:1"
       d="m 3.7153645,1026.4898 27.0182935,3.4059"
       id="path4460"
       inkscape:connector-curvature="0"
       sodipodi:nodetypes="cc" />
    <path
       style="fill:#4d4d4d;fill-opacity:1;fill-rule:evenodd;stroke:none;stroke-width:1px;stroke-linecap:butt;stroke-linejoin:miter;stroke-opacity:1"
       d="m 4.3306022,1014.9722 -0.08953,4.7888 28.8289178,3.8724 1e-6,-5.0531 z"
       id="path4321-0"
       inkscape:connector-curvature="0"
       sodipodi:nodetypes="ccccc" />
    <path
       style="fill:none;fill-rule:evenodd;stroke:#000000;stroke-width:0.32608449;stroke-linecap:butt;stroke-linejoin:miter;stroke-miterlimit:4;stroke-dasharray:none;stroke-opacity:1"
       d="m 4.3080418,1019.7502 28.6179722,3.8654"
       id="path4460-4"
       inkscape:connector-curvature="0" />
    <path
       style="fill:#666666;fill-opacity:1;fill-rule:evenodd;stroke:none;stroke-width:1px;stroke-linecap:butt;stroke-linejoin:miter;stroke-opacity:1"
       d="m 33.392857,1044.8622 4.017857,-3.4822 -0.267857,-26.7857 -27.5892851,-3.4821 -5.1785719,3.9285 28.660714,3.5715 0.178572,25.9821 z"
       id="path4494"
       inkscape:connector-curvature="0" />
  </g>
</svg>
