<?xml version="1.0" encoding="UTF-8" standalone="no"?>
<!-- Created with Inkscape (http://www.inkscape.org/) -->

<svg
   xmlns:dc="http://purl.org/dc/elements/1.1/"
   xmlns:cc="http://creativecommons.org/ns#"
   xmlns:rdf="http://www.w3.org/1999/02/22-rdf-syntax-ns#"
   xmlns:svg="http://www.w3.org/2000/svg"
   xmlns="http://www.w3.org/2000/svg"
   xmlns:sodipodi="http://sodipodi.sourceforge.net/DTD/sodipodi-0.dtd"
   xmlns:inkscape="http://www.inkscape.org/namespaces/inkscape"
   width="40"
   height="50"
   viewBox="0 0 40.000001 50.000001"
   id="svg2"
   version="1.1"
   inkscape:version="0.91 r13725"
   sodipodi:docname="myClarinetDesign.svg">
  <defs
     id="defs4" />
  <sodipodi:namedview
     id="base"
     pagecolor="#ffffff"
     bordercolor="#666666"
     borderopacity="1.0"
     inkscape:pageopacity="0.0"
     inkscape:pageshadow="2"
     inkscape:zoom="7.919596"
     inkscape:cx="-3.2948278"
     inkscape:cy="35.752338"
     inkscape:document-units="px"
     inkscape:current-layer="layer1"
     showgrid="false"
     units="px"
     inkscape:window-width="1920"
     inkscape:window-height="1017"
     inkscape:window-x="-8"
     inkscape:window-y="-8"
     inkscape:window-maximized="1" />
  <metadata
     id="metadata7">
    <rdf:RDF>
      <cc:Work
         rdf:about="">
        <dc:format>image/svg+xml</dc:format>
        <dc:type
           rdf:resource="http://purl.org/dc/dcmitype/StillImage" />
        <dc:title />
      </cc:Work>
    </rdf:RDF>
  </metadata>
  <g
     inkscape:label="Ebene 1"
     inkscape:groupmode="layer"
     id="layer1"
     transform="translate(0,-1002.3622)">
    <path
       style="fill:#4d4d4d;fill-opacity:1;fill-rule:evenodd;stroke:none;stroke-width:1px;stroke-linecap:butt;stroke-linejoin:miter;stroke-opacity:1"
       d="m 4.2976352,1046.36 1.65233,1.8526 c 0,0 13.3098688,-16.7001 19.2222218,-24.8123 0.398609,-0.5469 0.907289,-1.0505 1.574341,-1.9461 2.955604,-3.9682 6.458679,-4.1875 6.458679,-4.1875 0.941891,-0.2148 2.136671,1.9581 2.136671,1.9581 l 0.562795,-0.6052 -9.256483,-9.4901 -0.452774,0.4733 1.199555,1.0627 c 0,0 -0.452489,4.6476 -3.561135,8.867 -0.47402,0.6434 -1.027747,1.4147 -1.454038,2.0414 -5.702036,8.3823 -18.0821628,24.7861 -18.0821628,24.7861 z"
       id="path4442"
       inkscape:connector-curvature="0"
       sodipodi:nodetypes="ccssscccccssc" />
    <rect
       style="opacity:1;fill:#999999;fill-opacity:1;stroke:none;stroke-width:4;stroke-miterlimit:4;stroke-dasharray:none;stroke-opacity:1"
       id="rect4506"
       width="13.414037"
       height="0.84903294"
       x="747.02502"
       y="679.2998"
       transform="matrix(0.69239187,0.72152165,-0.72235218,0.69152536,0,0)" />
    <circle
       style="opacity:1;fill:#999999;fill-opacity:1;stroke:none;stroke-width:4;stroke-miterlimit:4;stroke-dasharray:none;stroke-opacity:1"
       id="path4444"
       cx="14.277125"
       cy="1037.399"
       r="0.89285713" />
    <circle
       style="opacity:1;fill:#999999;fill-opacity:1;stroke:none;stroke-width:4;stroke-miterlimit:4;stroke-dasharray:none;stroke-opacity:1"
       id="path4444-1"
       cx="16.553913"
       cy="1034.274"
       r="0.89285713" />
    <circle
       style="opacity:1;fill:#999999;fill-opacity:1;stroke:none;stroke-width:4;stroke-miterlimit:4;stroke-dasharray:none;stroke-opacity:1"
       id="path4444-1-1"
       cx="19.18784"
       cy="1031.0151"
       r="0.89285713" />
    <circle
       style="opacity:1;fill:#999999;fill-opacity:1;stroke:none;stroke-width:4;stroke-miterlimit:4;stroke-dasharray:none;stroke-opacity:1"
       id="path4444-1-1-9"
       cx="21.464626"
       cy="1027.801"
       r="0.89285713" />
    <circle
       style="opacity:1;fill:#999999;fill-opacity:1;stroke:none;stroke-width:4;stroke-miterlimit:4;stroke-dasharray:none;stroke-opacity:1"
       id="path4444-1-1-9-0"
       cx="24.00927"
       cy="1025.2115"
       r="0.89285713" />
    <path
       style="fill:#999999;fill-opacity:1;fill-rule:evenodd;stroke:none;stroke-width:1px;stroke-linecap:butt;stroke-linejoin:miter;stroke-opacity:1"
       d="m 14.115731,1035.2717 -1.785714,-1.6518 7.410714,-10.5803 2.1875,1.6964 -0.535714,0.625 -1.517857,-1.0268 -1.428572,1.6964 1.5625,1.1161 -0.535714,0.6696 -1.339286,-1.0267 -2.053571,2.7232 1.428571,1.116 -0.491071,0.6697 -1.294643,-0.9375 -2.232143,3.0357 1.294642,0.9821 z"
       id="path4508"
       inkscape:connector-curvature="0"
       sodipodi:nodetypes="ccccccccccccccccc" />
  </g>
</svg>
