<?xml version="1.0" encoding="UTF-8" standalone="no"?>
<!-- Created with Inkscape (http://www.inkscape.org/) -->

<svg
   xmlns:dc="http://purl.org/dc/elements/1.1/"
   xmlns:cc="http://creativecommons.org/ns#"
   xmlns:rdf="http://www.w3.org/1999/02/22-rdf-syntax-ns#"
   xmlns:svg="http://www.w3.org/2000/svg"
   xmlns="http://www.w3.org/2000/svg"
   xmlns:sodipodi="http://sodipodi.sourceforge.net/DTD/sodipodi-0.dtd"
   xmlns:inkscape="http://www.inkscape.org/namespaces/inkscape"
   width="40"
   height="50"
   viewBox="0 0 40.000001 50.000001"
   id="svg2"
   version="1.1"
   inkscape:version="0.91 r13725"
   sodipodi:docname="myDulcimerDesign.svg">
  <defs
     id="defs4" />
  <sodipodi:namedview
     id="base"
     pagecolor="#ffffff"
     bordercolor="#666666"
     borderopacity="1.0"
     inkscape:pageopacity="0.0"
     inkscape:pageshadow="2"
     inkscape:zoom="5.6"
     inkscape:cx="2.9439893"
     inkscape:cy="3.3239774"
     inkscape:document-units="px"
     inkscape:current-layer="layer1"
     showgrid="false"
     units="px"
     inkscape:window-width="958"
     inkscape:window-height="1008"
     inkscape:window-x="953"
     inkscape:window-y="0"
     inkscape:window-maximized="0" />
  <metadata
     id="metadata7">
    <rdf:RDF>
      <cc:Work
         rdf:about="">
        <dc:format>image/svg+xml</dc:format>
        <dc:type
           rdf:resource="http://purl.org/dc/dcmitype/StillImage" />
        <dc:title />
      </cc:Work>
    </rdf:RDF>
  </metadata>
  <g
     inkscape:label="Ebene 1"
     inkscape:groupmode="layer"
     id="layer1"
     transform="translate(0,-1002.3622)">
    <ellipse
       style="opacity:1;fill:#ececec;fill-opacity:1;stroke:none;stroke-width:0.1;stroke-miterlimit:4;stroke-dasharray:none;stroke-opacity:1"
       id="path4146"
       cx="18.857779"
       cy="1037.2283"
       rx="5.7761059"
       ry="12.455357" />
    <ellipse
       style="opacity:1;fill:#ececec;fill-opacity:1;stroke:none;stroke-width:0.1;stroke-miterlimit:4;stroke-dasharray:none;stroke-opacity:1"
       id="path4146-1"
       cx="18.705359"
       cy="1020.398"
       rx="4.5535712"
       ry="10.669642" />
    <rect
       style="opacity:1;fill:#cccccc;fill-opacity:1;stroke:none;stroke-width:0.1;stroke-miterlimit:4;stroke-dasharray:none;stroke-opacity:1"
       id="rect4163"
       width="1.5178572"
       height="41.339287"
       x="17.678572"
       y="1008.3444" />
    <path
       style="fill:#b3b3b3;fill-rule:evenodd;stroke:none;stroke-width:1px;stroke-linecap:butt;stroke-linejoin:miter;stroke-opacity:1"
       d="m 17.077891,1008.3574 0,-2.0518 c 0,0 0.640682,-1.2196 1.231124,-1.4521 0.335169,-0.1321 0.814684,-0.1245 1.073287,0.1263 0.358942,0.348 0.220971,1.4836 0.220971,1.4836 l -0.06314,1.9256 z"
       id="path4165"
       inkscape:connector-curvature="0"
       sodipodi:nodetypes="ccssccc" />
    <ellipse
       style="opacity:1;fill:#ececec;fill-opacity:1;stroke:none;stroke-width:0.1;stroke-miterlimit:4;stroke-dasharray:none;stroke-opacity:1"
       id="path4167"
       cx="19.518608"
       cy="1006.5248"
       rx="0.39108965"
       ry="0.45287016" />
    <ellipse
       style="opacity:1;fill:#ececec;fill-opacity:1;stroke:none;stroke-width:0.1;stroke-miterlimit:4;stroke-dasharray:none;stroke-opacity:1"
       id="path4167-4"
       cx="19.575893"
       cy="1007.7417"
       rx="0.39108965"
       ry="0.45287016" />
    <ellipse
       style="opacity:1;fill:#ececec;fill-opacity:1;stroke:none;stroke-width:0.1;stroke-miterlimit:4;stroke-dasharray:none;stroke-opacity:1"
       id="path4167-4-5"
       cx="17.1875"
       cy="1006.7595"
       rx="0.39108965"
       ry="0.45287016" />
    <ellipse
       style="opacity:1;fill:#ececec;fill-opacity:1;stroke:none;stroke-width:0.1;stroke-miterlimit:4;stroke-dasharray:none;stroke-opacity:1"
       id="path4167-4-5-3"
       cx="17.1875"
       cy="1007.8756"
       rx="0.39108965"
       ry="0.45287016" />
    <path
       style="fill:#b3b3b3;fill-rule:evenodd;stroke:none;stroke-width:1px;stroke-linecap:butt;stroke-linejoin:miter;stroke-opacity:1"
       d="m 20.673943,1037.4062 c -0.103017,-0.1867 0.630433,-0.2896 0.630433,-0.2896 l 0.72631,1.916 0.220077,0.2167 -0.05812,0.2106 0.609008,1.6064 c 0,0 0.575469,0.028 0.591033,0.1708 0.01903,0.175 -0.669837,0.2765 -0.669837,0.2765 l -0.755373,-2.0457 -0.213485,-0.1521 0.05894,-0.2665 -0.587359,-1.5907 c 0,0 -0.48737,0.064 -0.551629,-0.052 z"
       id="path4220"
       inkscape:connector-curvature="0"
       sodipodi:nodetypes="scccccscccccs" />
    <path
       style="fill:#b3b3b3;fill-rule:evenodd;stroke:none;stroke-width:1px;stroke-linecap:butt;stroke-linejoin:miter;stroke-opacity:1"
       d="m 16.801033,1037.2836 c 0.103017,-0.1867 -0.630433,-0.2896 -0.630433,-0.2896 l -0.72631,1.916 -0.220077,0.2167 0.05812,0.2106 -0.609008,1.6064 c 0,0 -0.575469,0.028 -0.591033,0.1708 -0.01903,0.175 0.669837,0.2765 0.669837,0.2765 l 0.755373,-2.0457 0.213485,-0.1521 -0.05894,-0.2665 0.587359,-1.5907 c 0,0 0.48737,0.064 0.551629,-0.052 z"
       id="path4220-5"
       inkscape:connector-curvature="0"
       sodipodi:nodetypes="scccccscccccs" />
    <path
       style="fill:#b3b3b3;fill-rule:evenodd;stroke:none;stroke-width:1px;stroke-linecap:butt;stroke-linejoin:miter;stroke-opacity:1"
       d="m 19.89823,1017.5899 c -0.103017,-0.1867 0.630433,-0.2896 0.630433,-0.2896 l 0.72631,1.916 0.220077,0.2167 -0.05812,0.2106 0.609008,1.6064 c 0,0 0.575469,0.028 0.591033,0.1708 0.01903,0.175 -0.669837,0.2765 -0.669837,0.2765 l -0.755373,-2.0457 -0.213485,-0.1521 0.05894,-0.2665 -0.587359,-1.5907 c 0,0 -0.48737,0.064 -0.551629,-0.052 z"
       id="path4220-7"
       inkscape:connector-curvature="0"
       sodipodi:nodetypes="scccccscccccs" />
    <path
       style="fill:#b3b3b3;fill-rule:evenodd;stroke:none;stroke-width:1px;stroke-linecap:butt;stroke-linejoin:miter;stroke-opacity:1"
       d="m 16.940771,1017.0253 c 0.103017,-0.1867 -0.630433,-0.2896 -0.630433,-0.2896 l -0.72631,1.916 -0.220077,0.2167 0.05812,0.2106 -0.609008,1.6064 c 0,0 -0.575469,0.028 -0.591033,0.1708 -0.01903,0.175 0.669837,0.2765 0.669837,0.2765 l 0.755373,-2.0457 0.213485,-0.1521 -0.05894,-0.2665 0.587359,-1.5907 c 0,0 0.48737,0.064 0.551629,-0.052 z"
       id="path4220-5-9"
       inkscape:connector-curvature="0"
       sodipodi:nodetypes="scccccscccccs" />
    <rect
       style="opacity:1;fill:#ececec;fill-opacity:1;stroke:none;stroke-width:0.1;stroke-miterlimit:4;stroke-dasharray:none;stroke-opacity:1"
       id="rect4255"
       width="2.2767856"
       height="0.49107143"
       x="17.321428"
       y="1034.1033" />
    <rect
       style="opacity:1;fill:#ececec;fill-opacity:1;stroke:none;stroke-width:0.1;stroke-miterlimit:4;stroke-dasharray:none;stroke-opacity:1"
       id="rect4255-8"
       width="2.2767856"
       height="0.49107143"
       x="17.120537"
       y="1033.0989" />
    <rect
       style="opacity:1;fill:#ececec;fill-opacity:1;stroke:none;stroke-width:0.1;stroke-miterlimit:4;stroke-dasharray:none;stroke-opacity:1"
       id="rect4255-8-3"
       width="2.2767856"
       height="0.49107143"
       x="17.254465"
       y="1032.2505" />
    <rect
       style="opacity:1;fill:#ececec;fill-opacity:1;stroke:none;stroke-width:0.1;stroke-miterlimit:4;stroke-dasharray:none;stroke-opacity:1"
       id="rect4255-8-3-5"
       width="2.2767856"
       height="0.49107143"
       x="17.209822"
       y="1030.4203" />
    <rect
       style="opacity:1;fill:#ececec;fill-opacity:1;stroke:none;stroke-width:0.1;stroke-miterlimit:4;stroke-dasharray:none;stroke-opacity:1"
       id="rect4255-8-3-5-7"
       width="2.2767856"
       height="0.49107143"
       x="17.254465"
       y="1028.322" />
    <rect
       style="opacity:1;fill:#ececec;fill-opacity:1;stroke:none;stroke-width:0.1;stroke-miterlimit:4;stroke-dasharray:none;stroke-opacity:1"
       id="rect4255-8-3-5-7-7"
       width="2.2767856"
       height="0.49107143"
       x="17.254465"
       y="1024.7059" />
    <rect
       style="opacity:1;fill:#ececec;fill-opacity:1;stroke:none;stroke-width:0.1;stroke-miterlimit:4;stroke-dasharray:none;stroke-opacity:1"
       id="rect4255-8-3-5-7-7-5"
       width="2.2767856"
       height="0.49107143"
       x="17.388393"
       y="1021.3577" />
    <rect
       style="opacity:1;fill:#ececec;fill-opacity:1;stroke:none;stroke-width:0.1;stroke-miterlimit:4;stroke-dasharray:none;stroke-opacity:1"
       id="rect4255-8-3-5-7-7-5-5"
       width="2.2767856"
       height="0.49107143"
       x="17.299107"
       y="1015.9113" />
    <rect
       style="opacity:1;fill:#ececec;fill-opacity:1;stroke:none;stroke-width:0.1;stroke-miterlimit:4;stroke-dasharray:none;stroke-opacity:1"
       id="rect4255-8-3-5-7-7-5-5-6"
       width="2.2767856"
       height="0.49107143"
       x="17.34375"
       y="1012.5631" />
  </g>
</svg>
