<?xml version="1.0" encoding="UTF-8" standalone="no"?>
<!-- Created with Inkscape (http://www.inkscape.org/) -->

<svg
   xmlns:dc="http://purl.org/dc/elements/1.1/"
   xmlns:cc="http://creativecommons.org/ns#"
   xmlns:rdf="http://www.w3.org/1999/02/22-rdf-syntax-ns#"
   xmlns:svg="http://www.w3.org/2000/svg"
   xmlns="http://www.w3.org/2000/svg"
   xmlns:sodipodi="http://sodipodi.sourceforge.net/DTD/sodipodi-0.dtd"
   xmlns:inkscape="http://www.inkscape.org/namespaces/inkscape"
   width="40"
   height="50"
   viewBox="0 0 40.000001 50.000001"
   id="svg2"
   version="1.1"
   inkscape:version="0.91 r13725"
   sodipodi:docname="myFrenchHornDesign.svg">
  <defs
     id="defs4" />
  <sodipodi:namedview
     id="base"
     pagecolor="#ffffff"
     bordercolor="#666666"
     borderopacity="1.0"
     inkscape:pageopacity="0.0"
     inkscape:pageshadow="2"
     inkscape:zoom="7.919596"
     inkscape:cx="15.492662"
     inkscape:cy="30.480085"
     inkscape:document-units="px"
     inkscape:current-layer="layer1"
     showgrid="false"
     units="px"
     inkscape:window-width="958"
     inkscape:window-height="1008"
     inkscape:window-x="953"
     inkscape:window-y="0"
     inkscape:window-maximized="0" />
  <metadata
     id="metadata7">
    <rdf:RDF>
      <cc:Work
         rdf:about="">
        <dc:format>image/svg+xml</dc:format>
        <dc:type
           rdf:resource="http://purl.org/dc/dcmitype/StillImage" />
        <dc:title />
      </cc:Work>
    </rdf:RDF>
  </metadata>
  <g
     inkscape:label="Ebene 1"
     inkscape:groupmode="layer"
     id="layer1"
     transform="translate(0,-1002.3622)">
    <path
       style="fill:#4d4d4d;fill-rule:evenodd;stroke:none;stroke-width:1px;stroke-linecap:butt;stroke-linejoin:miter;stroke-opacity:1"
       d="m 0.24012601,1027.9765 c 0,0 4.99433739,-4.4534 7.79234839,-6.4543 2.7714406,-1.9815 8.8523616,-4.8033 8.8523616,-4.8033 0,0 -1.09103,4.3946 -0.741379,6.3524 0.380653,2.1314 1.247628,5.8499 1.022798,7.6152 -0.457975,3.5959 1.050128,5.0609 2.348286,6.7692 1.213964,1.5974 1.589873,1.7569 3.128822,3.071 1.277893,1.0912 6.299512,0.6109 7.516775,-0.345 1.426129,-1.1199 6.105967,-4.1264 1.055403,-10.8888 -5.050564,-6.7624 -5.556416,-4.2892 -9.31565,-1.8415 -0.445776,0.951 -1.677549,2.0558 -2.198644,3.2358 -0.773347,1.7512 -0.626743,3.668 0.750434,5.4932 0.803338,1.0647 3.045625,2.7919 5.387854,3.3559 1.807471,0.4353 3.891529,-0.2053 4.070331,0 -0.701644,0.8395 -1.513933,1.268 -2.491813,1.2028 -0.977881,-0.065 -3.522718,2.6831 -8.496069,-4.3237 -3.914915,-5.5156 -1.424142,-8.1479 4.0352,-12.2702 1.840183,-1.3174 4.254134,-1.7507 6.546233,0.4713 1.183631,1.1474 2.6041,2.614 2.616279,1.9851 0.03397,-1.7539 -0.09939,-4.883 -0.15676,-6.1172 -0.0152,-0.3271 -0.203644,-0.655 -0.203644,-0.655 0.731165,-0.01 1.560824,0.031 1.560824,0.031 -0.0043,0.1928 -0.163987,0.5501 -0.166672,0.7576 -0.04071,3.1465 0.09463,7.7956 0.167293,7.9334 4.479503,8.0936 0.771191,12.0094 -2.540229,14.4005 -3.121531,2.2544 -6.540757,2.9227 -9.878078,0.6572 -8.426075,-5.7201 -8.14803,-8.153 -16.174293,-13.7844 -1.3249068,-0.9295 -4.48817638,-1.8524 -4.48817638,-1.8524 z"
       id="path4141"
       inkscape:connector-curvature="0"
       sodipodi:nodetypes="cscssssszcsssczscssscsscssscc" />
    <rect
       style="opacity:1;fill:#808080;fill-opacity:1;stroke:none;stroke-width:4.4000001;stroke-miterlimit:4;stroke-dasharray:none;stroke-opacity:1"
       id="rect4190"
       width="0.6809997"
       height="12.829984"
       x="-592.0694"
       y="859.89703"
       transform="matrix(0.82389537,-0.56674193,0.5902661,0.80720873,0,0)" />
    <rect
       style="opacity:1;fill:#808080;fill-opacity:1;stroke:none;stroke-width:4.4000001;stroke-miterlimit:4;stroke-dasharray:none;stroke-opacity:1"
       id="rect4192"
       width="0.625"
       height="8.3482141"
       x="-576.40015"
       y="850.74823"
       transform="matrix(0.81567902,-0.57850475,0.57850475,0.81567902,0,0)" />
    <rect
       style="opacity:1;fill:#808080;fill-opacity:1;stroke:none;stroke-width:4.4000001;stroke-miterlimit:4;stroke-dasharray:none;stroke-opacity:1"
       id="rect4194"
       width="0.44642857"
       height="5.7589283"
       x="-574.79297"
       y="850.65887"
       transform="matrix(0.81567902,-0.57850475,0.57850475,0.81567902,0,0)" />
    <rect
       style="opacity:1;fill:#808080;fill-opacity:1;stroke:none;stroke-width:4.4000001;stroke-miterlimit:4;stroke-dasharray:none;stroke-opacity:1"
       id="rect4196"
       width="8.3118896"
       height="0.89393532"
       x="-592.97443"
       y="870.61658"
       transform="matrix(0.82477925,-0.56545485,0.59155284,0.80626623,0,0)" />
    <rect
       style="opacity:1;fill:#808080;fill-opacity:1;stroke:none;stroke-width:4.4000001;stroke-miterlimit:4;stroke-dasharray:none;stroke-opacity:1"
       id="rect4196-2"
       width="9.0351295"
       height="0.70901537"
       x="-599.99976"
       y="872.99512"
       transform="matrix(0.82890458,-0.55939002,0.5976155,0.80178284,0,0)" />
    <rect
       style="opacity:1;fill:#808080;fill-opacity:1;stroke:none;stroke-width:4.4000001;stroke-miterlimit:4;stroke-dasharray:none;stroke-opacity:1"
       id="rect4196-2-1"
       width="8.7263947"
       height="0.71209222"
       x="-565.47113"
       y="847.06708"
       transform="matrix(0.80625711,-0.59156528,0.56544241,0.82478778,0,0)" />
    <rect
       style="opacity:1;fill:#808080;fill-opacity:1;stroke:none;stroke-width:4.4000001;stroke-miterlimit:4;stroke-dasharray:none;stroke-opacity:1"
       id="rect4196-2-1-8"
       width="8.5052242"
       height="0.77781785"
       x="-438.50311"
       y="877.02441"
       inkscape:transform-center-x="-0.74952225"
       inkscape:transform-center-y="2.081597"
       transform="matrix(0.83251393,-0.55400412,0.44015967,0.89791952,0,0)" />
    <circle
       style="opacity:1;fill:#666666;fill-opacity:1;stroke:none;stroke-width:4.4000001;stroke-miterlimit:4;stroke-dasharray:none;stroke-opacity:1"
       id="path4143-0-1"
       cx="-572.65015"
       cy="856.32855"
       r="1"
       transform="matrix(0.81567902,-0.57850475,0.57850475,0.81567902,0,0)" />
    <circle
       style="opacity:1;fill:#666666;fill-opacity:1;stroke:none;stroke-width:4.4000001;stroke-miterlimit:4;stroke-dasharray:none;stroke-opacity:1"
       id="path4143-0"
       cx="-572.7171"
       cy="859.29742"
       r="1"
       transform="matrix(0.81567902,-0.57850475,0.57850475,0.81567902,0,0)" />
    <circle
       style="opacity:1;fill:#666666;fill-opacity:1;stroke:none;stroke-width:4.4000001;stroke-miterlimit:4;stroke-dasharray:none;stroke-opacity:1"
       id="path4143"
       cx="-572.73944"
       cy="861.84198"
       r="1"
       transform="matrix(0.81567902,-0.57850475,0.57850475,0.81567902,0,0)" />
    <circle
       style="opacity:1;fill:#666666;fill-opacity:1;stroke:none;stroke-width:4.4000001;stroke-miterlimit:4;stroke-dasharray:none;stroke-opacity:1"
       id="path4143-0-1-1"
       cx="-572.44922"
       cy="853.18146"
       r="1"
       transform="matrix(0.81567902,-0.57850475,0.57850475,0.81567902,0,0)" />
  </g>
</svg>
