<?xml version="1.0" encoding="UTF-8" standalone="no"?>
<!-- Created with Inkscape (http://www.inkscape.org/) -->

<svg
   xmlns:dc="http://purl.org/dc/elements/1.1/"
   xmlns:cc="http://creativecommons.org/ns#"
   xmlns:rdf="http://www.w3.org/1999/02/22-rdf-syntax-ns#"
   xmlns:svg="http://www.w3.org/2000/svg"
   xmlns="http://www.w3.org/2000/svg"
   xmlns:sodipodi="http://sodipodi.sourceforge.net/DTD/sodipodi-0.dtd"
   xmlns:inkscape="http://www.inkscape.org/namespaces/inkscape"
   width="40"
   height="50"
   viewBox="0 0 40.000001 50.000001"
   id="svg2"
   version="1.1"
   inkscape:version="0.91 r13725"
   sodipodi:docname="myHarpDesign.svg">
  <defs
     id="defs4" />
  <sodipodi:namedview
     id="base"
     pagecolor="#ffffff"
     bordercolor="#666666"
     borderopacity="1.0"
     inkscape:pageopacity="0.0"
     inkscape:pageshadow="2"
     inkscape:zoom="11.2"
     inkscape:cx="19.151976"
     inkscape:cy="18.074991"
     inkscape:document-units="px"
     inkscape:current-layer="layer1"
     showgrid="false"
     units="px"
     inkscape:window-width="1920"
     inkscape:window-height="1017"
     inkscape:window-x="-8"
     inkscape:window-y="-8"
     inkscape:window-maximized="1" />
  <metadata
     id="metadata7">
    <rdf:RDF>
      <cc:Work
         rdf:about="">
        <dc:format>image/svg+xml</dc:format>
        <dc:type
           rdf:resource="http://purl.org/dc/dcmitype/StillImage" />
        <dc:title />
      </cc:Work>
    </rdf:RDF>
  </metadata>
  <g
     inkscape:label="Ebene 1"
     inkscape:groupmode="layer"
     id="layer1"
     transform="translate(0,-1002.3622)">
    <path
       style="fill:#cccccc;fill-opacity:1;fill-rule:evenodd;stroke:none;stroke-width:1px;stroke-linecap:butt;stroke-linejoin:miter;stroke-opacity:1"
       d="m 9.9068686,1041.8712 c 0,0 -1.1746605,2.3978 0.2022154,2.3659 0.545787,-0.013 6.440674,-0.032 7.799967,0.034 1.847302,0.09 1.209002,-2.6133 0.046,-2.445 -1.12008,0.1621 -2.022157,3e-4 -2.022157,3e-4 l 20.626005,-20.7142 c 0,0 0.647387,-1.5122 0.285135,-1.9121 -0.762604,-0.8418 -3.035268,0.1263 -3.035268,0.1263 0,0 -4.013316,2.6472 -6.511348,1.8304 -2.812752,-0.9198 -3.00677,-5.7131 -5.459825,-7.3661 -2.306459,-1.5542 -9.159778,-2.8337 -9.159778,-2.8337 l -0.0073,-1.1265 -2.485395,0.032 0.07149,2.022 c 0.606647,0.044 0.0143,0.032 0.620946,0.076 l 1.739055,0.759 c 0,0 5.8765,1.4247 8.331289,3.2143 2.436565,1.7763 3.088124,6.2926 5.9047,7.1428 3.019183,0.9114 7.360653,-1.875 7.360653,-1.875 l -21.61444,18.7273 0.0178,1.9871 -1.780917,-0.029 z"
       id="path4134"
       inkscape:connector-curvature="0"
       sodipodi:nodetypes="csssccscssccccccssccccc" />
    <rect
       style="opacity:1;fill:#cccccc;fill-opacity:1;stroke:none;stroke-width:0.1;stroke-miterlimit:4;stroke-dasharray:none;stroke-opacity:1"
       id="rect4136"
       width="1.8118531"
       height="30.999056"
       x="10.861041"
       y="1010.9923" />
    <path
       style="fill:#999999;fill-opacity:1;fill-rule:evenodd;stroke:none;stroke-width:1px;stroke-linecap:butt;stroke-linejoin:miter;stroke-opacity:1"
       d="m 12.679572,1016.7372 3.95628,19.8737 -0.515037,0.4426 -3.429187,-18.0237 c -0.0081,-0.7916 0.01688,-1.5261 -0.01206,-2.2926 z"
       id="path4155"
       inkscape:connector-curvature="0"
       sodipodi:nodetypes="ccccc" />
    <path
       style="fill:#999999;fill-opacity:1;fill-rule:evenodd;stroke:none;stroke-width:1px;stroke-linecap:butt;stroke-linejoin:miter;stroke-opacity:1"
       d="m 12.69091,1013.7442 4.896583,22.1048 -0.49542,0.466 -4.38578,-20.5659 c -0.01029,-0.8734 0.02153,-1.1592 -0.01538,-2.0049 z"
       id="path4155-6"
       inkscape:connector-curvature="0"
       sodipodi:nodetypes="ccccc" />
    <path
       style="fill:#999999;fill-opacity:1;fill-rule:evenodd;stroke:none;stroke-width:1px;stroke-linecap:butt;stroke-linejoin:miter;stroke-opacity:1"
       d="m 13.680032,1012.9718 4.857875,22.0402 -0.525752,0.4214 -4.931589,-22.568 z"
       id="path4155-6-5"
       inkscape:connector-curvature="0"
       sodipodi:nodetypes="ccccc" />
    <path
       style="fill:#999999;fill-opacity:1;fill-rule:evenodd;stroke:none;stroke-width:1px;stroke-linecap:butt;stroke-linejoin:miter;stroke-opacity:1"
       d="m 14.895658,1013.2326 4.544441,20.9688 -0.475198,0.399 -4.668708,-21.4742 z"
       id="path4155-6-5-2"
       inkscape:connector-curvature="0"
       sodipodi:nodetypes="ccccc" />
    <path
       style="fill:#999999;fill-opacity:1;fill-rule:evenodd;stroke:none;stroke-width:1px;stroke-linecap:butt;stroke-linejoin:miter;stroke-opacity:1"
       d="m 16.149396,1013.6791 4.251228,19.6741 -0.444865,0.3879 -4.405828,-20.1684 z"
       id="path4155-6-5-2-8"
       inkscape:connector-curvature="0"
       sodipodi:nodetypes="ccccc" />
    <path
       style="fill:#999999;fill-opacity:1;fill-rule:evenodd;stroke:none;stroke-width:1px;stroke-linecap:butt;stroke-linejoin:miter;stroke-opacity:1"
       d="m 17.281803,1014.0362 3.998458,18.5581 -0.454976,0.4102 -4.142947,-19.0747 z"
       id="path4155-6-5-2-8-2"
       inkscape:connector-curvature="0"
       sodipodi:nodetypes="ccccc" />
    <path
       style="fill:#999999;fill-opacity:1;fill-rule:evenodd;stroke:none;stroke-width:1px;stroke-linecap:butt;stroke-linejoin:miter;stroke-opacity:1"
       d="m 18.527485,1014.6548 3.611795,17.1968 -0.485309,0.4437 -3.768848,-17.9363 z"
       id="path4155-6-5-2-8-2-6"
       inkscape:connector-curvature="0"
       sodipodi:nodetypes="ccccc" />
    <path
       style="fill:#999999;fill-opacity:1;fill-rule:evenodd;stroke:none;stroke-width:1px;stroke-linecap:butt;stroke-linejoin:miter;stroke-opacity:1"
       d="m 19.827714,1015.2193 3.310206,15.8305 -0.616749,0.4549 -3.364416,-16.597 z"
       id="path4155-6-5-2-8-2-6-2"
       inkscape:connector-curvature="0"
       sodipodi:nodetypes="ccccc" />
    <path
       style="fill:#999999;fill-opacity:1;fill-rule:evenodd;stroke:none;stroke-width:1px;stroke-linecap:butt;stroke-linejoin:miter;stroke-opacity:1"
       d="m 21.257597,1016.1506 2.990848,13.9343 -0.606638,0.4772 -3.012274,-14.9125 z"
       id="path4155-6-5-2-8-2-6-2-5"
       inkscape:connector-curvature="0"
       sodipodi:nodetypes="ccccc" />
    <path
       style="fill:#999999;fill-opacity:1;fill-rule:evenodd;stroke:none;stroke-width:1px;stroke-linecap:butt;stroke-linejoin:miter;stroke-opacity:1"
       d="m 23.293955,1018.9885 2.298388,9.953 -0.7385,0.5923 -2.416732,-12.0091 z"
       id="path4155-6-5-2-8-2-6-2-5-2"
       inkscape:connector-curvature="0"
       sodipodi:nodetypes="ccccc" />
    <path
       style="fill:#999999;fill-opacity:1;fill-rule:evenodd;stroke:none;stroke-width:1px;stroke-linecap:butt;stroke-linejoin:miter;stroke-opacity:1"
       d="m 25.071175,1021.9101 1.569149,5.9755 -0.609811,0.4976 -1.816182,-7.9369 z"
       id="path4155-6-5-2-8-2-6-2-5-2-5"
       inkscape:connector-curvature="0"
       sodipodi:nodetypes="ccccc" />
    <path
       style="fill:#999999;fill-rule:evenodd;stroke:none;stroke-width:1px;stroke-linecap:butt;stroke-linejoin:miter;stroke-opacity:1"
       d="m 26.163717,1022.7575 0.672043,0.3472 0.986619,3.8355 -0.557654,0.4103 z"
       id="path4337"
       inkscape:connector-curvature="0" />
    <path
       style="fill:#999999;fill-rule:evenodd;stroke:none;stroke-width:1px;stroke-linecap:butt;stroke-linejoin:miter;stroke-opacity:1"
       d="m 27.908172,1023.1758 0.643569,0.022 0.586128,2.5832 -0.479873,0.3942 z"
       id="path4337-2"
       inkscape:connector-curvature="0"
       sodipodi:nodetypes="ccccc" />
    <path
       style="fill:#999999;fill-rule:evenodd;stroke:none;stroke-width:1px;stroke-linecap:butt;stroke-linejoin:miter;stroke-opacity:1"
       d="m 29.223662,1022.9309 0.553769,0.016 0.504342,1.9171 -0.412913,0.2926 z"
       id="path4337-2-5"
       inkscape:connector-curvature="0"
       sodipodi:nodetypes="ccccc" />
  </g>
</svg>
