<?xml version="1.0" encoding="UTF-8" standalone="no"?>
<!-- Created with Inkscape (http://www.inkscape.org/) -->

<svg
   xmlns:dc="http://purl.org/dc/elements/1.1/"
   xmlns:cc="http://creativecommons.org/ns#"
   xmlns:rdf="http://www.w3.org/1999/02/22-rdf-syntax-ns#"
   xmlns:svg="http://www.w3.org/2000/svg"
   xmlns="http://www.w3.org/2000/svg"
   xmlns:sodipodi="http://sodipodi.sourceforge.net/DTD/sodipodi-0.dtd"
   xmlns:inkscape="http://www.inkscape.org/namespaces/inkscape"
   width="40"
   height="50"
   viewBox="0 0 40.000001 50.000001"
   id="svg2"
   version="1.1"
   inkscape:version="0.91 r13725"
   sodipodi:docname="myHarpsichordDesign.svg">
  <defs
     id="defs4" />
  <sodipodi:namedview
     id="base"
     pagecolor="#ffffff"
     bordercolor="#666666"
     borderopacity="1.0"
     inkscape:pageopacity="0.0"
     inkscape:pageshadow="2"
     inkscape:zoom="11.313709"
     inkscape:cx="25.036582"
     inkscape:cy="30.45178"
     inkscape:document-units="px"
     inkscape:current-layer="layer1"
     showgrid="false"
     units="px"
     inkscape:window-width="1920"
     inkscape:window-height="1017"
     inkscape:window-x="-8"
     inkscape:window-y="-8"
     inkscape:window-maximized="1" />
  <metadata
     id="metadata7">
    <rdf:RDF>
      <cc:Work
         rdf:about="">
        <dc:format>image/svg+xml</dc:format>
        <dc:type
           rdf:resource="http://purl.org/dc/dcmitype/StillImage" />
        <dc:title />
      </cc:Work>
    </rdf:RDF>
  </metadata>
  <g
     inkscape:label="Ebene 1"
     inkscape:groupmode="layer"
     id="layer1"
     transform="translate(0,-1002.3622)">
    <path
       style="fill:#4d4d4d;fill-rule:evenodd;stroke:none;stroke-width:0.1;stroke-linecap:butt;stroke-linejoin:miter;stroke-miterlimit:4;stroke-dasharray:none;stroke-opacity:1;fill-opacity:1;opacity:1"
       d="m 6.9196428,1028.1323 c 0,0 0.1290636,0.089 0.1235267,0.2779 -0.00853,0.2908 -0.1522664,0.7529 -0.1458487,0.9833 0.018139,0.6513 0.1140133,1.3361 0.2232143,1.9419 0.2145458,1.1902 0.7974567,3.0681 0.8035714,3.538 0.014135,1.0861 -0.6473214,3.0692 -0.6473214,3.0692 l 0.3125,0.625 0.2678574,0.045 c 0,0 0.5999367,-2.5571 0.6584821,-3.8616 0.021084,-0.4698 -0.1562503,-1.5179 -0.1562503,-1.5179 -0.06491,-0.5792 -0.2084763,-0.5771 -0.3013392,-1.7075 -0.048793,-0.594 0.019993,-1.1938 0.089286,-1.7857 0.047511,-0.4059 0.2901786,-1.1273 0.2901786,-1.1273 l 4.4642863,3.7054 -0.04194,0.6015 0.474822,4.4011 c 0,0 0.244744,1.6465 0.301083,2.476 0.07896,1.1626 0.05111,3.4953 0.05111,3.4953 l 0.738194,0.097 0.112728,-5.331 c 0,0 -0.101499,-1.6842 -0.02615,-2.5212 0.08437,-0.9374 0.533006,-2.7728 0.533006,-2.7728 0,0 0.584894,-0.6591 0.987559,-0.7171 0.748658,-0.1076 1.329178,0.7725 2.058523,0.7459 0.473975,-0.017 1.138441,-0.7057 1.184173,-1.3201 0.02173,-0.2919 0.377077,0.7993 1.041284,0.6439 0.554595,-0.1297 1.154212,-1.0044 1.73514,-1.3617 0.677159,-0.4165 0.900686,-0.3681 0.900686,-0.3681 0,0 0.429371,0.1813 0.557354,0.3622 0.416813,0.5891 0.402468,2.0931 0.402468,2.0931 0,0 -0.314787,2.1147 -0.351562,3.1808 -0.04056,1.1759 0.07267,2.3018 0.245535,3.4375 0.11502,0.7556 0.156279,1.385 0.412947,2.048 l 0.457589,0.011 c 0,0 -0.555172,-2.8917 -0.524553,-4.3528 0.02515,-1.2003 0.493332,-2.4361 0.597098,-3.6718 0.122503,-1.4588 -0.0081,-2.9653 0.100444,-4.4754 0.03412,-0.4747 0.732844,0.1069 1.230715,-0.2674 0.248497,-0.1869 0.199737,-1.3744 0.486465,-1.5291 0.45762,-0.2468 0.162583,0.8682 0.566251,0.7823 0.504307,-0.1074 1.474587,-2.0132 1.572595,-1.67 0.172229,0.6031 0.404239,1.7167 0.517222,2.5898 0.108714,0.84 -0.008,1.9827 0.02172,3.1093 0.01,0.3778 0.398554,3.8545 0.398554,3.8545 l 0.430181,0.016 c 0,0 0.227861,-0.4197 0.225548,-0.6486 -0.0021,-0.2083 -0.20373,-0.1228 -0.311023,-0.372 -0.128445,-0.2983 -4.07e-4,-3.9224 -4.07e-4,-3.9224 0.08611,-1.8618 0.102129,-2.2908 0.236058,-4.9396 0,0 0.32723,-0.7078 0.622588,-0.9403 0.317064,-0.2496 1.945519,1.0984 1.82236,-0.6752 -0.01356,-0.1953 0.254104,0.4749 0.748881,0.3543 0.361671,-0.088 0.880586,-1.1527 1.246962,-1.3934 0.415596,-0.2729 0.205307,0.6489 0.205307,0.6489 0,0 0.109419,1.3779 0.08605,2.0671 -0.02772,0.8173 -0.321854,1.6226 -0.267857,2.4386 0.06983,1.0552 0.675223,3.2199 0.675223,3.2199 l 0.373884,0.039 0.02651,-0.5352 -0.192768,-0.2839 c 0,0 -0.391244,-1.3379 -0.408514,-2.027 -0.03365,-1.3425 0.616829,-2.6415 0.597098,-3.9843 -0.01253,-0.8528 -0.04144,-1.9964 -0.07259,-3.1241 -0.0029,-0.1045 0.36251,-0.181 0.359596,-0.285 -0.0051,-0.1824 -0.376069,-0.2803 -0.386792,-0.4595 -0.106271,-1.7763 -0.112262,-3.7765 -0.112262,-3.7765 l -1.054688,-0.8761 -0.217633,-3.0023 -9.631697,-3.0747 1.116071,-4.4197 -7.991071,0.2679 -3.113839,13.5937 -7.7079919,1.3062 0.01826,4.8769 c 0,0 -0.5614386,-0 -0.4750555,0.1418 0.1988889,0.3344 0.4304126,0.5725 0.4304126,0.5725 z"
       id="path4332"
       inkscape:connector-curvature="0"
       sodipodi:nodetypes="csssscccscssccccscccscssssscscssccsssssssssccssccsssscssccccssssscccccccccscc" />
    <path
       style="opacity:1;fill:#4d4d4d;fill-rule:evenodd;stroke:#000000;stroke-width:0.1;stroke-linecap:butt;stroke-linejoin:miter;stroke-miterlimit:4;stroke-dasharray:none;stroke-opacity:1"
       d="m 13.459821,1029.5943 c -0.15625,-0.1785 -6.272321,-4.4642 -6.272321,-4.4642 l 0,-3.884 7.5,-1.25 3.216529,-13.681 c 0,0 2.013145,1.8479 3.178952,2.542 1.091367,0.6498 3.51041,1.482 3.51041,1.482 l 9.580716,3.1842 0.223214,2.9911 1.026786,0.8705 -8.214286,3.1027 -2.879464,2.2768 -10.870536,2.3214 z"
       id="path4334"
       inkscape:connector-curvature="0"
       sodipodi:nodetypes="cccccscccccccc" />
    <path
       style="fill:#ada3a3;fill-rule:evenodd;stroke:none;stroke-width:1px;stroke-linecap:butt;stroke-linejoin:miter;stroke-opacity:1;fill-opacity:1"
       d="m 13.412932,1028.9945 -5.9220195,-4.1432 0.033146,-0.5082 1.7125242,-0.5082 0.022097,-1.0165 1.8782523,-0.4972 -0.01105,-0.3535 4.386272,2.6516 -2.099223,0.4309 z"
       id="path4576"
       inkscape:connector-curvature="0" />
    <path
       style="fill:#e6e6e6;fill-opacity:1;fill-rule:evenodd;stroke:none;stroke-width:1px;stroke-linecap:butt;stroke-linejoin:miter;stroke-opacity:1"
       d="m 7.5446429,1024.3711 1.6964284,-0.5245 4.1406247,2.7009 0.01116,1.8973 z"
       id="path4336"
       inkscape:connector-curvature="0"
       sodipodi:nodetypes="ccccc" />
    <path
       style="fill:#999999;fill-rule:evenodd;stroke:none;stroke-width:1px;stroke-linecap:butt;stroke-linejoin:miter;stroke-opacity:1"
       d="m 8.5310539,1024.4252 0.1534542,0.1068 1.0066428,-0.4025 -0.2054252,-0.1186 z"
       id="path4338"
       inkscape:connector-curvature="0"
       sodipodi:nodetypes="ccccc" />
    <path
       style="fill:#999999;fill-rule:evenodd;stroke:none;stroke-width:1px;stroke-linecap:butt;stroke-linejoin:miter;stroke-opacity:1"
       d="m 8.8457328,1024.6292 0.1534542,0.1068 1.006643,-0.4025 -0.2054254,-0.1186 z"
       id="path4338-6"
       inkscape:connector-curvature="0"
       sodipodi:nodetypes="ccccc" />
    <path
       style="fill:#999999;fill-rule:evenodd;stroke:none;stroke-width:1px;stroke-linecap:butt;stroke-linejoin:miter;stroke-opacity:1"
       d="m 9.1894827,1024.8558 0.1534543,0.1068 1.006642,-0.4025 -0.205425,-0.1186 z"
       id="path4338-6-4"
       inkscape:connector-curvature="0"
       sodipodi:nodetypes="ccccc" />
    <path
       style="fill:#999999;fill-rule:evenodd;stroke:none;stroke-width:1px;stroke-linecap:butt;stroke-linejoin:miter;stroke-opacity:1"
       d="m 9.4629205,1025.0394 0.1534543,0.1068 1.0066422,-0.4025 -0.205425,-0.1186 z"
       id="path4338-6-4-3"
       inkscape:connector-curvature="0"
       sodipodi:nodetypes="ccccc" />
    <path
       style="fill:#999999;fill-rule:evenodd;stroke:none;stroke-width:1px;stroke-linecap:butt;stroke-linejoin:miter;stroke-opacity:1"
       d="m 9.8262018,1025.266 0.1534543,0.1068 1.0066419,-0.4025 -0.205425,-0.1186 z"
       id="path4338-6-4-0"
       inkscape:connector-curvature="0"
       sodipodi:nodetypes="ccccc" />
    <path
       style="fill:#999999;fill-rule:evenodd;stroke:none;stroke-width:1px;stroke-linecap:butt;stroke-linejoin:miter;stroke-opacity:1"
       d="m 10.224639,1025.5237 0.153455,0.1068 1.006642,-0.4025 -0.205425,-0.1186 z"
       id="path4338-6-4-0-8"
       inkscape:connector-curvature="0"
       sodipodi:nodetypes="ccccc" />
    <path
       style="fill:#999999;fill-rule:evenodd;stroke:none;stroke-width:1px;stroke-linecap:butt;stroke-linejoin:miter;stroke-opacity:1"
       d="m 10.521514,1025.7347 0.153455,0.1068 1.006642,-0.4025 -0.205425,-0.1186 z"
       id="path4338-6-4-0-8-4"
       inkscape:connector-curvature="0"
       sodipodi:nodetypes="ccccc" />
    <path
       style="fill:#999999;fill-rule:evenodd;stroke:none;stroke-width:1px;stroke-linecap:butt;stroke-linejoin:miter;stroke-opacity:1"
       d="m 10.849638,1025.9535 0.153455,0.1068 1.006642,-0.4025 -0.205425,-0.1186 z"
       id="path4338-6-4-0-8-4-1"
       inkscape:connector-curvature="0"
       sodipodi:nodetypes="ccccc" />
    <path
       style="fill:#999999;fill-rule:evenodd;stroke:none;stroke-width:1px;stroke-linecap:butt;stroke-linejoin:miter;stroke-opacity:1"
       d="m 11.224638,1026.1722 0.153455,0.1068 1.006642,-0.4025 -0.205425,-0.1186 z"
       id="path4338-6-4-0-8-4-1-9"
       inkscape:connector-curvature="0"
       sodipodi:nodetypes="ccccc" />
    <path
       style="fill:#999999;fill-rule:evenodd;stroke:none;stroke-width:1px;stroke-linecap:butt;stroke-linejoin:miter;stroke-opacity:1"
       d="m 11.591826,1026.3988 0.153455,0.1068 1.006642,-0.4025 -0.205425,-0.1186 z"
       id="path4338-6-4-0-8-4-1-9-1"
       inkscape:connector-curvature="0"
       sodipodi:nodetypes="ccccc" />
    <path
       style="fill:#999999;fill-rule:evenodd;stroke:none;stroke-width:1px;stroke-linecap:butt;stroke-linejoin:miter;stroke-opacity:1"
       d="m 11.974639,1026.6878 0.153455,0.1068 1.006642,-0.4025 -0.205425,-0.1186 z"
       id="path4338-6-4-0-8-4-1-9-1-5"
       inkscape:connector-curvature="0"
       sodipodi:nodetypes="ccccc" />
    <path
       style="fill:#999999;fill-rule:evenodd;stroke:none;stroke-width:1px;stroke-linecap:butt;stroke-linejoin:miter;stroke-opacity:1"
       d="m 12.248076,1026.8831 0.153455,0.1068 1.006642,-0.4025 -0.205425,-0.1186 z"
       id="path4338-6-4-0-8-4-1-9-1-5-6"
       inkscape:connector-curvature="0"
       sodipodi:nodetypes="ccccc" />
    <path
       style="fill:#999999;fill-rule:evenodd;stroke:none;stroke-width:1px;stroke-linecap:butt;stroke-linejoin:miter;stroke-opacity:1;fill-opacity:1"
       d="m 12.710938,1027.1825 0.113281,0.1055 0.574219,-0.3477 -0.0078,-0.1836 z"
       id="path4520"
       inkscape:connector-curvature="0" />
    <path
       style="fill:#e6e6e6;fill-opacity:1;fill-rule:evenodd;stroke:none;stroke-width:1px;stroke-linecap:butt;stroke-linejoin:miter;stroke-opacity:1"
       d="m 9.2520975,1022.8242 1.8732045,-0.5024 3.665959,2.4095 -1.387278,0.3192 0.0065,0.4494 z"
       id="path4336-9"
       inkscape:connector-curvature="0"
       sodipodi:nodetypes="cccccc" />
    <path
       style="fill:#999999;fill-rule:evenodd;stroke:none;stroke-width:1px;stroke-linecap:butt;stroke-linejoin:miter;stroke-opacity:1"
       d="m 10.448431,1022.9059 0.153454,0.1068 1.006643,-0.4025 -0.205425,-0.1186 z"
       id="path4338-1"
       inkscape:connector-curvature="0"
       sodipodi:nodetypes="ccccc" />
    <path
       style="fill:#999999;fill-rule:evenodd;stroke:none;stroke-width:1px;stroke-linecap:butt;stroke-linejoin:miter;stroke-opacity:1"
       d="m 10.76311,1023.1099 0.153454,0.1068 1.006643,-0.4025 -0.205425,-0.1186 z"
       id="path4338-6-0"
       inkscape:connector-curvature="0"
       sodipodi:nodetypes="ccccc" />
    <path
       style="fill:#999999;fill-rule:evenodd;stroke:none;stroke-width:1px;stroke-linecap:butt;stroke-linejoin:miter;stroke-opacity:1"
       d="m 11.10686,1023.3365 0.153454,0.1068 1.006642,-0.4025 -0.205425,-0.1186 z"
       id="path4338-6-4-2"
       inkscape:connector-curvature="0"
       sodipodi:nodetypes="ccccc" />
    <path
       style="fill:#999999;fill-rule:evenodd;stroke:none;stroke-width:1px;stroke-linecap:butt;stroke-linejoin:miter;stroke-opacity:1"
       d="m 11.380298,1023.5201 0.153454,0.1068 1.006642,-0.4025 -0.205425,-0.1186 z"
       id="path4338-6-4-3-7"
       inkscape:connector-curvature="0"
       sodipodi:nodetypes="ccccc" />
    <path
       style="fill:#999999;fill-rule:evenodd;stroke:none;stroke-width:1px;stroke-linecap:butt;stroke-linejoin:miter;stroke-opacity:1"
       d="m 11.743579,1023.7467 0.153454,0.1068 1.006642,-0.4025 -0.205425,-0.1186 z"
       id="path4338-6-4-0-5"
       inkscape:connector-curvature="0"
       sodipodi:nodetypes="ccccc" />
    <path
       style="fill:#999999;fill-rule:evenodd;stroke:none;stroke-width:1px;stroke-linecap:butt;stroke-linejoin:miter;stroke-opacity:1"
       d="m 12.142016,1024.0044 0.153455,0.1068 1.006642,-0.4025 -0.205425,-0.1186 z"
       id="path4338-6-4-0-8-9"
       inkscape:connector-curvature="0"
       sodipodi:nodetypes="ccccc" />
    <path
       style="fill:#999999;fill-rule:evenodd;stroke:none;stroke-width:1px;stroke-linecap:butt;stroke-linejoin:miter;stroke-opacity:1"
       d="m 12.438891,1024.2154 0.153455,0.1068 1.006642,-0.4025 -0.205425,-0.1186 z"
       id="path4338-6-4-0-8-4-17"
       inkscape:connector-curvature="0"
       sodipodi:nodetypes="ccccc" />
    <path
       style="fill:#999999;fill-rule:evenodd;stroke:none;stroke-width:1px;stroke-linecap:butt;stroke-linejoin:miter;stroke-opacity:1"
       d="m 12.767015,1024.4342 0.153455,0.1068 1.006642,-0.4025 -0.205425,-0.1186 z"
       id="path4338-6-4-0-8-4-1-0"
       inkscape:connector-curvature="0"
       sodipodi:nodetypes="ccccc" />
    <path
       style="fill:#999999;fill-rule:evenodd;stroke:none;stroke-width:1px;stroke-linecap:butt;stroke-linejoin:miter;stroke-opacity:1"
       d="m 13.142015,1024.6529 0.153455,0.1068 1.006642,-0.4025 -0.205425,-0.1186 z"
       id="path4338-6-4-0-8-4-1-9-5"
       inkscape:connector-curvature="0"
       sodipodi:nodetypes="ccccc" />
    <path
       style="fill:#666666;fill-opacity:1;fill-rule:evenodd;stroke:none;stroke-width:1px;stroke-linecap:butt;stroke-linejoin:miter;stroke-opacity:1"
       d="m 23.693782,1022.8736 -8.725032,-2.8864 19.25,-3.4375 -0.21875,-2.875 -12.03125,-4.1562 -4.03125,-2.9375 -3.21875,13.5937 8.344019,2.811 z"
       id="path4578"
       inkscape:connector-curvature="0"
       sodipodi:nodetypes="ccccccccc" />
    <path
       style="fill:#4d4d4d;fill-opacity:1;fill-rule:evenodd;stroke:none;stroke-width:1px;stroke-linecap:butt;stroke-linejoin:miter;stroke-opacity:1"
       d="m 13.766485,1029.5359 0,-4.1763 10.540311,-2.3423 -0.132583,3.7122 z"
       id="path4580"
       inkscape:connector-curvature="0"
       sodipodi:nodetypes="ccccc" />
    <path
       style="fill:#666666;fill-opacity:1;fill-rule:evenodd;stroke:none;stroke-width:1px;stroke-linecap:butt;stroke-linejoin:miter;stroke-opacity:1"
       d="m 11.125,1021.9247 0,-1.2812 1.400341,0.73 5.193409,2.7075 -2.203125,0.5625 z"
       id="path4582"
       inkscape:connector-curvature="0"
       sodipodi:nodetypes="cccccc" />
    <path
       style="fill:#808080;fill-opacity:1;fill-rule:evenodd;stroke:none;stroke-width:1px;stroke-linecap:butt;stroke-linejoin:miter;stroke-opacity:1"
       d="m 11.136932,1020.6308 6.573883,3.5024 5.380641,-1.1601 -8.441087,-2.9058 z"
       id="path4584"
       inkscape:connector-curvature="0"
       sodipodi:nodetypes="ccccc" />
  </g>
</svg>
