<?xml version="1.0" encoding="UTF-8" standalone="no"?>
<!-- Created with Inkscape (http://www.inkscape.org/) -->

<svg
   xmlns:dc="http://purl.org/dc/elements/1.1/"
   xmlns:cc="http://creativecommons.org/ns#"
   xmlns:rdf="http://www.w3.org/1999/02/22-rdf-syntax-ns#"
   xmlns:svg="http://www.w3.org/2000/svg"
   xmlns="http://www.w3.org/2000/svg"
   xmlns:sodipodi="http://sodipodi.sourceforge.net/DTD/sodipodi-0.dtd"
   xmlns:inkscape="http://www.inkscape.org/namespaces/inkscape"
   width="40"
   height="50"
   viewBox="0 0 40.000001 50.000001"
   id="svg2"
   version="1.1"
   inkscape:version="0.91 r13725"
   sodipodi:docname="mySaxDesign.svg">
  <defs
     id="defs4" />
  <sodipodi:namedview
     id="base"
     pagecolor="#ffffff"
     bordercolor="#666666"
     borderopacity="1.0"
     inkscape:pageopacity="0.0"
     inkscape:pageshadow="2"
     inkscape:zoom="5.6"
     inkscape:cx="-62.718717"
     inkscape:cy="39.169827"
     inkscape:document-units="px"
     inkscape:current-layer="layer1"
     showgrid="false"
     units="px"
     inkscape:window-width="1920"
     inkscape:window-height="1017"
     inkscape:window-x="-8"
     inkscape:window-y="-8"
     inkscape:window-maximized="1" />
  <metadata
     id="metadata7">
    <rdf:RDF>
      <cc:Work
         rdf:about="">
        <dc:format>image/svg+xml</dc:format>
        <dc:type
           rdf:resource="http://purl.org/dc/dcmitype/StillImage" />
        <dc:title />
      </cc:Work>
    </rdf:RDF>
  </metadata>
  <g
     inkscape:label="Ebene 1"
     inkscape:groupmode="layer"
     id="layer1"
     transform="translate(0,-1002.3622)">
    <path
       style="fill:#4d4d4d;fill-rule:evenodd;stroke:none;stroke-width:1px;stroke-linecap:butt;stroke-linejoin:miter;stroke-opacity:1"
       d="m 17.425131,1007.2842 2.272844,2.3991 2.777919,-0.8839 1.136422,0.7576 c 0,0 -13.6673015,20.8977 -16.5412482,26.3903 -2.0645359,3.9457 -2.4091601,11.4082 1.6414979,13.2582 3.9433693,1.801 5.1463983,0.5663 8.0542993,-1.5179 2.023066,-1.4499 3.203372,-3.6665 5.345541,-5.0175 2.678635,-1.6892 6.389351,-2.8463 8.84518,-0.8469 0.526305,0.4285 -0.169988,0.9463 0.43111,1.2614 0.531037,0.2784 0.533381,0.1847 1.120445,0.1339 0.545671,-0.047 0.576567,-13.3439 0.194548,-13.711 -0.485578,-0.4666 -1.656955,-0.4988 -2.020305,0 -0.273747,0.3758 0.313892,1.5387 -0.126269,1.389 -1.009492,-0.3432 -8.52894,2.3633 -10.792608,4.0922 -2.771041,2.1163 -6.249076,6.5636 -8.028599,4.7149 -1.452222,-1.5087 14.648739,-20.2046 14.401789,-30.1466 -0.03412,-1.3738 -0.641642,-3.0961 -1.894036,-3.6618 -1.581566,-0.7143 -3.330239,1.4895 -5.050763,1.2627 -0.429617,-0.057 -0.710442,-0.7108 -1.136421,-0.6313 -0.323149,0.06 -0.631346,0.7576 -0.631346,0.7576 z"
       id="path4372"
       inkscape:connector-curvature="0"
       sodipodi:nodetypes="ccccssssssssssssssssc" />
    <ellipse
       style="opacity:1;fill:#cccccc;fill-opacity:1;stroke:none;stroke-width:4;stroke-miterlimit:4;stroke-dasharray:none;stroke-opacity:1"
       id="path4374"
       cx="14.205271"
       cy="1029.9811"
       rx="0.56821084"
       ry="0.59977806" />
    <ellipse
       style="opacity:1;fill:#cccccc;fill-opacity:1;stroke:none;stroke-width:4;stroke-miterlimit:4;stroke-dasharray:none;stroke-opacity:1"
       id="path4374-5"
       cx="15.404826"
       cy="1028.1185"
       rx="0.56821084"
       ry="0.59977806" />
    <ellipse
       style="opacity:1;fill:#cccccc;fill-opacity:1;stroke:none;stroke-width:4;stroke-miterlimit:4;stroke-dasharray:none;stroke-opacity:1"
       id="path4374-5-7"
       cx="16.478113"
       cy="1026.2877"
       rx="0.56821084"
       ry="0.59977806" />
    <path
       style="fill:#666666;fill-rule:evenodd;stroke:none;stroke-width:1px;stroke-linecap:butt;stroke-linejoin:miter;stroke-opacity:1"
       d="m 12.1875,1027.3845 -1.651785,-1.0714 -0.7142864,0.9375 -0.5803572,-0.3572 1.9196426,-2.7009 0.658483,0.4464 -0.61384,0.9599 1.540179,0.9151 z"
       id="path4406"
       inkscape:connector-curvature="0"
       sodipodi:nodetypes="ccccccccc" />
    <path
       style="fill:#666666;fill-rule:evenodd;stroke:none;stroke-width:1px;stroke-linecap:butt;stroke-linejoin:miter;stroke-opacity:1"
       d="m 22.319617,1020.7954 1.799755,0.7983 0.557924,-1.0382 0.62932,0.2614 -1.470888,2.9693 -0.720505,-0.3373 0.455204,-1.0445 -1.664951,-0.6614 z"
       id="path4406-7"
       inkscape:connector-curvature="0"
       sodipodi:nodetypes="ccccccccc"
       inkscape:transform-center-x="0.62500002"
       inkscape:transform-center-y="-0.26785715" />
    <rect
       style="opacity:1;fill:#666666;fill-opacity:1;stroke:none;stroke-width:4;stroke-miterlimit:4;stroke-dasharray:none;stroke-opacity:1"
       id="rect4423"
       width="2.4622469"
       height="0.82074893"
       x="596.49457"
       y="830.41888"
       transform="matrix(0.81923193,0.57346233,-0.57346233,0.81923193,0,0)" />
    <rect
       style="opacity:1;fill:#666666;fill-opacity:1;stroke:none;stroke-width:4;stroke-miterlimit:4;stroke-dasharray:none;stroke-opacity:1"
       id="rect4423-1"
       width="2.4622469"
       height="0.82074893"
       x="604.15198"
       y="826.33026"
       transform="matrix(0.81923193,0.57346233,-0.57346233,0.81923193,0,0)"
       inkscape:transform-center-x="5.9346464"
       inkscape:transform-center-y="-2.3359778" />
    <ellipse
       style="opacity:1;fill:#808080;fill-opacity:1;stroke:none;stroke-width:4;stroke-miterlimit:4;stroke-dasharray:none;stroke-opacity:1"
       id="path4440"
       cx="32.558273"
       cy="1036.222"
       rx="0.56821078"
       ry="6.9447989" />
  </g>
</svg>
