<?xml version="1.0" encoding="UTF-8" standalone="no"?>
<!-- Created with Inkscape (http://www.inkscape.org/) -->

<svg
   xmlns:dc="http://purl.org/dc/elements/1.1/"
   xmlns:cc="http://creativecommons.org/ns#"
   xmlns:rdf="http://www.w3.org/1999/02/22-rdf-syntax-ns#"
   xmlns:svg="http://www.w3.org/2000/svg"
   xmlns="http://www.w3.org/2000/svg"
   xmlns:sodipodi="http://sodipodi.sourceforge.net/DTD/sodipodi-0.dtd"
   xmlns:inkscape="http://www.inkscape.org/namespaces/inkscape"
   width="40"
   height="50"
   viewBox="0 0 40.000001 50.000001"
   id="svg2"
   version="1.1"
   inkscape:version="0.91 r13725"
   sodipodi:docname="myShakuhachiDesign.svg">
  <defs
     id="defs4" />
  <sodipodi:namedview
     id="base"
     pagecolor="#ffffff"
     bordercolor="#666666"
     borderopacity="1.0"
     inkscape:pageopacity="0.0"
     inkscape:pageshadow="2"
     inkscape:zoom="15.839192"
     inkscape:cx="-3.4158315"
     inkscape:cy="17.963792"
     inkscape:document-units="px"
     inkscape:current-layer="layer1"
     showgrid="false"
     units="px"
     inkscape:window-width="1920"
     inkscape:window-height="1017"
     inkscape:window-x="-8"
     inkscape:window-y="-8"
     inkscape:window-maximized="1" />
  <metadata
     id="metadata7">
    <rdf:RDF>
      <cc:Work
         rdf:about="">
        <dc:format>image/svg+xml</dc:format>
        <dc:type
           rdf:resource="http://purl.org/dc/dcmitype/StillImage" />
        <dc:title />
      </cc:Work>
    </rdf:RDF>
  </metadata>
  <g
     inkscape:label="Ebene 1"
     inkscape:groupmode="layer"
     id="layer1"
     transform="translate(0,-1002.3622)">
    <path
       style="fill:#4d4d4d;fill-opacity:1;fill-rule:evenodd;stroke:none;stroke-width:1px;stroke-linecap:butt;stroke-linejoin:miter;stroke-opacity:1"
       d="m 4.2976352,1045.7198 2.2076465,2.4928 c 7.7762053,-10.152 20.4989803,-26.924 25.8452193,-33.6347 0.0612,-0.077 0.500891,-0.1747 0.560137,-0.2488 0.07894,-0.099 -0.04883,-0.3736 0.01929,-0.4671 0.452747,-0.6218 0.802192,-1.0223 1.100903,-1.3595 0.09099,-0.1027 0.422811,-0.1996 0.505874,-0.295 -2.230663,-2.4861 -4.063161,-2.5009 -4.063161,-2.5009 -0.06171,0.096 0.03077,0.5963 -0.08218,0.774 -0.197429,0.3105 -0.476919,0.7274 -0.851686,1.1882 -0.107405,0.132 -0.395272,0.095 -0.504607,0.2469 -0.09316,0.1293 0.03301,0.3978 -0.06778,0.5372 -4.632629,6.4089 -17.181928,23.2575 -24.6696618,33.2669 z"
       id="path4442"
       inkscape:connector-curvature="0"
       sodipodi:nodetypes="ccssssccssssc" />
    <circle
       style="opacity:1;fill:#f2f2f2;fill-opacity:1;stroke:none;stroke-width:4;stroke-miterlimit:4;stroke-dasharray:none;stroke-opacity:1"
       id="path4444-1"
       cx="19.491142"
       cy="1028.3541"
       r="0.89285713" />
    <circle
       style="opacity:1;fill:#f2f2f2;fill-opacity:1;stroke:none;stroke-width:4;stroke-miterlimit:4;stroke-dasharray:none;stroke-opacity:1"
       id="path4444-1-1"
       cx="23.062569"
       cy="1023.7496"
       r="0.89285713" />
    <circle
       style="opacity:1;fill:#f2f2f2;fill-opacity:1;stroke:none;stroke-width:4;stroke-miterlimit:4;stroke-dasharray:none;stroke-opacity:1"
       id="path4444-1-1-9"
       cx="25.119314"
       cy="1020.8218"
       r="0.89285713" />
    <circle
       style="opacity:1;fill:#f2f2f2;fill-opacity:1;stroke:none;stroke-width:4;stroke-miterlimit:4;stroke-dasharray:none;stroke-opacity:1"
       id="path4444-1-1-9-0"
       cx="27.500706"
       cy="1017.6642"
       r="0.89285713" />
    <path
       style="fill:#808080;fill-rule:evenodd;stroke:none;stroke-width:1px;stroke-linecap:butt;stroke-linejoin:miter;stroke-opacity:1"
       d="m 4.7609127,1046.259 c 0,0 0.6957022,-0.235 1.0560532,0.1581 0.3774489,0.4119 0.207524,1.2585 0.207524,1.2585 z"
       id="path4141"
       inkscape:connector-curvature="0"
       sodipodi:nodetypes="cscc" />
    <rect
       style="opacity:1;fill:#808080;fill-opacity:1;stroke:none;stroke-width:0.69999999;stroke-miterlimit:4;stroke-dasharray:none;stroke-opacity:1"
       id="rect4140"
       width="0.24989302"
       height="5.1670065"
       x="-777.08051"
       y="630.96863"
       transform="matrix(0.60054939,-0.79958766,0.78176815,0.62356921,0,0)" />
    <rect
       style="opacity:1;fill:#808080;fill-opacity:1;stroke:none;stroke-width:0.69999999;stroke-miterlimit:4;stroke-dasharray:none;stroke-opacity:1"
       id="rect4140-1"
       width="0.22875288"
       height="4.7070899"
       x="-778.74487"
       y="624.20367"
       transform="matrix(0.59313156,-0.80510555,0.77585257,0.63091424,0,0)" />
    <rect
       style="opacity:1;fill:#808080;fill-opacity:1;stroke:none;stroke-width:0.69999999;stroke-miterlimit:4;stroke-dasharray:none;stroke-opacity:1"
       id="rect4140-1-8"
       width="0.22875288"
       height="4.7070899"
       x="-787.9024"
       y="623.83929"
       transform="matrix(0.59313156,-0.80510555,0.77585257,0.63091424,0,0)" />
  </g>
</svg>
