<?xml version="1.0" encoding="UTF-8" standalone="no"?>
<!-- Created with Inkscape (http://www.inkscape.org/) -->

<svg
   xmlns:dc="http://purl.org/dc/elements/1.1/"
   xmlns:cc="http://creativecommons.org/ns#"
   xmlns:rdf="http://www.w3.org/1999/02/22-rdf-syntax-ns#"
   xmlns:svg="http://www.w3.org/2000/svg"
   xmlns="http://www.w3.org/2000/svg"
   xmlns:sodipodi="http://sodipodi.sourceforge.net/DTD/sodipodi-0.dtd"
   xmlns:inkscape="http://www.inkscape.org/namespaces/inkscape"
   width="40"
   height="50"
   viewBox="0 0 40.000001 50.000001"
   id="svg2"
   version="1.1"
   inkscape:version="0.91 r13725"
   sodipodi:docname="mySitarDesign.svg">
  <defs
     id="defs4" />
  <sodipodi:namedview
     id="base"
     pagecolor="#ffffff"
     bordercolor="#666666"
     borderopacity="1.0"
     inkscape:pageopacity="0.0"
     inkscape:pageshadow="2"
     inkscape:zoom="7.919596"
     inkscape:cx="21.457353"
     inkscape:cy="32.781977"
     inkscape:document-units="px"
     inkscape:current-layer="layer1"
     showgrid="false"
     units="px"
     inkscape:window-width="958"
     inkscape:window-height="1008"
     inkscape:window-x="953"
     inkscape:window-y="0"
     inkscape:window-maximized="0" />
  <metadata
     id="metadata7">
    <rdf:RDF>
      <cc:Work
         rdf:about="">
        <dc:format>image/svg+xml</dc:format>
        <dc:type
           rdf:resource="http://purl.org/dc/dcmitype/StillImage" />
        <dc:title />
      </cc:Work>
    </rdf:RDF>
  </metadata>
  <g
     inkscape:label="Ebene 1"
     inkscape:groupmode="layer"
     id="layer1"
     transform="translate(0,-1002.3622)">
    <path
       style="fill:#e6e6e6;fill-rule:evenodd;stroke:none;stroke-width:1px;stroke-linecap:butt;stroke-linejoin:miter;stroke-opacity:1"
       d="m 5,1038.5229 c -0.5943656,-2.0967 -0.6794719,-4.3745 1.3628083,-6.3942 1.8095399,-1.7895 3.4621112,-1.0283 5.5121917,-1.0165 1.203774,0.01 2.678571,-0.1786 2.678571,-0.1786 l 17.857143,-23.8393 3.125,2.5 -16.696428,23.4822 c 0,0 -0.390341,2.5997 -0.03064,3.4361 1.241145,2.8861 2.335918,4.9231 0.529369,7.0672 -1.821942,2.1622 -3.761254,2.2182 -5.799854,2.1618 -1.917425,-0.053 -3.6576582,-2.2672 -4.7482602,-3.2508 C 7.680843,1041.4907 5.4988356,1040.2826 5,1038.5229 Z"
       id="path4151"
       inkscape:connector-curvature="0"
       sodipodi:nodetypes="sssccccsssss" />
    <path
       style="fill:#ececec;fill-rule:evenodd;stroke:none;stroke-width:1px;stroke-linecap:butt;stroke-linejoin:miter;stroke-opacity:1"
       d="m 28.181492,1014.7023 1.127518,0.8617 c 0,0 1.573144,-0.5041 2.091545,-0.8021 1.723834,-0.9907 3.15577,-3.8295 3.15577,-3.8295 0,0 0.09388,-0.8182 -0.164949,-1.0567 -0.29812,-0.2747 -1.292263,0.3009 -1.605891,0.043 -0.330437,-0.2714 0.268236,-1.0127 -0.06401,-1.282 -0.334038,-0.2706 -0.991284,-0.01 -0.991284,-0.01 0,0 -2.492456,2.1968 -3.081523,4.1931 -0.135194,0.4582 -0.467191,1.8777 -0.467191,1.8777 z"
       id="path4144"
       inkscape:connector-curvature="0"
       sodipodi:nodetypes="ccscssscsc" />
    <path
       style="fill:#cccccc;fill-rule:evenodd;stroke:none;stroke-width:1px;stroke-linecap:butt;stroke-linejoin:miter;stroke-opacity:1"
       d="m 29.206272,1011.2816 c 0,0 0.02253,-0.5756 -0.145098,-0.7972 -0.114088,-0.1507 -0.514687,-0.2678 -0.514687,-0.2678 0,0 0.163879,0.4309 0.03804,0.5797 -0.119186,0.141 -0.57196,0.085 -0.57196,0.085 0,0 0.217775,0.3151 0.38936,0.387 0.247802,0.1038 0.804321,0.013 0.804321,0.013 z"
       id="path4150"
       inkscape:connector-curvature="0"
       sodipodi:nodetypes="cscscsc"
       inkscape:transform-center-x="0.17125511"
       inkscape:transform-center-y="0.17780025" />
    <ellipse
       style="opacity:1;fill:#333333;fill-opacity:1;stroke:none;stroke-width:4;stroke-miterlimit:4;stroke-dasharray:none;stroke-opacity:1"
       id="path4215-7-6"
       cx="-11.366067"
       cy="1011.1838"
       rx="0.74931204"
       ry="0.80319762"
       transform="matrix(0.99829641,-0.05834611,0.042616,0.99909153,0,0)" />
    <path
       style="fill:#f2f2f2;fill-rule:evenodd;stroke:none;stroke-width:1px;stroke-linecap:butt;stroke-linejoin:miter;stroke-opacity:1"
       d="m 14.664277,1030.8817 3.799834,3.2558 13.426601,-19.5179 -3.287739,-2.4034 z"
       id="path3350"
       inkscape:connector-curvature="0"
       sodipodi:nodetypes="ccccc" />
    <rect
       style="opacity:1;fill:#4d4d4d;fill-opacity:1;stroke:none;stroke-width:0.96200001;stroke-miterlimit:4;stroke-dasharray:none;stroke-opacity:1"
       id="rect4199"
       width="0.87286872"
       height="4.0843945"
       x="-739.87146"
       y="663.85474"
       transform="matrix(0.62899981,-0.77740546,0.71680935,0.69726922,0,0)"
       inkscape:transform-center-x="0.62591862"
       inkscape:transform-center-y="-1.9150726" />
    <path
       style="fill:none;fill-rule:evenodd;stroke:#000000;stroke-width:0.10031374;stroke-linecap:butt;stroke-linejoin:miter;stroke-miterlimit:4;stroke-dasharray:none;stroke-opacity:1"
       d="m 13.802971,1040.0499 17.612065,-25.6888"
       id="path4233"
       inkscape:connector-curvature="0"
       sodipodi:nodetypes="cc" />
    <path
       style="fill:none;fill-rule:evenodd;stroke:#000000;stroke-width:0.1009092;stroke-linecap:butt;stroke-linejoin:miter;stroke-miterlimit:4;stroke-dasharray:none;stroke-opacity:1"
       d="m 12.888131,1039.1878 17.555211,-25.6099"
       id="path4233-7"
       inkscape:connector-curvature="0"
       sodipodi:nodetypes="cc" />
    <path
       style="fill:none;fill-rule:evenodd;stroke:#000000;stroke-width:0.10182729;stroke-linecap:butt;stroke-linejoin:miter;stroke-miterlimit:4;stroke-dasharray:none;stroke-opacity:1"
       d="m 12.012662,1038.4674 17.514854,-25.5253"
       id="path4233-7-8"
       inkscape:connector-curvature="0"
       sodipodi:nodetypes="cc" />
    <path
       style="fill:none;fill-rule:evenodd;stroke:#000000;stroke-width:0.10237647;stroke-linecap:butt;stroke-linejoin:miter;stroke-miterlimit:4;stroke-dasharray:none;stroke-opacity:1"
       d="m 11.170481,1037.7305 17.636717,-25.3684"
       id="path4233-7-8-2"
       inkscape:connector-curvature="0"
       sodipodi:nodetypes="cc" />
    <ellipse
       style="opacity:1;fill:#333333;fill-opacity:1;stroke:none;stroke-width:4;stroke-miterlimit:4;stroke-dasharray:none;stroke-opacity:1"
       id="path4215-7-6-2"
       cx="-9.5566816"
       cy="1009.0159"
       rx="0.74931204"
       ry="0.80319762"
       transform="matrix(0.99829641,-0.05834611,0.042616,0.99909153,0,0)" />
    <path
       style="fill:#cccccc;fill-rule:evenodd;stroke:none;stroke-width:1px;stroke-linecap:butt;stroke-linejoin:miter;stroke-opacity:1"
       d="m 30.417776,1009.8631 c 0,0 0.02253,-0.5756 -0.145098,-0.7972 -0.114088,-0.1507 -0.514687,-0.2678 -0.514687,-0.2678 0,0 0.163879,0.4309 0.03804,0.5797 -0.119186,0.141 -0.57196,0.085 -0.57196,0.085 0,0 0.217775,0.3151 0.38936,0.387 0.247802,0.1038 0.804321,0.013 0.804321,0.013 z"
       id="path4150-1"
       inkscape:connector-curvature="0"
       sodipodi:nodetypes="cscscsc"
       inkscape:transform-center-x="0.17125511"
       inkscape:transform-center-y="0.17780025" />
    <path
       style="fill:#cccccc;fill-rule:evenodd;stroke:none;stroke-width:1px;stroke-linecap:butt;stroke-linejoin:miter;stroke-opacity:1"
       d="m 31.489204,1008.3229 c 0,0 0.02253,-0.5756 -0.145098,-0.7972 -0.114088,-0.1507 -0.514687,-0.2678 -0.514687,-0.2678 0,0 0.163879,0.4309 0.03804,0.5797 -0.119186,0.141 -0.57196,0.085 -0.57196,0.085 0,0 0.217775,0.3151 0.38936,0.387 0.247802,0.1038 0.804321,0.013 0.804321,0.013 z"
       id="path4150-1-7"
       inkscape:connector-curvature="0"
       sodipodi:nodetypes="cscscsc"
       inkscape:transform-center-x="0.17125511"
       inkscape:transform-center-y="0.17780025" />
    <path
       style="fill:#cccccc;fill-rule:evenodd;stroke:none;stroke-width:1px;stroke-linecap:butt;stroke-linejoin:miter;stroke-opacity:1"
       d="m 25.103952,1016.7564 c 0,0 -0.01919,-0.4281 -0.202042,-0.5758 -0.124438,-0.1003 -0.531608,-0.1481 -0.531608,-0.1481 0,0 0.194247,0.3029 0.07977,0.4253 -0.108431,0.1159 -0.563124,0.1183 -0.563124,0.1183 0,0 0.239516,0.2119 0.41549,0.2485 0.254115,0.053 0.801482,-0.068 0.801482,-0.068 z"
       id="path4150-4"
       inkscape:connector-curvature="0"
       sodipodi:nodetypes="cscscsc"
       inkscape:transform-center-x="0.13539223"
       inkscape:transform-center-y="0.14961259" />
    <path
       style="fill:#cccccc;fill-rule:evenodd;stroke:none;stroke-width:1px;stroke-linecap:butt;stroke-linejoin:miter;stroke-opacity:1"
       d="m 26.017766,1015.5416 c 0,0 -0.01918,-0.428 -0.202042,-0.5758 -0.124438,-0.1003 -0.531608,-0.1481 -0.531608,-0.1481 0,0 0.194257,0.303 0.07977,0.4253 -0.108431,0.1159 -0.563124,0.1183 -0.563124,0.1183 0,0 0.239525,0.212 0.41549,0.2485 0.254115,0.053 0.801482,-0.068 0.801482,-0.068 z"
       id="path4150-1-5"
       inkscape:connector-curvature="0"
       sodipodi:nodetypes="cscscsc"
       inkscape:transform-center-x="0.13539674"
       inkscape:transform-center-y="0.14957134" />
    <path
       style="fill:#cccccc;fill-rule:evenodd;stroke:none;stroke-width:1px;stroke-linecap:butt;stroke-linejoin:miter;stroke-opacity:1"
       d="m 26.972782,1014.44 c 0,0 -0.01918,-0.4281 -0.202042,-0.5758 -0.124438,-0.1004 -0.531608,-0.1481 -0.531608,-0.1481 0,0 0.194257,0.3029 0.07977,0.4252 -0.108431,0.1159 -0.563124,0.1183 -0.563124,0.1183 0,0 0.239515,0.212 0.415489,0.2485 0.254115,0.053 0.801482,-0.068 0.801482,-0.068 z"
       id="path4150-1-7-7"
       inkscape:connector-curvature="0"
       sodipodi:nodetypes="cscscsc"
       inkscape:transform-center-x="0.13539355"
       inkscape:transform-center-y="0.14960623" />
    <path
       style="fill:#cccccc;fill-rule:evenodd;stroke:none;stroke-width:1px;stroke-linecap:butt;stroke-linejoin:miter;stroke-opacity:1"
       d="m 22.213116,1020.538 c 0,0 -0.01919,-0.4281 -0.202042,-0.5758 -0.124438,-0.1003 -0.531608,-0.1481 -0.531608,-0.1481 0,0 0.194247,0.3029 0.07977,0.4253 -0.108431,0.1159 -0.563124,0.1183 -0.563124,0.1183 0,0 0.239516,0.2119 0.41549,0.2485 0.254115,0.053 0.801482,-0.068 0.801482,-0.068 z"
       id="path4150-4-5"
       inkscape:connector-curvature="0"
       sodipodi:nodetypes="cscscsc"
       inkscape:transform-center-x="0.13539223"
       inkscape:transform-center-y="0.14961259" />
    <path
       style="fill:#cccccc;fill-rule:evenodd;stroke:none;stroke-width:1px;stroke-linecap:butt;stroke-linejoin:miter;stroke-opacity:1"
       d="m 23.12693,1019.3232 c 0,0 -0.01918,-0.428 -0.202042,-0.5758 -0.124438,-0.1003 -0.531608,-0.1481 -0.531608,-0.1481 0,0 0.194257,0.303 0.07977,0.4253 -0.108431,0.1159 -0.563124,0.1183 -0.563124,0.1183 0,0 0.239525,0.212 0.41549,0.2485 0.254115,0.053 0.801482,-0.068 0.801482,-0.068 z"
       id="path4150-1-5-1"
       inkscape:connector-curvature="0"
       sodipodi:nodetypes="cscscsc"
       inkscape:transform-center-x="0.13539674"
       inkscape:transform-center-y="0.14957134" />
    <path
       style="fill:#cccccc;fill-rule:evenodd;stroke:none;stroke-width:1px;stroke-linecap:butt;stroke-linejoin:miter;stroke-opacity:1"
       d="m 24.081946,1018.2216 c 0,0 -0.01918,-0.4281 -0.202042,-0.5758 -0.124438,-0.1004 -0.531608,-0.1481 -0.531608,-0.1481 0,0 0.194257,0.3029 0.07977,0.4252 -0.108431,0.1159 -0.563124,0.1183 -0.563124,0.1183 0,0 0.239515,0.212 0.415489,0.2485 0.254115,0.053 0.801482,-0.068 0.801482,-0.068 z"
       id="path4150-1-7-7-9"
       inkscape:connector-curvature="0"
       sodipodi:nodetypes="cscscsc"
       inkscape:transform-center-x="0.13539355"
       inkscape:transform-center-y="0.14960623" />
    <path
       style="fill:#cccccc;fill-rule:evenodd;stroke:none;stroke-width:1px;stroke-linecap:butt;stroke-linejoin:miter;stroke-opacity:1"
       d="m 19.340494,1024.263 c 0,0 -0.01919,-0.4281 -0.202042,-0.5758 -0.124438,-0.1003 -0.531608,-0.1481 -0.531608,-0.1481 0,0 0.194247,0.3029 0.07977,0.4253 -0.108431,0.1159 -0.563124,0.1183 -0.563124,0.1183 0,0 0.239516,0.2119 0.41549,0.2485 0.254115,0.053 0.801482,-0.068 0.801482,-0.068 z"
       id="path4150-4-5-5"
       inkscape:connector-curvature="0"
       sodipodi:nodetypes="cscscsc"
       inkscape:transform-center-x="0.13539223"
       inkscape:transform-center-y="0.14961259" />
    <path
       style="fill:#cccccc;fill-rule:evenodd;stroke:none;stroke-width:1px;stroke-linecap:butt;stroke-linejoin:miter;stroke-opacity:1"
       d="m 20.254308,1023.0482 c 0,0 -0.01918,-0.428 -0.202042,-0.5758 -0.124438,-0.1003 -0.531608,-0.1481 -0.531608,-0.1481 0,0 0.194257,0.303 0.07977,0.4253 -0.108431,0.1159 -0.563124,0.1183 -0.563124,0.1183 0,0 0.239525,0.212 0.41549,0.2485 0.254115,0.053 0.801482,-0.068 0.801482,-0.068 z"
       id="path4150-1-5-1-3"
       inkscape:connector-curvature="0"
       sodipodi:nodetypes="cscscsc"
       inkscape:transform-center-x="0.13539674"
       inkscape:transform-center-y="0.14957134" />
    <path
       style="fill:#cccccc;fill-rule:evenodd;stroke:none;stroke-width:1px;stroke-linecap:butt;stroke-linejoin:miter;stroke-opacity:1"
       d="m 21.209324,1021.9466 c 0,0 -0.01918,-0.4281 -0.202042,-0.5758 -0.124438,-0.1004 -0.531608,-0.1481 -0.531608,-0.1481 0,0 0.194257,0.3029 0.07977,0.4252 -0.108431,0.1159 -0.563124,0.1183 -0.563124,0.1183 0,0 0.239515,0.212 0.415489,0.2485 0.254115,0.053 0.801482,-0.068 0.801482,-0.068 z"
       id="path4150-1-7-7-9-3"
       inkscape:connector-curvature="0"
       sodipodi:nodetypes="cscscsc"
       inkscape:transform-center-x="0.13539355"
       inkscape:transform-center-y="0.14960623" />
    <path
       style="fill:#cccccc;fill-rule:evenodd;stroke:none;stroke-width:1px;stroke-linecap:butt;stroke-linejoin:miter;stroke-opacity:1"
       d="m 16.800536,1027.7206 c 0,0 -0.01919,-0.4281 -0.202042,-0.5758 -0.124438,-0.1003 -0.531608,-0.1481 -0.531608,-0.1481 0,0 0.194247,0.3029 0.07977,0.4253 -0.108431,0.1159 -0.563124,0.1183 -0.563124,0.1183 0,0 0.239516,0.2119 0.41549,0.2485 0.254115,0.053 0.801482,-0.068 0.801482,-0.068 z"
       id="path4150-4-5-5-9"
       inkscape:connector-curvature="0"
       sodipodi:nodetypes="cscscsc"
       inkscape:transform-center-x="0.13539223"
       inkscape:transform-center-y="0.14961259" />
    <path
       style="fill:#cccccc;fill-rule:evenodd;stroke:none;stroke-width:1px;stroke-linecap:butt;stroke-linejoin:miter;stroke-opacity:1"
       d="m 17.71435,1026.5058 c 0,0 -0.01918,-0.428 -0.202042,-0.5758 -0.124438,-0.1003 -0.531608,-0.1481 -0.531608,-0.1481 0,0 0.194257,0.303 0.07977,0.4253 -0.108431,0.1159 -0.563124,0.1183 -0.563124,0.1183 0,0 0.239525,0.212 0.41549,0.2485 0.254115,0.053 0.801482,-0.068 0.801482,-0.068 z"
       id="path4150-1-5-1-3-9"
       inkscape:connector-curvature="0"
       sodipodi:nodetypes="cscscsc"
       inkscape:transform-center-x="0.13539674"
       inkscape:transform-center-y="0.14957134" />
    <path
       style="fill:#cccccc;fill-rule:evenodd;stroke:none;stroke-width:1px;stroke-linecap:butt;stroke-linejoin:miter;stroke-opacity:1"
       d="m 18.669366,1025.4042 c 0,0 -0.01918,-0.4281 -0.202042,-0.5758 -0.124438,-0.1004 -0.531608,-0.1481 -0.531608,-0.1481 0,0 0.194257,0.3029 0.07977,0.4252 -0.108431,0.1159 -0.563124,0.1183 -0.563124,0.1183 0,0 0.239515,0.212 0.415489,0.2485 0.254115,0.053 0.801482,-0.068 0.801482,-0.068 z"
       id="path4150-1-7-7-9-3-6"
       inkscape:connector-curvature="0"
       sodipodi:nodetypes="cscscsc"
       inkscape:transform-center-x="0.13539355"
       inkscape:transform-center-y="0.14960623" />
  </g>
</svg>
