<?xml version="1.0" encoding="UTF-8" standalone="no"?>
<!-- Created with Inkscape (http://www.inkscape.org/) -->

<svg
   xmlns:dc="http://purl.org/dc/elements/1.1/"
   xmlns:cc="http://creativecommons.org/ns#"
   xmlns:rdf="http://www.w3.org/1999/02/22-rdf-syntax-ns#"
   xmlns:svg="http://www.w3.org/2000/svg"
   xmlns="http://www.w3.org/2000/svg"
   xmlns:sodipodi="http://sodipodi.sourceforge.net/DTD/sodipodi-0.dtd"
   xmlns:inkscape="http://www.inkscape.org/namespaces/inkscape"
   width="40"
   height="50"
   viewBox="0 0 40.000001 50.000001"
   id="svg2"
   version="1.1"
   inkscape:version="0.91 r13725"
   sodipodi:docname="myTaikoDesign.svg">
  <defs
     id="defs4" />
  <sodipodi:namedview
     id="base"
     pagecolor="#ffffff"
     bordercolor="#666666"
     borderopacity="1.0"
     inkscape:pageopacity="0.0"
     inkscape:pageshadow="2"
     inkscape:zoom="7.919596"
     inkscape:cx="22.836089"
     inkscape:cy="7.3294137"
     inkscape:document-units="px"
     inkscape:current-layer="layer1"
     showgrid="false"
     units="px"
     inkscape:window-width="958"
     inkscape:window-height="1008"
     inkscape:window-x="953"
     inkscape:window-y="0"
     inkscape:window-maximized="0" />
  <metadata
     id="metadata7">
    <rdf:RDF>
      <cc:Work
         rdf:about="">
        <dc:format>image/svg+xml</dc:format>
        <dc:type
           rdf:resource="http://purl.org/dc/dcmitype/StillImage" />
        <dc:title />
      </cc:Work>
    </rdf:RDF>
  </metadata>
  <g
     inkscape:label="Ebene 1"
     inkscape:groupmode="layer"
     id="layer1"
     transform="translate(0,-1002.3622)">
    <path
       style="fill:#f2f2f2;fill-rule:evenodd;stroke:none;stroke-width:1px;stroke-linecap:butt;stroke-linejoin:miter;stroke-opacity:1"
       d="m 5,1020.4842 27.857143,-0.086 c 0,0 2.796235,18.655 -4.190766,26.1536 -2.620208,2.812 -15.885159,0.4599 -18.191168,0.461 C 1.4694085,1047.017 5,1020.4842 5,1020.4842 Z"
       id="path4139"
       inkscape:connector-curvature="0"
       sodipodi:nodetypes="ccssc" />
    <ellipse
       style="opacity:1;fill:#cccccc;fill-opacity:1;stroke:none;stroke-width:0.69999999;stroke-miterlimit:4;stroke-dasharray:none;stroke-opacity:1"
       id="path4135"
       cx="18.75"
       cy="1020.9336"
       rx="14.107142"
       ry="4.1964288" />
    <path
       style="fill:#cccccc;fill-opacity:1;fill-rule:evenodd;stroke:none;stroke-width:1px;stroke-linecap:butt;stroke-linejoin:miter;stroke-opacity:1"
       d="m 4.7321429,1021.2015 -0.8928572,1.6071 1.8542646,0.5709 1.7784738,0.3727 c 1.5660561,0.3609 2.6207749,1.2331 3.5994049,2.1814 l 3.074481,-0.2971 c 1.459149,0.9387 3.204928,1.2324 5.139804,1.1007 l 1.988192,-0.9408 2.294038,0.4291 2.164555,-0.2919 2.798091,-1.0015 2.540839,0.198 0.841524,-1.3939 2.19419,-0.6597 -1.086005,-1.1174 -0.342567,-1.204 z"
       id="path4140"
       inkscape:connector-curvature="0"
       sodipodi:nodetypes="ccccccccccccccccc" />
    <path
       style="fill:none;fill-rule:evenodd;stroke:#000000;stroke-width:0.1;stroke-linecap:butt;stroke-linejoin:miter;stroke-miterlimit:4;stroke-dasharray:none;stroke-dashoffset:0;stroke-opacity:1"
       d="m 4.7321429,1021.611 c 0,0 9.2566711,3.6224 14.1071431,3.5715 4.815741,-0.051 14.017857,-3.3036 14.017857,-3.3036"
       id="path4152"
       inkscape:connector-curvature="0"
       sodipodi:nodetypes="csc" />
    <rect
       style="opacity:1;fill:#cccccc;fill-opacity:1;stroke:none;stroke-width:0.40000001;stroke-miterlimit:4;stroke-dasharray:0.4, 0.4;stroke-dashoffset:0;stroke-opacity:1"
       id="rect4220"
       width="4.0178571"
       height="4.2857141"
       x="-560.92914"
       y="868.34937"
       transform="matrix(0.83205029,-0.55470021,0.55470021,0.83205029,0,0)"
       inkscape:transform-center-x="0.71428573"
       inkscape:transform-center-y="-0.71428573" />
    <path
       style="fill:#cccccc;fill-opacity:1;fill-rule:evenodd;stroke:none;stroke-width:1px;stroke-linecap:butt;stroke-linejoin:miter;stroke-opacity:1"
       d="m 7.8918167,1046.4907 -1.5783633,-1.7678 2.3991123,1.0102 0.947018,-0.7576 3.2198613,0.947 2.462247,-0.2526 3.030457,0.7577 1.578364,-0.9471 3.472399,1.1996 2.272843,-1.4521 1.767767,0.8839 2.399113,-1.0733 -2.335978,2.1466 c 0,0 -6.686131,0.8063 -10.038391,0.6944 -3.417802,-0.1141 -9.5964493,-1.3889 -9.5964493,-1.3889 z"
       id="path4222"
       inkscape:connector-curvature="0"
       sodipodi:nodetypes="cccccccccccccsc" />
  </g>
</svg>
