<?xml version="1.0" encoding="UTF-8" standalone="no"?>
<!-- Created with Inkscape (http://www.inkscape.org/) -->

<svg
   xmlns:dc="http://purl.org/dc/elements/1.1/"
   xmlns:cc="http://creativecommons.org/ns#"
   xmlns:rdf="http://www.w3.org/1999/02/22-rdf-syntax-ns#"
   xmlns:svg="http://www.w3.org/2000/svg"
   xmlns="http://www.w3.org/2000/svg"
   xmlns:sodipodi="http://sodipodi.sourceforge.net/DTD/sodipodi-0.dtd"
   xmlns:inkscape="http://www.inkscape.org/namespaces/inkscape"
   width="40"
   height="50"
   viewBox="0 0 40.000001 50.000001"
   id="svg2"
   version="1.1"
   inkscape:version="0.91 r13725"
   sodipodi:docname="myTinkleBellDesign.svg">
  <defs
     id="defs4" />
  <sodipodi:namedview
     id="base"
     pagecolor="#ffffff"
     bordercolor="#666666"
     borderopacity="1.0"
     inkscape:pageopacity="0.0"
     inkscape:pageshadow="2"
     inkscape:zoom="15.839192"
     inkscape:cx="12.732234"
     inkscape:cy="32.230894"
     inkscape:document-units="px"
     inkscape:current-layer="layer1"
     showgrid="false"
     units="px"
     inkscape:window-width="1920"
     inkscape:window-height="1017"
     inkscape:window-x="-8"
     inkscape:window-y="-8"
     inkscape:window-maximized="1" />
  <metadata
     id="metadata7">
    <rdf:RDF>
      <cc:Work
         rdf:about="">
        <dc:format>image/svg+xml</dc:format>
        <dc:type
           rdf:resource="http://purl.org/dc/dcmitype/StillImage" />
        <dc:title />
      </cc:Work>
    </rdf:RDF>
  </metadata>
  <g
     inkscape:label="Ebene 1"
     inkscape:groupmode="layer"
     id="layer1"
     transform="translate(0,-1002.3622)">
    <path
       style="fill:#666666;fill-opacity:1;fill-rule:evenodd;stroke:none;stroke-width:1px;stroke-linecap:butt;stroke-linejoin:miter;stroke-opacity:1"
       d="m 7.6962572,1034.3566 c 0,0 2.5874878,-6.8837 3.5116078,-10.4439 0.592382,-2.2823 0.456487,-4.3625 1.179517,-6.6068 0.821568,-2.5503 3.51734,-7.1306 3.51734,-7.1306 l 0.758592,0.2796 c 0,0 0.04805,5.3803 -0.65766,7.8403 -0.664956,2.318 -1.815569,3.791 -2.609677,6.0679 -1.245697,3.5718 -2.341396,10.9182 -2.341396,10.9182 z"
       id="path4140"
       inkscape:connector-curvature="0"
       sodipodi:nodetypes="cssccsscc" />
    <path
       style="fill:#4d4d4d;fill-rule:evenodd;stroke:none;stroke-width:1px;stroke-linecap:butt;stroke-linejoin:miter;stroke-opacity:1"
       d="m 3.4622063,1040.2974 c 0,0 2.6205997,1.5256 4.1286158,1.8984 1.4788969,0.367 4.7971179,0.3165 4.7971179,0.3165 0,0 -0.161923,-2.0999 -0.375646,-3.1281 -0.172407,-0.8295 -0.885364,-1.8699 -1.031571,-2.8787 -0.08035,-0.5546 0.09456,-1.6785 0.09456,-1.6785 l -3.1411234,-0.6877 c 0,0 -0.4792186,1.0311 -0.7877857,1.5064 -0.4169522,0.6422 -1.3560412,1.1816 -1.9915416,1.9726 -1.0061511,1.2522 -1.6926269,2.6791 -1.6926269,2.6791 z"
       id="path4142"
       inkscape:connector-curvature="0"
       sodipodi:nodetypes="cscssccssc" />
    <path
       style="fill:#666666;fill-opacity:1;fill-rule:evenodd;stroke:none;stroke-width:1px;stroke-linecap:butt;stroke-linejoin:miter;stroke-opacity:1"
       d="m 26.131481,1034.4633 c 0,0 -0.690209,-7.3215 -1.419424,-10.9267 -0.467501,-2.3111 -1.5011,-4.1214 -1.834511,-6.4556 -0.37891,-2.6525 0.03746,-7.9509 0.03746,-7.9509 l 0.804406,-0.081 c 0,0 2.40058,4.8153 2.84407,7.3358 0.417906,2.375 0.02902,4.2032 0.312818,6.5979 0.445232,3.7565 2.679144,10.8402 2.679144,10.8402 z"
       id="path4140-8"
       inkscape:connector-curvature="0"
       sodipodi:nodetypes="cssccsscc" />
    <path
       style="fill:#4d4d4d;fill-rule:evenodd;stroke:none;stroke-width:1px;stroke-linecap:butt;stroke-linejoin:miter;stroke-opacity:1"
       d="m 24.92846,1041.6586 c 0,0 3.024104,0.2232 4.543004,-0.1025 1.490184,-0.3181 4.45081,-1.8173 4.45081,-1.8173 0,0 -1.065628,-1.8167 -1.708251,-2.6473 -0.518424,-0.6701 -1.615155,-1.2929 -2.188588,-2.1357 -0.315225,-0.4633 -0.650437,-1.5502 -0.650437,-1.5502 l -3.124876,0.7581 c 0,0 0.02101,1.1368 -0.04811,1.6993 -0.09342,0.7599 -0.701226,1.6563 -0.925901,2.6457 -0.355777,1.5665 -0.347651,3.1499 -0.347651,3.1499 z"
       id="path4142-6"
       inkscape:connector-curvature="0"
       sodipodi:nodetypes="cscssccssc" />
    <ellipse
       style="opacity:1;fill:#999999;fill-opacity:1;stroke:none;stroke-width:0.1;stroke-miterlimit:4;stroke-dasharray:none;stroke-opacity:1"
       id="path4162"
       cx="264.09412"
       cy="1007.6574"
       rx="4.1984468"
       ry="1.8624687"
       transform="matrix(0.96921443,0.24621819,-0.24621819,0.96921443,0,0)" />
    <ellipse
       style="opacity:1;fill:#999999;fill-opacity:1;stroke:none;stroke-width:0.1;stroke-miterlimit:4;stroke-dasharray:none;stroke-opacity:1"
       id="path4162-5"
       cx="227.84236"
       cy="1015.8572"
       rx="4.1984468"
       ry="1.8624687"
       transform="matrix(-0.96921443,0.24621819,0.24621819,0.96921443,0,0)" />
  </g>
</svg>
