<?xml version="1.0" encoding="UTF-8" standalone="no"?>
<!-- Created with Inkscape (http://www.inkscape.org/) -->

<svg
   xmlns:dc="http://purl.org/dc/elements/1.1/"
   xmlns:cc="http://creativecommons.org/ns#"
   xmlns:rdf="http://www.w3.org/1999/02/22-rdf-syntax-ns#"
   xmlns:svg="http://www.w3.org/2000/svg"
   xmlns="http://www.w3.org/2000/svg"
   xmlns:sodipodi="http://sodipodi.sourceforge.net/DTD/sodipodi-0.dtd"
   xmlns:inkscape="http://www.inkscape.org/namespaces/inkscape"
   width="40"
   height="50"
   viewBox="0 0 40.000001 50.000001"
   id="svg2"
   version="1.1"
   inkscape:version="0.91 r13725"
   sodipodi:docname="myTimpaniDesign.svg">
  <defs
     id="defs4" />
  <sodipodi:namedview
     id="base"
     pagecolor="#ffffff"
     bordercolor="#666666"
     borderopacity="1.0"
     inkscape:pageopacity="0.0"
     inkscape:pageshadow="2"
     inkscape:zoom="11.2"
     inkscape:cx="-26.695976"
     inkscape:cy="27.358389"
     inkscape:document-units="px"
     inkscape:current-layer="layer1"
     showgrid="false"
     units="px"
     inkscape:window-width="1920"
     inkscape:window-height="1017"
     inkscape:window-x="-8"
     inkscape:window-y="-8"
     inkscape:window-maximized="1" />
  <metadata
     id="metadata7">
    <rdf:RDF>
      <cc:Work
         rdf:about="">
        <dc:format>image/svg+xml</dc:format>
        <dc:type
           rdf:resource="http://purl.org/dc/dcmitype/StillImage" />
        <dc:title />
      </cc:Work>
    </rdf:RDF>
  </metadata>
  <g
     inkscape:label="Ebene 1"
     inkscape:groupmode="layer"
     id="layer1"
     transform="translate(0,-1002.3622)">
    <path
       style="fill:#f2f2f2;fill-rule:evenodd;stroke:none;stroke-width:1px;stroke-linecap:butt;stroke-linejoin:miter;stroke-opacity:1"
       d="m 5,1020.4842 27.857143,-0.086 c 0,0 -5.623192,20.3607 -14.078363,20.3646 C 9.7729799,1040.7669 5,1020.4842 5,1020.4842 Z"
       id="path4139"
       inkscape:connector-curvature="0"
       sodipodi:nodetypes="ccsc" />
    <ellipse
       style="opacity:1;fill:#cccccc;fill-opacity:1;stroke:none;stroke-width:0.69999999;stroke-miterlimit:4;stroke-dasharray:none;stroke-opacity:1"
       id="path4135"
       cx="18.75"
       cy="1020.9336"
       rx="14.107142"
       ry="4.1964288" />
    <path
       style="fill:#808080;fill-rule:evenodd;stroke:none;stroke-width:1px;stroke-linecap:butt;stroke-linejoin:miter;stroke-opacity:1"
       d="m 13.571429,1049.7729 10.218183,0 c 0,0 -3.321103,-2.8269 -5.266294,-2.8571 -1.80615,-0.028 -4.951889,2.8571 -4.951889,2.8571 z"
       id="path4158"
       inkscape:connector-curvature="0"
       sodipodi:nodetypes="ccsc" />
    <path
       style="fill:#808080;fill-rule:evenodd;stroke:none;stroke-width:1px;stroke-linecap:butt;stroke-linejoin:miter;stroke-opacity:1"
       d="m 5,1022.0051 c 0,0 1.9618803,9.8057 3.4755907,14.4891 1.4599516,4.5171 5.3718123,13.0172 5.3718123,13.0172 l 0.88474,-0.662 c 0,0 -3.918564,-8.3806 -5.4099999,-12.83 -1.4312401,-4.2698 -3.3636746,-13.2108 -3.3636746,-13.2108 z"
       id="path4160"
       inkscape:connector-curvature="0"
       sodipodi:nodetypes="csccscc" />
    <path
       style="fill:#808080;fill-rule:evenodd;stroke:none;stroke-width:1px;stroke-linecap:butt;stroke-linejoin:miter;stroke-opacity:1"
       d="m 32.098214,1022.2252 c 0,0 -1.961881,9.8057 -3.475591,14.4891 -1.459952,4.5171 -5.371812,13.0172 -5.371812,13.0172 l -0.88474,-0.662 c 0,0 3.918564,-8.3806 5.41,-12.83 1.43124,-4.2698 3.363674,-13.2108 3.363674,-13.2108 z"
       id="path4160-1"
       inkscape:connector-curvature="0"
       sodipodi:nodetypes="csccscc" />
    <path
       style="fill:#808080;fill-rule:evenodd;stroke:none;stroke-width:1px;stroke-linecap:butt;stroke-linejoin:miter;stroke-opacity:1"
       d="m 27.366072,1024.234 c 0,0 -2.051167,9.3146 -3.564877,13.998 -1.459952,4.5171 -4.434312,10.8297 -4.434312,10.8297 l -0.750811,-0.4834 c 0,0 2.847135,-6.3717 4.338571,-10.8211 1.43124,-4.2698 3.430638,-13.2778 3.430638,-13.2778 z"
       id="path4160-1-5"
       inkscape:connector-curvature="0"
       sodipodi:nodetypes="csccscc" />
    <path
       style="fill:#808080;fill-rule:evenodd;stroke:none;stroke-width:1px;stroke-linecap:butt;stroke-linejoin:miter;stroke-opacity:1"
       d="m 10.825894,1024.3679 c 0,0 1.984202,9.6941 3.497912,14.3775 1.459952,4.5171 4.434312,10.8297 4.434312,10.8297 l 0.750811,-0.4834 c 0,0 -2.847135,-6.3717 -4.338571,-10.8211 -1.43124,-4.2698 -3.363674,-13.6572 -3.363674,-13.6572 z"
       id="path4160-1-5-6"
       inkscape:connector-curvature="0"
       sodipodi:nodetypes="csccscc" />
  </g>
</svg>
