<?xml version="1.0" encoding="UTF-8" standalone="no"?>
<!-- Created with Inkscape (http://www.inkscape.org/) -->

<svg
   xmlns:dc="http://purl.org/dc/elements/1.1/"
   xmlns:cc="http://creativecommons.org/ns#"
   xmlns:rdf="http://www.w3.org/1999/02/22-rdf-syntax-ns#"
   xmlns:svg="http://www.w3.org/2000/svg"
   xmlns="http://www.w3.org/2000/svg"
   xmlns:sodipodi="http://sodipodi.sourceforge.net/DTD/sodipodi-0.dtd"
   xmlns:inkscape="http://www.inkscape.org/namespaces/inkscape"
   width="40"
   height="50"
   viewBox="0 0 40.000001 50.000001"
   id="svg2"
   version="1.1"
   inkscape:version="0.91 r13725"
   sodipodi:docname="myTromboneDesign.svg">
  <defs
     id="defs4" />
  <sodipodi:namedview
     id="base"
     pagecolor="#ffffff"
     bordercolor="#666666"
     borderopacity="1.0"
     inkscape:pageopacity="0.0"
     inkscape:pageshadow="2"
     inkscape:zoom="22.4"
     inkscape:cx="6.1485863"
     inkscape:cy="26.354347"
     inkscape:document-units="px"
     inkscape:current-layer="layer1"
     showgrid="false"
     units="px"
     inkscape:window-width="1920"
     inkscape:window-height="1017"
     inkscape:window-x="-8"
     inkscape:window-y="-8"
     inkscape:window-maximized="1" />
  <metadata
     id="metadata7">
    <rdf:RDF>
      <cc:Work
         rdf:about="">
        <dc:format>image/svg+xml</dc:format>
        <dc:type
           rdf:resource="http://purl.org/dc/dcmitype/StillImage" />
        <dc:title />
      </cc:Work>
    </rdf:RDF>
  </metadata>
  <g
     inkscape:label="Ebene 1"
     inkscape:groupmode="layer"
     id="layer1"
     transform="translate(0,-1002.3622)">
    <path
       style="fill:#4d4d4d;fill-rule:evenodd;stroke:none;stroke-width:1px;stroke-linecap:butt;stroke-linejoin:miter;stroke-opacity:1"
       d="m 18.426123,1022.4509 c 0,0 3.859629,-0.771 4.920618,-5.156 0.09959,-0.4116 0.453403,-0.4318 0.610905,0.034 0.502091,1.4866 0.435366,4.4921 0.469112,6.2328 0.04276,2.2059 -0.247969,5.4942 -0.734994,6.4783 -0.158597,0.3204 -0.480086,0.079 -0.569011,-0.2551 -1.123554,-4.2157 -4.785915,-4.7448 -4.785915,-4.7448 -1.63355,-0.011 -11.3544327,-1.2232 -11.8397906,0.3415 -0.4853579,1.5646 -0.2906267,3.03 0.015192,3.6063 0.3058187,0.5763 16.2258456,0.4636 16.3816346,0.4524 0.139129,-0.01 0.37909,0.7914 0.581883,0.7912 0.202793,-3e-4 0.491634,-0.7672 0.491634,-0.7672 0.433031,-0.1009 11.487432,0.2595 11.692779,0.2226 0.289241,-0.052 1.560748,0.7605 1.606822,1.7172 0.008,1.0376 -1.006587,1.2827 -1.467795,1.5813 -0.569539,0.3336 -24.622355,0.6816 -24.562533,0.3902 0.004,-0.019 -0.56731,0.734 -0.703554,0.5213 -0.24451,-0.3818 -0.128933,-1.8422 -0.170467,-2.0192 -0.04867,-0.2074 0.577469,0.4539 0.931267,0.4522 3.014832,-0.015 8.317185,0.031 13.355589,0.019 3.710519,-0.01 10.359262,-0.3167 11.14279,-0.3097 0.418988,0 0.145939,-1.3141 -0.02328,-1.3168 -7.977319,-0.1255 -27.6408412,0.1674 -30.0205591,0.1309 -0.34797,-0.01 -0.9529211,-0.4147 -1.4935352,-1.7396 -0.2544158,-0.6235 -0.1581904,-3.4499 0.064702,-4.5237 0.1418403,-0.6834 0.9598235,-1.8663 1.3115699,-1.92 4.1224841,-0.056 8.5414874,-0.2793 12.7949364,-0.2188 z"
       id="path3346"
       inkscape:connector-curvature="0"
       sodipodi:nodetypes="csssssczzszssccsssssssssscc" />
    <rect
       style="opacity:1;fill:#808080;fill-opacity:1;stroke:none;stroke-width:0.80000001;stroke-miterlimit:4;stroke-dasharray:none;stroke-opacity:1"
       id="rect4150"
       width="0.59304786"
       height="5.9230442"
       x="7.7584324"
       y="1024.0131" />
    <rect
       style="opacity:1;fill:#808080;fill-opacity:1;stroke:none;stroke-width:0.80000001;stroke-miterlimit:4;stroke-dasharray:none;stroke-opacity:1"
       id="rect4150-9"
       width="0.81626207"
       height="6.0569725"
       x="16.995564"
       y="1024.1285" />
    <rect
       style="opacity:1;fill:#808080;fill-opacity:1;stroke:none;stroke-width:0.80000001;stroke-miterlimit:4;stroke-dasharray:none;stroke-opacity:1"
       id="rect4150-91"
       width="0.43521151"
       height="2.450645"
       x="12.87355"
       y="1030.2269" />
    <rect
       style="opacity:1;fill:#808080;fill-opacity:1;stroke:none;stroke-width:0.80000001;stroke-miterlimit:4;stroke-dasharray:none;stroke-opacity:1"
       id="rect4150-91-6"
       width="0.43521151"
       height="2.450645"
       x="13.92437"
       y="1030.1998" />
  </g>
</svg>
