<?xml version="1.0" encoding="UTF-8" standalone="no"?>
<!-- Created with Inkscape (http://www.inkscape.org/) -->

<svg
   xmlns:dc="http://purl.org/dc/elements/1.1/"
   xmlns:cc="http://creativecommons.org/ns#"
   xmlns:rdf="http://www.w3.org/1999/02/22-rdf-syntax-ns#"
   xmlns:svg="http://www.w3.org/2000/svg"
   xmlns="http://www.w3.org/2000/svg"
   xmlns:sodipodi="http://sodipodi.sourceforge.net/DTD/sodipodi-0.dtd"
   xmlns:inkscape="http://www.inkscape.org/namespaces/inkscape"
   width="40"
   height="50"
   viewBox="0 0 40.000001 50.000001"
   id="svg2"
   version="1.1"
   inkscape:version="0.91 r13725"
   sodipodi:docname="myVoiceDesign.svg">
  <defs
     id="defs4" />
  <sodipodi:namedview
     id="base"
     pagecolor="#ffffff"
     bordercolor="#666666"
     borderopacity="1.0"
     inkscape:pageopacity="0.0"
     inkscape:pageshadow="2"
     inkscape:zoom="11.2"
     inkscape:cx="20.750405"
     inkscape:cy="8.8628862"
     inkscape:document-units="px"
     inkscape:current-layer="layer1"
     showgrid="false"
     units="px"
     inkscape:window-width="958"
     inkscape:window-height="1008"
     inkscape:window-x="953"
     inkscape:window-y="0"
     inkscape:window-maximized="0" />
  <metadata
     id="metadata7">
    <rdf:RDF>
      <cc:Work
         rdf:about="">
        <dc:format>image/svg+xml</dc:format>
        <dc:type
           rdf:resource="http://purl.org/dc/dcmitype/StillImage" />
        <dc:title />
      </cc:Work>
    </rdf:RDF>
  </metadata>
  <g
     inkscape:label="Ebene 1"
     inkscape:groupmode="layer"
     id="layer1"
     transform="translate(0,-1002.3622)">
    <path
       style="opacity:1;fill:#ececec;fill-opacity:1;fill-rule:evenodd;stroke:none;stroke-width:1px;stroke-linecap:butt;stroke-linejoin:miter;stroke-opacity:1"
       d="m 7.0823513,1027.7778 c 0,0 4.9998767,-6.0673 8.4651317,-6.2967 1.188818,-0.078 2.122752,0.9095 3.404673,0.846 1.087986,-0.054 2.424649,-1.0479 3.513829,-1.0449 3.868306,0.013 8.392515,7.3439 8.392515,7.3439 0,0 -1.494494,0.25 -2.241485,0.1466 -2.347961,-0.3248 -4.098787,-1.74 -6.348396,-2.129 -0.965423,-0.167 -2.106791,0.1395 -3.235819,0.1084 -1.12903,-0.03 -2.179468,-0.4079 -3.780028,-0.2416 -1.600561,0.1663 -3.243539,1.6039 -5.003435,1.797 -1.0440303,0.1147 -3.1669857,-0.5299 -3.1669857,-0.5299 z"
       id="path4157"
       inkscape:connector-curvature="0"
       sodipodi:nodetypes="cssscsszzsc" />
    <path
       style="opacity:1;fill:#ececec;fill-opacity:1;fill-rule:evenodd;stroke:none;stroke-width:1px;stroke-linecap:butt;stroke-linejoin:miter;stroke-opacity:1"
       d="m 7.280936,1028.0201 c 0,0 2.0145617,3.291 3.346273,4.6285 1.150584,1.1555 2.797476,2.4665 3.925909,2.8476 2.893137,0.9772 6.650403,1.3508 9.456451,0.1223 2.968074,-1.2995 6.68733,-6.8024 6.68733,-6.8024 0,0 -7.676597,0.8449 -11.595043,0.7163 -3.918447,-0.1286 -11.82092,-1.5123 -11.82092,-1.5123 z"
       id="path4159"
       inkscape:connector-curvature="0"
       sodipodi:nodetypes="csssczc" />
    <ellipse
       style="opacity:1;fill:#ececec;fill-opacity:1;stroke:none;stroke-width:0.30000001;stroke-miterlimit:4;stroke-dasharray:none;stroke-opacity:1"
       id="path4170"
       cx="27.366072"
       cy="1018.4337"
       rx="2.0982144"
       ry="2.0535715" />
    <path
       style="fill:none;fill-rule:evenodd;stroke:#e6e6e6;stroke-width:0.5;stroke-linecap:butt;stroke-linejoin:miter;stroke-miterlimit:4;stroke-dasharray:none;stroke-opacity:0.48627451;opacity:1"
       d="m 29.231289,1018.3327 -0.441942,-13.0689 c 0,0 4.747354,2.358 4.987628,4.6089 0.12828,1.2017 -2.083439,2.9673 -2.083439,2.9673"
       id="path4172"
       inkscape:connector-curvature="0"
       sodipodi:nodetypes="ccsc" />
  </g>
</svg>
