<?xml version="1.0" encoding="UTF-8" standalone="no"?>
<svg
   xmlns:dc="http://purl.org/dc/elements/1.1/"
   xmlns:cc="http://creativecommons.org/ns#"
   xmlns:rdf="http://www.w3.org/1999/02/22-rdf-syntax-ns#"
   xmlns:svg="http://www.w3.org/2000/svg"
   xmlns="http://www.w3.org/2000/svg"
   width="15"
   height="40"
   viewBox="0 0 15 40"
   id="svg3528"
   version="1.1">
  <defs
     id="defs3530" />
  <metadata
     id="metadata3533">
    <rdf:RDF>
      <cc:Work
         rdf:about="">
        <dc:format>image/svg+xml</dc:format>
        <dc:type
           rdf:resource="http://purl.org/dc/dcmitype/StillImage" />
        <dc:title></dc:title>
      </cc:Work>
    </rdf:RDF>
  </metadata>
  <g
     id="layer1"
     transform="translate(0,-1012.3622)">
    <path
       style="font-style:normal;font-weight:normal;font-size:12.5px;font-family:Arial;fill:#000000;stroke:none;stroke-width:0.30000001;stroke-dasharray:none"
       font-size="10pt"
       font-weight="normal"
       font-style="normal"
       x="560"
       y="61.5"
       width="1"
       height="118"
       d="M 2.1492573,1032.7069 M 5.890351,1021.337 c 0.032555,-0.01 0.081327,-0.01 0.1301245,-0.01 0.1138598,0 0.211453,0.054 0.3415779,0.1987 1.1548586,1.191 1.7566862,2.5583 1.7566862,3.8819 0,0.2314 0,0.452 -0.048773,0.6617 -0.1951871,1.257 -0.9759367,2.4041 -2.1470605,3.1428 -1.2524525,0.7941 -2.0982666,1.4337 -2.8464849,2.1727 -0.4229057,0.397 -0.8295462,0.8822 -0.9434055,1.1249 -0.048773,0.077 -0.1789218,0.1544 -0.2927811,0.1544 l -0.032555,0 0,-1.7095 0,-1.7203 0.081327,0 c 0.4229059,0 1.2687177,-0.099 1.8217486,-0.2205 2.1307977,-0.4965 3.5621715,-2.1176 3.5621715,-3.9702 0,-0.1543 -0.016276,-0.3197 -0.032555,-0.4743 -0.1463906,-0.9593 -0.6506248,-1.963 -1.4476395,-2.7899 -0.081327,-0.088 -0.1301249,-0.1765 -0.1301249,-0.2428 0,-0.088 0.065063,-0.1653 0.2277185,-0.1983"
       id="path100" />
    <path
       style="font-style:normal;font-weight:normal;font-size:12.5px;font-family:Arial;fill:#000000;stroke:none;stroke-width:0.30000001;stroke-dasharray:none"
       font-size="10pt"
       font-weight="normal"
       font-style="normal"
       x="560"
       y="61.5"
       width="1"
       height="118"
       d="m 9.9343212,1027.6956 c 0.0562,-0.022 0.1403998,-0.022 0.2246398,-0.022 0.196559,0 0.365039,0.1088 0.589679,0.3916 1.99368,2.349 3.03264,5.0461 3.03264,7.6562 0,0.4568 0,0.8919 -0.0842,1.3051 -0.33696,2.4797 -1.6848,4.7418 -3.7065588,6.1991 -2.1621607,1.566 -3.6223247,2.8275 -4.9140047,4.2849 -0.73008,0.783 -1.43208,1.7401 -1.62864,2.2186 -0.0842,0.1522 -0.30888,0.3045 -0.50544,0.3045 l -0.0562,0 0,-3.3714 0,-3.3932 0.1404,0 c 0.73008,0 2.19024,-0.1957 3.14496,-0.435 3.6784847,-0.9787 6.1495235,-4.1762 6.1495235,-7.8303 0,-0.3045 -0.0281,-0.6307 -0.0562,-0.9353 -0.25272,-1.8923 -1.1232,-3.8716 -2.4991188,-5.503 -0.1404,-0.174 -0.2692829,-0.2587 -0.2692829,-0.3892 0,-0.174 0.1569629,-0.4156 0.4377629,-0.4808"
       id="path100-2" />
    <path
       style="font-style:normal;font-weight:normal;font-size:12.5px;font-family:Arial;fill:#000000;stroke:none;stroke-width:0.30000001;stroke-dasharray:none"
       font-size="10pt"
       font-weight="normal"
       font-style="normal"
       x="560"
       y="61.5"
       width="1"
       height="118"
       d="m 2.6612894,1040.3114 m 5.4036238,-15.2485 c 0.047021,-0.014 0.1174696,-0.014 0.1879518,-0.014 0.1644572,0 0.305421,0.073 0.4933731,0.2664 1.6680739,1.5972 2.5373499,3.4311 2.5373499,5.206 0,0.3105 0,0.6063 -0.07044,0.8873 -0.281928,1.6861 -1.4096394,3.2243 -3.1012061,4.2153 -1.8090384,1.0649 -3.0307298,1.9225 -4.1114538,2.9135 -0.6108439,0.5325 -1.198194,1.1832 -1.3626522,1.5088 -0.070448,0.1033 -0.2584336,0.2069 -0.4228916,0.2069 l -0.047021,0 0,-2.2924 0,-2.3073 0.1174697,0 c 0.6108438,0 1.8325318,-0.1332 2.6313278,-0.2959 3.0777179,-0.6654 5.1451888,-2.8395 5.1451888,-5.3243 0,-0.2071 -0.02351,-0.4289 -0.04702,-0.636 -0.2114461,-1.2868 -0.93976,-2.6325 -2.0909647,-3.7418 -0.1174697,-0.1183 -0.187952,-0.2366 -0.187952,-0.3254 0,-0.1183 0.093975,-0.222 0.328916,-0.2662"
       id="path100-2-7" />
    <path
       style="font-style:normal;font-weight:normal;font-size:12.5px;font-family:Arial;fill:#000000;stroke:none;stroke-width:0.30000001;stroke-dasharray:none"
       font-size="10pt"
       font-weight="normal"
       font-style="normal"
       x="560"
       y="61.5"
       width="1"
       height="118"
       d="m 2.5009387,1037.3057 m 4.6361806,-14.6242 c 0.040343,-0.014 0.1007862,-0.014 0.1612581,-0.014 0.1411006,0 0.2620436,0.071 0.4233026,0.2554 1.4311667,1.5319 2.1769854,3.2907 2.1769854,4.9929 0,0.2979 0,0.5815 -0.060445,0.851 -0.2418868,1.617 -1.2094365,3.0923 -2.6607598,4.0427 -1.5521124,1.0213 -2.6002944,1.8438 -3.5275298,2.7943 -0.5240895,0.5107 -1.0280219,1.1347 -1.1691229,1.4468 -0.060443,0.099 -0.2217303,0.1986 -0.3628311,0.1986 l -0.040344,0 0,-2.1986 0,-2.2128 0.1007865,0 c 0.5240896,0 1.5722687,-0.1276 2.2576167,-0.2837 2.6406086,-0.6383 4.4144492,-2.7234 4.4144492,-5.1065 0,-0.1985 -0.020172,-0.4112 -0.040344,-0.6099 -0.1814159,-1.234 -0.8062916,-2.5246 -1.7939983,-3.5886 -0.1007862,-0.1133 -0.1612581,-0.2268 -0.1612581,-0.312 0,-0.1134 0.080634,-0.2129 0.282202,-0.2553"
       id="path100-2-7-8" />
    <path
       style="font-style:normal;font-weight:normal;font-size:12.5px;font-family:Arial;fill:#000000;stroke:none;stroke-width:0.30000001;stroke-dasharray:none"
       font-size="10pt"
       font-weight="normal"
       font-style="normal"
       x="560"
       y="61.5"
       width="1"
       height="118"
       d="m 3.3529254,1044.6811 m 5.7211868,-18.4597 c 0.049785,-0.017 0.1243732,-0.017 0.1989969,-0.017 0.1741224,0 0.3233702,0.089 0.5223685,0.3223 1.7661044,1.9336 2.6864664,4.1539 2.6864664,6.3025 0,0.3759 0,0.7339 -0.07459,1.074 -0.298494,2.0412 -1.492481,3.9035 -3.2834592,5.1031 -1.915353,1.2892 -3.2088412,2.3275 -4.3530778,3.5271 -0.6467425,0.6447 -1.2686102,1.4323 -1.4427332,1.8266 -0.074588,0.125 -0.2736216,0.2504 -0.4477444,0.2504 l -0.049785,0 0,-2.7751 0,-2.7932 0.1243732,0 c 0.6467423,0 1.9402271,-0.1613 2.7859671,-0.3583 3.2585909,-0.8054 5.4475653,-3.4375 5.4475653,-6.4456 0,-0.2506 -0.02489,-0.5191 -0.04978,-0.7699 -0.223873,-1.5577 -0.994989,-3.1869 -2.2138485,-4.5297 -0.1243732,-0.1433 -0.1989978,-0.2865 -0.1989978,-0.3938 0,-0.1435 0.099498,-0.2689 0.3482461,-0.3225"
       id="path100-2-7-3" />
    <path
       id="rect4139"
       d="m 1.7924325,1014.8108 1.198486,0 0,35.2211 -1.198486,0 z"
       style="opacity:1;fill:#000000;fill-opacity:1;stroke:none;stroke-width:1;stroke-miterlimit:4;stroke-dasharray:none;stroke-dashoffset:0;stroke-opacity:1" />
  </g>
</svg>
