<?xml version="1.0" encoding="UTF-8" standalone="no"?>
<svg
   xmlns:dc="http://purl.org/dc/elements/1.1/"
   xmlns:cc="http://creativecommons.org/ns#"
   xmlns:rdf="http://www.w3.org/1999/02/22-rdf-syntax-ns#"
   xmlns:svg="http://www.w3.org/2000/svg"
   xmlns="http://www.w3.org/2000/svg"
   width="15"
   height="40"
   viewBox="0 0 15 40"
   id="svg3528"
   version="1.1">
  <defs
     id="defs3530" />
  <metadata
     id="metadata3533">
    <rdf:RDF>
      <cc:Work
         rdf:about="">
        <dc:format>image/svg+xml</dc:format>
        <dc:type
           rdf:resource="http://purl.org/dc/dcmitype/StillImage" />
        <dc:title></dc:title>
      </cc:Work>
    </rdf:RDF>
  </metadata>
  <g
     id="layer1"
     transform="translate(0,-1012.3622)">
    <path
       style="font-style:normal;font-weight:normal;font-size:12.5px;font-family:Arial;fill:#000000;stroke:none;stroke-width:0.30000001;stroke-dasharray:none"
       font-size="10pt"
       font-weight="normal"
       font-style="normal"
       x="560"
       y="61.5"
       width="1"
       height="118"
       d="m 2.2577744,1039.9816 m 3.3441403,-13.9122 c 0.029101,-0.013 0.072698,-0.013 0.1163176,-0.013 0.1017784,0 0.1890165,0.067 0.3053343,0.2429 1.0323208,1.4573 1.5702908,3.1305 1.5702908,4.7499 0,0.2833 0,0.5532 -0.043598,0.8096 -0.1744766,1.5383 -0.8723838,2.9418 -1.9192442,3.8457 -1.1195593,0.9716 -1.8756273,1.7542 -2.544455,2.6583 -0.3780328,0.4858 -0.7415262,1.0796 -0.8433042,1.3764 -0.043598,0.094 -0.1599372,0.189 -0.2617153,0.189 l -0.029101,0 0,-2.0917 0,-2.105 0.072698,0 c 0.378033,0 1.1340988,-0.1214 1.6284497,-0.2699 1.9047068,-0.6072 3.184203,-2.5909 3.184203,-4.8577 0,-0.1889 -0.014549,-0.3914 -0.029101,-0.5803 -0.1308577,-1.174 -0.5815893,-2.4019 -1.2940359,-3.4139 -0.072698,-0.108 -0.1163178,-0.2159 -0.1163178,-0.297 0,-0.1079 0.058159,-0.2023 0.2035561,-0.2427"
       id="path100" />
    <path
       style="font-style:normal;font-weight:normal;font-size:12.5px;font-family:Arial;fill:#000000;stroke:none;stroke-width:0.30000001;stroke-dasharray:none"
       font-size="10pt"
       font-weight="normal"
       font-style="normal"
       x="560"
       y="61.5"
       width="1"
       height="118"
       d="m 3.4759165,1050.1208 m 6.4584047,-22.4252 c 0.0562,-0.022 0.1403998,-0.022 0.2246398,-0.022 0.196559,0 0.365039,0.1088 0.589679,0.3916 1.99368,2.349 3.03264,5.0461 3.03264,7.6562 0,0.4568 0,0.8919 -0.0842,1.3051 -0.33696,2.4797 -1.6848,4.7418 -3.7065588,6.1991 -2.1621607,1.566 -3.6223247,2.8275 -4.9140047,4.2849 -0.73008,0.783 -1.43208,1.7401 -1.62864,2.2186 -0.0842,0.1522 -0.30888,0.3045 -0.50544,0.3045 l -0.0562,0 0,-3.3714 0,-3.3932 0.1404,0 c 0.73008,0 2.19024,-0.1957 3.14496,-0.435 3.6784847,-0.9787 6.1495235,-4.1762 6.1495235,-7.8303 0,-0.3045 -0.0281,-0.6307 -0.0562,-0.9353 -0.25272,-1.8923 -1.1232,-3.8716 -2.4991188,-5.503 -0.1404,-0.174 -0.22464,-0.348 -0.22464,-0.4785 0,-0.174 0.11232,-0.3263 0.39312,-0.3915"
       id="path100-2" />
    <path
       style="font-style:normal;font-weight:normal;font-size:12.5px;font-family:Arial;fill:#000000;stroke:none;stroke-width:0.30000001;stroke-dasharray:none"
       font-size="10pt"
       font-weight="normal"
       font-style="normal"
       x="560"
       y="61.5"
       width="1"
       height="118"
       d="m 2.4420693,1044.8355 m 5.2448424,-17.8353 c 0.04564,-0.017 0.1140181,-0.017 0.182429,-0.017 0.1596248,0 0.2964465,0.086 0.4788758,0.3115 1.6190586,1.8682 2.4627925,4.0133 2.4627925,6.0893 0,0.3632 0,0.7091 -0.06838,1.0378 -0.273643,1.9721 -1.3682182,3.7713 -3.0100795,4.9304 -1.7558814,1.2455 -2.9416742,2.2487 -3.9906419,3.4078 -0.5928947,0.6228 -1.1629859,1.3839 -1.3226115,1.7646 -0.068378,0.121 -0.2508401,0.2421 -0.4104654,0.2421 l -0.04564,0 0,-2.6813 0,-2.6987 0.1140183,0 c 0.5928947,0 1.7786843,-0.1557 2.5540083,-0.346 2.9872813,-0.7784 4.994001,-3.3214 4.994001,-6.2277 0,-0.2421 -0.02282,-0.5016 -0.04564,-0.7438 -0.2052329,-1.5051 -0.9121458,-3.0791 -2.0295233,-4.3766 -0.1140183,-0.1383 -0.1824291,-0.2767 -0.1824291,-0.3806 0,-0.1384 0.091215,-0.2596 0.319251,-0.3114"
       id="path100-2-7" />
    <path
       id="rect4139"
       d="m 1.7736384,1014.8167 1.198486,0 0,35.2211 -1.198486,0 z"
       style="opacity:1;fill:#000000;fill-opacity:1;stroke:none;stroke-width:1;stroke-miterlimit:4;stroke-dasharray:none;stroke-dashoffset:0;stroke-opacity:1" />
  </g>
</svg>
