<?xml version="1.0" encoding="UTF-8" standalone="no"?>
<svg
   xmlns:dc="http://purl.org/dc/elements/1.1/"
   xmlns:cc="http://creativecommons.org/ns#"
   xmlns:rdf="http://www.w3.org/1999/02/22-rdf-syntax-ns#"
   xmlns:svg="http://www.w3.org/2000/svg"
   xmlns="http://www.w3.org/2000/svg"
   width="15"
   height="40"
   viewBox="0 0 15 40"
   id="svg3528"
   version="1.1">
  <defs
     id="defs3530" />
  <metadata
     id="metadata3533">
    <rdf:RDF>
      <cc:Work
         rdf:about="">
        <dc:format>image/svg+xml</dc:format>
        <dc:type
           rdf:resource="http://purl.org/dc/dcmitype/StillImage" />
        <dc:title></dc:title>
      </cc:Work>
    </rdf:RDF>
  </metadata>
  <g
     id="layer1"
     transform="translate(0,-1012.3622)">
    <path
       style="font-style:normal;font-weight:normal;font-size:12.5px;font-family:Arial;fill:#000000;stroke:none;stroke-width:0.30000001;stroke-dasharray:none"
       font-size="10pt"
       font-weight="normal"
       font-style="normal"
       x="560"
       y="61.5"
       width="1"
       height="118"
       d="m 2.0683708,1036.6355 m 3.3441403,-14.492 c 0.029101,-0.014 0.072698,-0.014 0.1163176,-0.014 0.1017784,0 0.1890165,0.07 0.3053343,0.2531 1.0323208,1.518 1.5702908,3.2609 1.5702908,4.9479 0,0.295 0,0.5761 -0.043598,0.8433 -0.1744766,1.6024 -0.8723838,3.0644 -1.9192442,4.0059 -1.1195593,1.0121 -1.8756273,1.8274 -2.544455,2.7692 -0.3780328,0.506 -0.7415262,1.1246 -0.8433042,1.4337 -0.043598,0.098 -0.1599372,0.1969 -0.2617153,0.1969 l -0.029101,0 0,-2.1789 0,-2.1927 0.072698,0 c 0.378033,0 1.1340988,-0.1265 1.6284497,-0.2811 1.9047068,-0.6326 3.184203,-2.699 3.184203,-5.0602 0,-0.1968 -0.014549,-0.4077 -0.029101,-0.6046 -0.1308577,-1.2228 -0.5815893,-2.502 -1.2940359,-3.5561 -0.072698,-0.1125 -0.1163178,-0.2249 -0.1163178,-0.3094 0,-0.1124 0.058159,-0.2107 0.2035561,-0.2528"
       id="path100" />
    <path
       style="font-style:normal;font-weight:normal;font-size:12.5px;font-family:Arial;fill:#000000;stroke:none;stroke-width:0.30000001;stroke-dasharray:none"
       font-size="10pt"
       font-weight="normal"
       font-style="normal"
       x="560"
       y="61.5"
       width="1"
       height="118"
       d="m 9.9343212,1027.6956 c 0.0562,-0.022 0.1403998,-0.022 0.2246398,-0.022 0.196559,0 0.365039,0.1088 0.589679,0.3916 1.99368,2.349 3.03264,5.0461 3.03264,7.6562 0,0.4568 0,0.8919 -0.0842,1.3051 -0.33696,2.4797 -1.6848,4.7418 -3.7065588,6.1991 -2.1621607,1.566 -3.6223247,2.8275 -4.9140047,4.2849 -0.73008,0.783 -1.43208,1.7401 -1.62864,2.2186 -0.0842,0.1522 -0.30888,0.3045 -0.50544,0.3045 l -0.0562,0 0,-3.3714 0,-3.3932 0.1404,0 c 0.73008,0 2.19024,-0.1957 3.14496,-0.435 3.6784847,-0.9787 6.1495235,-4.1762 6.1495235,-7.8303 0,-0.3045 -0.0281,-0.6307 -0.0562,-0.9353 -0.25272,-1.8923 -1.1232,-3.8716 -2.4991188,-5.503 -0.1404,-0.174 -0.2692829,-0.2587 -0.2692829,-0.3892 0,-0.174 0.1569629,-0.4156 0.4377629,-0.4808"
       id="path100-2" />
    <path
       style="font-style:normal;font-weight:normal;font-size:12.5px;font-family:Arial;fill:#000000;stroke:none;stroke-width:0.30000001;stroke-dasharray:none"
       font-size="10pt"
       font-weight="normal"
       font-style="normal"
       x="560"
       y="61.5"
       width="1"
       height="118"
       d="m 2.3136961,1040.6686 m 4.5303264,-17.0325 c 0.039422,-0.016 0.098485,-0.016 0.1575762,-0.016 0.1378788,0 0.256061,0.082 0.4136376,0.2975 1.3984907,1.7841 2.1272806,3.8326 2.1272806,5.8151 0,0.3469 0,0.6773 -0.059064,0.9911 -0.236364,1.8834 -1.1818225,3.6016 -2.6000095,4.7085 -1.5166739,1.1895 -2.5409236,2.1475 -3.4469882,3.2544 -0.5121235,0.5948 -1.0045499,1.3216 -1.1424294,1.6853 -0.059063,0.1154 -0.2166675,0.2311 -0.3545468,0.2311 l -0.039422,0 0,-2.5606 0,-2.5772 0.098485,0 c 0.5121234,0 1.5363704,-0.1488 2.2060703,-0.3305 2.5803177,-0.7433 4.3136576,-3.1718 4.3136576,-5.9473 0,-0.2313 -0.019711,-0.479 -0.039422,-0.7104 -0.1772736,-1.4373 -0.7878823,-2.9405 -1.753037,-4.1796 -0.098485,-0.1321 -0.1575765,-0.2642 -0.1575765,-0.3634 0,-0.1322 0.078788,-0.248 0.2757589,-0.2974"
       id="path100-2-7" />
    <path
       style="font-style:normal;font-weight:normal;font-size:12.5px;font-family:Arial;fill:#000000;stroke:none;stroke-width:0.30000001;stroke-dasharray:none"
       font-size="10pt"
       font-weight="normal"
       font-style="normal"
       x="560"
       y="61.5"
       width="1"
       height="118"
       d="m 3.3154409,1045.2522 m 5.2448425,-19.3963 c 0.04564,-0.019 0.114018,-0.019 0.182429,-0.019 0.159625,0 0.296446,0.094 0.478876,0.3388 1.6190576,2.0317 2.4627916,4.3645 2.4627916,6.6222 0,0.395 0,0.7712 -0.06838,1.1287 -0.273643,2.1447 -1.368218,4.1013 -3.0100786,5.3619 -1.7558817,1.3545 -2.9416745,2.4455 -3.9906422,3.706 -0.5928947,0.6774 -1.1629859,1.5051 -1.3226115,1.9191 -0.068378,0.1316 -0.2508401,0.2633 -0.4104654,0.2633 l -0.04564,0 0,-2.916 0,-2.9349 0.1140183,0 c 0.5928947,0 1.7786843,-0.1693 2.5540083,-0.3763 2.9872815,-0.8465 4.9940011,-3.6121 4.9940011,-6.7728 0,-0.2632 -0.02282,-0.5455 -0.04564,-0.8089 -0.205233,-1.6368 -0.9121456,-3.3485 -2.0295236,-4.7596 -0.114018,-0.1504 -0.182429,-0.3009 -0.182429,-0.4139 0,-0.1505 0.09122,-0.2823 0.319251,-0.3387"
       id="path100-2-7-8" />
    <path
       id="rect4139"
       d="m 1.7527859,1014.8196 1.198486,0 0,35.2211 -1.198486,0 z"
       style="opacity:1;fill:#000000;fill-opacity:1;stroke:none;stroke-width:1;stroke-miterlimit:4;stroke-dasharray:none;stroke-dashoffset:0;stroke-opacity:1" />
  </g>
</svg>
