<?xml version="1.0" encoding="UTF-8" standalone="no"?>
<svg
   xmlns:dc="http://purl.org/dc/elements/1.1/"
   xmlns:cc="http://creativecommons.org/ns#"
   xmlns:rdf="http://www.w3.org/1999/02/22-rdf-syntax-ns#"
   xmlns:svg="http://www.w3.org/2000/svg"
   xmlns="http://www.w3.org/2000/svg"
   width="15"
   height="40"
   viewBox="0 0 15 40"
   id="svg3528"
   version="1.1">
  <defs
     id="defs3530" />
  <metadata
     id="metadata3533">
    <rdf:RDF>
      <cc:Work
         rdf:about="">
        <dc:format>image/svg+xml</dc:format>
        <dc:type
           rdf:resource="http://purl.org/dc/dcmitype/StillImage" />
        <dc:title></dc:title>
      </cc:Work>
    </rdf:RDF>
  </metadata>
  <g
     id="layer1"
     transform="translate(0,-1012.3622)">
    <path
       style="font-style:normal;font-weight:normal;font-size:12.5px;font-family:Arial;fill:#000000;stroke:none;stroke-width:0.30000001;stroke-dasharray:none"
       font-size="10pt"
       font-weight="normal"
       font-style="normal"
       x="560"
       y="61.5"
       width="1"
       height="118"
       d="m 3.256406,1050.0387 m 6.4584043,-28.9505 c 0.0562,-0.028 0.1404,-0.028 0.22464,-0.028 0.1965597,0 0.3650397,0.1404 0.5896797,0.5055 1.99368,3.0326 3.03264,6.5145 3.03264,9.8841 0,0.5897 0,1.1513 -0.0842,1.6848 -0.33696,3.2012 -1.6848,6.1215 -3.7065597,8.0028 -2.1621603,2.0218 -3.6223243,3.6504 -4.9140043,5.5318 -0.73008,1.0109 -1.43208,2.2464 -1.62864,2.8642 -0.0842,0.1965 -0.30888,0.3931 -0.50544,0.3931 l -0.0562,0 0,-4.3524 0,-4.3805 0.1404,0 c 0.73008,0 2.19024,-0.2527 3.14496,-0.5616 3.6784843,-1.2636 6.149524,-5.3914 6.149524,-10.1088 0,-0.3931 -0.0281,-0.8143 -0.0562,-1.2075 -0.25272,-2.4429 -1.1232,-4.9982 -2.4991197,-7.1042 -0.1404,-0.2246 -0.22464,-0.4493 -0.22464,-0.6178 0,-0.2246 0.11232,-0.4212 0.39312,-0.5054"
       id="path100" />
    <path
       id="rect4139"
       d="m 1.6778806,1014.677 1.198486,0 0,35.2211 -1.198486,0 z"
       style="opacity:1;fill:#000000;fill-opacity:1;stroke:none;stroke-width:1;stroke-miterlimit:4;stroke-dasharray:none;stroke-dashoffset:0;stroke-opacity:1" />
  </g>
</svg>
